<svg width="89" height="41" viewBox="0 0 89 41" fill="none" xmlns="http://www.w3.org/2000/svg">
<g clip-path="url(#clip0_265_406)">
<path d="M7.39126 4.90045C7.04278 5.22715 7.021 6.53395 7.021 20.0593C7.021 29.8603 7.10812 35.0222 7.2388 35.3053C7.4566 35.6973 7.76152 35.7191 13.5985 35.7191C20.2414 35.7191 21.4829 35.5667 23.6609 34.4777C28.8663 31.8641 30.1731 24.5024 26.1003 20.7345C25.5558 20.2336 25.033 19.8197 24.9459 19.8197C24.837 19.8197 24.5974 19.6673 24.4014 19.5148C24.0529 19.2535 24.1183 19.1446 25.0766 18.1427C26.5141 16.6616 26.9061 15.4202 26.7972 12.7848C26.7319 11.1949 26.6012 10.5415 26.1656 9.56137C25.4251 7.97143 24.3143 6.77353 22.9204 6.01123C20.8077 4.85689 20.0019 4.748 13.6421 4.6391C8.34957 4.55198 7.71796 4.57376 7.39126 4.90045ZM18.5644 9.60493C20.6988 10.0623 21.7878 11.6087 21.5482 13.852C21.2869 16.3567 20.0236 17.0537 15.6676 17.0755L12.7927 17.0972L12.7273 13.5035C12.7056 11.5433 12.7273 9.80095 12.7709 9.64849C12.9234 9.27823 16.9527 9.25645 18.5644 9.60493ZM21.0255 22.9778C22.8986 23.7619 24.0094 25.8092 23.5956 27.7041C23.3124 28.9455 22.7461 29.6425 21.4829 30.2741C20.481 30.7751 20.1761 30.8186 16.5606 30.884L12.6838 30.9493V26.8111V22.6511H16.4735C19.3267 22.6511 20.4375 22.7383 21.0255 22.9778Z" fill="black"/>
<path d="M30.8919 5.05291C30.587 5.48851 30.5435 7.29625 30.5435 20.2118C30.5435 29.9039 30.6306 35.0222 30.7613 35.3053C30.9791 35.6756 31.2404 35.7191 33.3749 35.7191C35.5093 35.7191 35.7707 35.6756 35.9885 35.3053C36.1191 35.0222 36.2063 29.8603 36.2063 20.0593C36.2063 6.90421 36.1627 5.22715 35.8578 4.92223C35.5964 4.66087 35.0301 4.57375 33.3749 4.57375C31.3929 4.57375 31.1969 4.61731 30.8919 5.05291Z" fill="black"/>
<path d="M46.3341 14.1352C38.4279 16.4003 35.6837 26.0271 41.2376 32.1037C46.1381 37.4616 55.3945 36.6993 59.3367 30.6226C62.1028 26.332 61.4494 20.3861 57.7903 16.923C56.244 15.4638 54.8283 14.6361 52.9987 14.1134C51.1692 13.6125 48.12 13.6125 46.3341 14.1352ZM52.28 19.0793C53.6957 19.7762 54.5451 20.7563 55.1332 22.3245C56.7013 26.528 53.9353 30.9276 49.71 30.9276C46.3341 30.9276 43.8294 28.2486 43.8294 24.6331C43.8294 22.7601 44.3739 21.4097 45.6589 20.1465C46.9221 18.8832 47.728 18.5565 49.7318 18.5348C50.8425 18.513 51.387 18.6219 52.28 19.0793Z" fill="black"/>
<path d="M69.399 14.3312C67.33 15.0717 66.0232 15.8994 64.6292 17.4675C62.8215 19.4931 61.9067 21.9106 61.9067 24.7203C61.9285 27.7259 62.9522 30.2306 65.0648 32.3433C68.6367 35.9152 74.0817 36.7428 78.7427 34.3906C79.9623 33.759 81.9443 32.1472 81.9443 31.777C81.9443 31.581 78.9822 28.6842 78.6555 28.5753C78.5466 28.5318 78.0457 28.8367 77.5665 29.2723C75.2579 31.2325 71.5988 31.276 69.399 29.3376C67.8527 27.9873 67.4606 27.0507 67.4606 24.7203C67.4606 23.1085 67.5478 22.5858 67.9398 21.8671C69.0941 19.7109 70.8801 18.6437 73.3412 18.6437C74.9747 18.6437 76.7825 19.2535 77.5012 20.0594C77.6972 20.2772 78.0675 20.4732 78.2853 20.4732C78.8516 20.4732 81.7265 17.9031 81.7265 17.424C81.7265 16.9884 79.9188 15.5291 78.5684 14.8539C75.8895 13.5254 72.3176 13.3293 69.399 14.3312Z" fill="black"/>
<path d="M0.0732422 37.2438C0.0732422 39.7049 0.0732422 39.7267 0.421722 39.0951C0.900881 38.2457 0.900881 36.2419 0.421722 35.3925C0.0732422 34.7609 0.0732422 34.7826 0.0732422 37.2438Z" fill="black"/>
</g>
<defs>
<clipPath id="clip0_265_406">
<rect width="87.9911" height="40.0751" fill="white" transform="translate(0.0517578)"/>
</clipPath>
</defs>
</svg>
