<svg width="324" height="216" viewBox="0 0 324 216" fill="none" xmlns="http://www.w3.org/2000/svg">
<path d="M307.312 207.442C307.312 207.507 242.236 207.554 161.975 207.554C81.7134 207.554 16.6196 207.507 16.6196 207.442C16.6196 207.377 81.6832 207.33 161.975 207.33C242.266 207.33 307.312 207.381 307.312 207.442Z" fill="#263238"/>
<path d="M258.4 98.3838C258.365 95.2261 259.266 92.1287 260.989 89.4824C262.712 86.8361 265.181 84.7595 268.083 83.5147C270.985 82.2699 274.191 81.9126 277.296 82.488C280.401 83.0634 283.266 84.5457 285.529 86.7477C287.793 88.9498 289.353 91.773 290.014 94.861C290.674 97.949 290.405 101.164 289.241 104.099C288.076 107.034 286.068 109.559 283.471 111.354C280.873 113.149 277.801 114.135 274.644 114.186C270.396 114.238 266.301 112.604 263.256 109.642C260.211 106.68 258.465 102.631 258.4 98.3838ZM282.031 97.9993C281.999 96.4889 281.521 95.0218 280.656 93.7831C279.791 92.5443 278.579 91.5896 277.172 91.0392C275.765 90.4888 274.226 90.3676 272.751 90.6907C271.275 91.0138 269.928 91.7669 268.88 92.8548C267.831 93.9428 267.129 95.3168 266.861 96.8036C266.593 98.2903 266.771 99.8232 267.374 101.209C267.976 102.594 268.975 103.77 270.245 104.588C271.515 105.406 272.999 105.83 274.51 105.806C276.542 105.766 278.475 104.922 279.885 103.458C281.295 101.994 282.067 100.031 282.031 97.9993Z" fill="#455A64"/>
<path d="M258.401 98.3838C258.332 94.1382 259.949 90.0387 262.897 86.9829C265.845 83.9271 269.884 82.1641 274.13 82.0801L274.264 90.4609C272.226 90.4935 270.286 91.3341 268.868 92.7976C267.451 94.2612 266.673 96.2278 266.706 98.265C266.738 100.302 267.579 102.243 269.042 103.66C270.506 105.078 272.473 105.855 274.51 105.823L274.644 114.204C270.393 114.257 266.295 112.62 263.249 109.654C260.204 106.688 258.46 102.635 258.401 98.3838Z" fill="#4864A3"/>
<path d="M272.695 80.7841C275.125 80.7255 277.542 81.1523 279.804 82.0396C282.067 82.9268 284.13 84.2567 285.872 85.9513C287.614 87.6459 289 89.6711 289.95 91.9083C290.899 94.1455 291.392 96.5497 291.401 98.98L281.642 99.1398C281.56 94.1761 277.776 91.0571 272.859 91.1521L272.695 80.7841Z" fill="#263238"/>
<path d="M135.869 38.2237C135.987 31.6851 130.782 26.2892 124.243 26.1717C117.704 26.0541 112.308 31.2594 112.191 37.798C112.073 44.3366 117.279 49.7325 123.817 49.8501C130.356 49.9676 135.752 44.7623 135.869 38.2237Z" fill="#4864A3"/>
<g opacity="0.1">
<path d="M126.261 26.3867C124.734 26.0933 123.164 26.1036 121.641 26.4171C120.118 26.7306 118.672 27.341 117.385 28.2136C116.098 29.0861 114.996 30.2037 114.141 31.5024C113.286 32.8012 112.695 34.2556 112.402 35.7827C112.402 35.7827 120.502 37.7137 123.12 34.802C125.738 31.8904 126.261 26.3867 126.261 26.3867Z" fill="white"/>
</g>
<path d="M132.719 39.4892C132.382 41.2361 131.534 42.8437 130.283 44.1088C129.032 45.3739 127.434 46.2398 125.691 46.5971C123.948 46.9543 122.139 46.7869 120.491 46.1159C118.843 45.4449 117.431 44.3005 116.433 42.8274C115.436 41.3542 114.897 39.6184 114.886 37.8392C114.875 36.0601 115.391 34.3175 116.37 32.8317C117.348 31.346 118.745 30.1836 120.385 29.4917C122.024 28.7997 123.831 28.6092 125.578 28.9441C126.74 29.1668 127.847 29.6164 128.834 30.267C129.822 30.9177 130.672 31.7567 131.335 32.7362C131.998 33.7156 132.462 34.8161 132.7 35.9749C132.937 37.1337 132.944 38.3279 132.719 39.4892Z" fill="#4864A3"/>
<g opacity="0.2">
<path d="M132.719 39.489C132.381 41.2358 131.533 42.8434 130.282 44.1085C129.032 45.3737 127.434 46.2396 125.691 46.5968C123.948 46.9541 122.138 46.7866 120.49 46.1157C118.842 45.4447 117.431 44.3003 116.433 42.8271C115.435 41.354 114.897 39.6181 114.885 37.839C114.874 36.0599 115.39 34.3173 116.369 32.8315C117.348 31.3457 118.745 30.1834 120.384 29.4914C122.023 28.7995 123.831 28.6089 125.578 28.9439C126.74 29.1666 127.846 29.6161 128.834 30.2668C129.822 30.9175 130.671 31.7565 131.335 32.7359C131.998 33.7153 132.462 34.8159 132.699 35.9747C132.937 37.1334 132.943 38.3276 132.719 39.489Z" fill="black"/>
</g>
<path d="M132.901 39.9038C132.57 41.6292 131.735 43.2178 130.502 44.4687C129.269 45.7197 127.692 46.5768 125.971 46.9316C124.251 47.2864 122.464 47.1231 120.836 46.4622C119.208 45.8012 117.813 44.6725 116.827 43.2186C115.841 41.7648 115.308 40.0511 115.296 38.2944C115.283 36.5377 115.792 34.8168 116.758 33.3494C117.724 31.882 119.104 30.7339 120.722 30.0505C122.34 29.3671 124.125 29.1789 125.85 29.5098C128.164 29.9535 130.206 31.2977 131.528 33.2469C132.85 35.1961 133.344 37.5905 132.901 39.9038Z" fill="#4864A3"/>
<g opacity="0.2">
<path d="M132.901 39.9038C132.57 41.6292 131.735 43.2178 130.502 44.4687C129.269 45.7197 127.692 46.5768 125.971 46.9316C124.251 47.2864 122.464 47.1231 120.836 46.4622C119.208 45.8012 117.813 44.6725 116.827 43.2186C115.841 41.7648 115.308 40.0511 115.296 38.2944C115.283 36.5377 115.792 34.8168 116.758 33.3494C117.724 31.882 119.104 30.7339 120.722 30.0505C122.34 29.3671 124.125 29.1789 125.85 29.5098C128.164 29.9535 130.206 31.2977 131.528 33.2469C132.85 35.1961 133.344 37.5905 132.901 39.9038Z" fill="white"/>
</g>
<path d="M124.671 37.5451L125.103 35.3117C125.5 35.4376 125.878 35.6178 126.226 35.8473C126.402 35.9847 126.566 36.1379 126.714 36.3053L126.757 36.2405L127.258 35.5017L127.371 35.3333L127.055 34.8408L126.848 34.8883C126.395 34.5295 125.875 34.2651 125.319 34.1107L125.556 32.8838L125.232 32.5037L125.172 32.8104L124.649 32.711L124.416 33.9638C122.662 33.7997 121.655 34.6248 121.439 35.7523C121.141 37.2902 122.381 37.9425 123.552 38.4739L123.12 40.6857C122.33 40.4671 121.618 40.0281 121.068 39.42L120.359 40.4438C121.04 41.166 121.922 41.6659 122.891 41.8781L122.714 42.8069L122.282 42.7291L122.653 43.1049L123.56 43.2821L123.798 42.0422C125.569 42.1977 126.585 41.3856 126.822 40.2581C127.103 38.7201 125.841 38.0765 124.671 37.5451ZM123.807 37.139C123.202 36.828 122.774 36.491 122.878 35.9597C122.982 35.4283 123.379 35.1389 124.174 35.1691L123.807 37.139ZM124.044 40.8369L124.416 38.88C125.042 39.1953 125.479 39.5453 125.375 40.0853C125.28 40.5605 124.869 40.8715 124.04 40.8369H124.044Z" fill="#4864A3"/>
<g opacity="0.3">
<path d="M124.671 37.5449L125.103 35.3114C125.501 35.4373 125.879 35.6176 126.226 35.8471C126.403 35.9844 126.566 36.1377 126.715 36.305L126.758 36.2402L127.259 35.5015L127.371 35.333L127.056 34.8405L126.849 34.8881C126.396 34.5292 125.876 34.2648 125.319 34.1105L125.557 32.8836L125.233 32.5034L125.172 32.8101L124.65 32.7108L124.416 33.9636C122.662 33.7994 121.656 34.6245 121.44 35.7521C121.142 37.29 122.382 37.9423 123.552 38.4737L123.12 40.6855C122.33 40.4669 121.618 40.0278 121.068 39.4197L120.36 40.4436C121.04 41.1657 121.922 41.6656 122.891 41.8778L122.714 42.8066L122.282 42.7289L122.654 43.1047L123.561 43.2818L123.799 42.042C125.57 42.1975 126.585 41.3853 126.823 40.2578C127.103 38.7199 125.842 38.0762 124.671 37.5449ZM123.807 37.1388C123.202 36.8277 122.775 36.4908 122.878 35.9594C122.982 35.4281 123.38 35.1386 124.174 35.1689L123.807 37.1388ZM124.045 40.8367L124.416 38.8797C125.043 39.1951 125.479 39.545 125.375 40.085C125.28 40.5602 124.87 40.8713 124.041 40.8367H124.045Z" fill="black"/>
</g>
<path d="M123.492 41.6665L123.254 42.9063L122.347 42.7335L122.585 41.5066C121.614 41.2928 120.73 40.7915 120.049 40.0681L120.762 39.0442C121.311 39.6536 122.023 40.0929 122.814 40.31L123.246 38.0982C122.075 37.5668 120.835 36.9145 121.129 35.3766C121.345 34.249 122.351 33.4239 124.11 33.5881L124.352 32.3396L125.254 32.5124L125.021 33.7393C125.807 33.9273 126.535 34.3073 127.138 34.8452L126.46 35.8561C125.973 35.4297 125.402 35.1103 124.784 34.9186L124.352 37.1521C125.522 37.6834 126.784 38.3271 126.49 39.865C126.278 41.0098 125.28 41.822 123.492 41.6665ZM123.492 36.7633L123.872 34.7934C123.06 34.7631 122.654 35.1001 122.576 35.5839C122.498 36.0678 122.887 36.4522 123.492 36.7633ZM125.06 39.7095C125.164 39.1695 124.727 38.8196 124.097 38.5042L123.721 40.4612C124.555 40.4958 124.969 40.1761 125.06 39.7095Z" fill="#5A74AC"/>
<path d="M113.08 41.5669C113.08 41.5669 113.08 41.5367 113.046 41.4676L112.955 41.1738C112.905 41.0209 112.865 40.8651 112.834 40.7073C112.779 40.4995 112.736 40.289 112.704 40.0765C112.683 39.9599 112.665 39.8346 112.644 39.7093C112.622 39.5841 112.614 39.4458 112.601 39.3076C112.562 39.0268 112.553 38.7287 112.54 38.4133C112.528 37.7298 112.571 37.0465 112.67 36.37C112.777 35.6945 112.937 35.0286 113.149 34.3785C113.257 34.0847 113.352 33.7996 113.469 33.5447C113.525 33.4151 113.573 33.2898 113.633 33.1732L113.797 32.8362C113.897 32.6202 114.013 32.4388 114.104 32.2746C114.195 32.1105 114.285 31.9722 114.363 31.8642L114.532 31.6093C114.552 31.5787 114.575 31.5498 114.601 31.5229C114.585 31.5556 114.568 31.5874 114.549 31.618L114.389 31.8815C114.32 31.9938 114.238 32.1321 114.147 32.3135C114.056 32.4949 113.948 32.6634 113.853 32.8794L113.694 33.2121C113.637 33.3287 113.59 33.4583 113.538 33.5836C113.426 33.8385 113.331 34.1236 113.227 34.4173C112.802 35.7103 112.598 37.0655 112.622 38.4263C112.622 38.7373 112.622 39.0354 112.67 39.2903C112.67 39.4285 112.691 39.5625 112.713 39.6921C112.734 39.8217 112.747 39.9426 112.765 40.0593C112.795 40.2926 112.842 40.4913 112.881 40.6857C112.909 40.8445 112.945 41.0017 112.989 41.1565C113.02 41.2775 113.041 41.3769 113.063 41.4546C113.073 41.4913 113.079 41.529 113.08 41.5669Z" fill="white"/>
<path d="M121.698 36.4478C121.607 36.3644 121.536 36.2609 121.491 36.1454C121.372 35.8736 121.342 35.5713 121.405 35.2814C121.471 34.9853 121.634 34.7196 121.867 34.5254C121.955 34.4362 122.065 34.3721 122.187 34.3396C122.187 34.3396 122.07 34.4174 121.91 34.5686C121.698 34.7648 121.548 35.0185 121.478 35.2986C121.41 35.5857 121.429 35.8868 121.534 36.1626C121.625 36.3268 121.711 36.4391 121.698 36.4478Z" fill="white"/>
<path d="M124.321 33.4412C124.304 33.3166 124.314 33.1898 124.351 33.0697C124.39 32.8709 124.438 32.7111 124.464 32.7154C124.482 32.8397 124.473 32.9665 124.438 33.0869C124.416 33.2857 124.347 33.4455 124.321 33.4412Z" fill="white"/>
<path d="M126.421 28.879C126.324 28.8672 126.228 28.8455 126.136 28.8142C126.049 28.7883 125.937 28.758 125.807 28.7321C125.678 28.7062 125.535 28.6673 125.375 28.6457C125.215 28.6241 125.034 28.5852 124.84 28.5636C124.645 28.542 124.416 28.5118 124.213 28.5118C123.739 28.4879 123.264 28.498 122.792 28.542C122.318 28.5915 121.849 28.6752 121.388 28.7926C121.176 28.8531 120.977 28.9049 120.792 28.9697C120.606 29.0345 120.437 29.0907 120.282 29.1512C120.126 29.2116 119.992 29.2764 119.872 29.3283C119.766 29.3692 119.664 29.4168 119.565 29.4708C119.481 29.5186 119.393 29.5577 119.301 29.5875C119.379 29.5318 119.462 29.4827 119.548 29.4406C119.63 29.3931 119.729 29.3369 119.85 29.2808C119.971 29.2246 120.1 29.1555 120.26 29.095C120.42 29.0345 120.58 28.9611 120.77 28.9006C120.96 28.8401 121.155 28.7753 121.366 28.7148C121.831 28.592 122.305 28.5053 122.783 28.4556C123.26 28.413 123.739 28.4043 124.217 28.4297C124.438 28.4297 124.649 28.4643 124.844 28.4945C125.038 28.5248 125.22 28.555 125.384 28.5852C125.548 28.6155 125.691 28.6587 125.816 28.6889C125.941 28.7192 126.053 28.7537 126.144 28.784L126.421 28.879Z" fill="white"/>
<path d="M123.332 49.3126H123.111C122.913 49.3228 122.714 49.3228 122.515 49.3126C121.861 49.2704 121.213 49.1545 120.584 48.967C119.954 48.7767 119.348 48.5143 118.778 48.1851C118.558 48.0598 118.39 47.9518 118.273 47.8698C118.212 47.8289 118.155 47.7841 118.1 47.7358C118.17 47.7601 118.235 47.7951 118.294 47.8395C118.411 47.913 118.588 48.0123 118.809 48.1333C119.381 48.4411 119.983 48.6914 120.606 48.8806C121.23 49.0668 121.871 49.1899 122.519 49.2478C122.77 49.2738 122.973 49.2824 123.111 49.2867C123.186 49.2863 123.26 49.295 123.332 49.3126Z" fill="white"/>
<path d="M126.8 100.921C127.185 102.31 127.15 103.781 126.698 105.15C126.247 106.519 125.399 107.723 124.264 108.61C123.128 109.497 121.754 110.028 120.317 110.135C118.88 110.242 117.443 109.92 116.189 109.21C114.934 108.5 113.918 107.435 113.27 106.148C112.621 104.861 112.368 103.41 112.543 101.98C112.719 100.549 113.315 99.203 114.255 98.1109C115.196 97.0189 116.439 96.2302 117.828 95.8447C118.75 95.5886 119.714 95.5168 120.664 95.6333C121.614 95.7498 122.532 96.0524 123.366 96.5238C124.199 96.9952 124.931 97.6261 125.52 98.3805C126.11 99.135 126.545 99.9981 126.8 100.921Z" fill="#4864A3"/>
<g opacity="0.1">
<path d="M117.828 95.8447C116.905 96.1004 116.042 96.5353 115.288 97.1246C114.533 97.714 113.902 98.4462 113.431 99.2794C112.96 100.113 112.657 101.031 112.541 101.981C112.424 102.931 112.496 103.895 112.752 104.817C112.752 104.817 117.75 103.668 118.368 101.361C118.986 99.0545 117.828 95.8447 117.828 95.8447Z" fill="white"/>
</g>
<path d="M124.973 101.31C125.266 102.366 125.238 103.485 124.895 104.526C124.551 105.567 123.906 106.483 123.042 107.158C122.178 107.832 121.134 108.235 120.04 108.316C118.947 108.397 117.855 108.152 116.901 107.612C115.947 107.072 115.174 106.261 114.681 105.282C114.188 104.303 113.996 103.2 114.13 102.112C114.264 101.024 114.718 100 115.434 99.1698C116.149 98.3395 117.095 97.7402 118.152 97.4475C118.853 97.2532 119.586 97.1989 120.308 97.2878C121.031 97.3768 121.729 97.6071 122.362 97.9657C122.996 98.3244 123.552 98.8043 124 99.378C124.448 99.9517 124.779 100.608 124.973 101.31Z" fill="#4864A3"/>
<g opacity="0.2">
<path d="M124.973 101.31C125.266 102.366 125.238 103.485 124.895 104.526C124.551 105.567 123.906 106.483 123.042 107.158C122.178 107.832 121.134 108.235 120.04 108.316C118.947 108.397 117.855 108.152 116.901 107.612C115.947 107.072 115.174 106.261 114.681 105.282C114.188 104.303 113.996 103.2 114.13 102.112C114.264 101.024 114.718 100 115.434 99.1698C116.149 98.3395 117.095 97.7402 118.152 97.4475C118.853 97.2532 119.586 97.1989 120.308 97.2878C121.031 97.3768 121.729 97.6071 122.362 97.9657C122.996 98.3244 123.552 98.8043 124 99.378C124.448 99.9517 124.779 100.608 124.973 101.31Z" fill="black"/>
</g>
<path d="M125.185 101.487C125.474 102.529 125.449 103.634 125.11 104.662C124.772 105.69 124.136 106.594 123.284 107.261C122.432 107.927 121.401 108.326 120.322 108.406C119.242 108.486 118.164 108.245 117.222 107.712C116.28 107.179 115.518 106.379 115.031 105.412C114.544 104.446 114.355 103.357 114.487 102.283C114.62 101.209 115.068 100.199 115.774 99.3794C116.481 98.5601 117.415 97.9689 118.458 97.6806C119.855 97.2946 121.348 97.4785 122.609 98.1921C123.87 98.9057 124.796 100.091 125.185 101.487Z" fill="#4864A3"/>
<g opacity="0.2">
<path d="M125.185 101.487C125.474 102.529 125.449 103.634 125.11 104.662C124.772 105.69 124.136 106.594 123.284 107.261C122.432 107.927 121.401 108.326 120.322 108.406C119.242 108.486 118.164 108.245 117.222 107.712C116.28 107.179 115.518 106.379 115.031 105.412C114.544 104.446 114.355 103.357 114.487 102.283C114.62 101.209 115.068 100.199 115.774 99.3794C116.481 98.5601 117.415 97.9689 118.458 97.6806C119.855 97.2946 121.348 97.4785 122.609 98.1921C123.87 98.9057 124.796 100.091 125.185 101.487Z" fill="white"/>
</g>
<path d="M120.001 102.433L119.625 101.085C119.88 101.05 120.139 101.05 120.394 101.085C120.529 101.112 120.66 101.153 120.787 101.206V101.158L120.861 100.614V100.489L120.554 100.303L120.45 100.389C120.103 100.316 119.744 100.316 119.396 100.389L119.193 99.6507L118.908 99.5254L118.96 99.7111L118.644 99.8019L118.852 100.554C117.841 100.942 117.508 101.677 117.698 102.355C117.958 103.284 118.817 103.305 119.608 103.279L119.979 104.614C119.484 104.71 118.971 104.662 118.502 104.476L118.39 105.236C118.962 105.449 119.586 105.484 120.178 105.336L120.334 105.897L120.074 105.971L120.385 106.079L120.93 105.923L120.722 105.176C121.742 104.779 122.079 104.053 121.893 103.375C121.664 102.42 120.792 102.407 120.001 102.433ZM119.413 102.433C118.981 102.433 118.666 102.359 118.58 102.04C118.493 101.72 118.632 101.448 119.085 101.245L119.413 102.433ZM120.554 104.411L120.226 103.249C120.658 103.249 120.995 103.327 121.09 103.651C121.185 103.975 121.02 104.217 120.554 104.424V104.411Z" fill="#4864A3"/>
<g opacity="0.3">
<path d="M120.001 102.433L119.625 101.085C119.88 101.05 120.139 101.05 120.394 101.085C120.529 101.112 120.66 101.153 120.787 101.206V101.158L120.861 100.614V100.489L120.554 100.303L120.45 100.389C120.103 100.316 119.744 100.316 119.396 100.389L119.193 99.6507L118.908 99.5254L118.96 99.7111L118.644 99.8019L118.852 100.554C117.841 100.942 117.508 101.677 117.698 102.355C117.958 103.284 118.817 103.305 119.608 103.279L119.979 104.614C119.484 104.71 118.971 104.662 118.502 104.476L118.39 105.236C118.962 105.449 119.586 105.484 120.178 105.336L120.334 105.897L120.074 105.971L120.385 106.079L120.93 105.923L120.722 105.176C121.742 104.779 122.079 104.053 121.893 103.375C121.664 102.42 120.792 102.407 120.001 102.433ZM119.413 102.433C118.981 102.433 118.666 102.359 118.58 102.04C118.493 101.72 118.632 101.448 119.085 101.245L119.413 102.433ZM120.554 104.411L120.226 103.249C120.658 103.249 120.995 103.327 121.09 103.651C121.185 103.975 121.02 104.217 120.554 104.424V104.411Z" fill="black"/>
</g>
<path d="M120.476 105.034L120.683 105.781L120.139 105.932L119.931 105.189C119.339 105.337 118.715 105.303 118.143 105.09L118.255 104.334C118.725 104.516 119.237 104.562 119.733 104.468L119.361 103.133C118.571 103.159 117.707 103.133 117.452 102.208C117.262 101.53 117.59 100.796 118.605 100.407L118.398 99.6551L118.942 99.5039L119.149 100.243C119.634 100.131 120.139 100.141 120.618 100.273L120.532 101.025C120.146 100.924 119.743 100.903 119.348 100.964L119.724 102.312C120.515 102.29 121.387 102.312 121.646 103.228C121.824 103.906 121.495 104.632 120.476 105.034ZM119.136 102.325L118.808 101.137C118.376 101.34 118.221 101.638 118.303 101.932C118.385 102.226 118.717 102.321 119.136 102.325ZM120.808 103.522C120.718 103.198 120.376 103.124 119.944 103.12L120.273 104.303C120.744 104.113 120.886 103.811 120.808 103.522Z" fill="#5A74AC"/>
<path d="M114.709 107.82C114.709 107.82 114.709 107.82 114.661 107.777L114.531 107.638C114.461 107.567 114.395 107.492 114.333 107.414C114.264 107.323 114.173 107.224 114.091 107.103L113.957 106.917L113.823 106.705C113.728 106.563 113.641 106.399 113.546 106.23C113.152 105.484 112.893 104.673 112.782 103.837C112.76 103.642 112.734 103.461 112.73 103.288C112.73 103.202 112.73 103.12 112.73 103.042V102.817C112.723 102.686 112.723 102.555 112.73 102.424C112.73 102.307 112.73 102.208 112.756 102.126L112.782 101.94V101.875C112.782 101.875 112.782 101.875 112.782 101.94C112.782 102.005 112.782 102.053 112.782 102.13C112.776 102.228 112.776 102.326 112.782 102.424C112.782 102.541 112.782 102.675 112.782 102.817C112.782 102.891 112.782 102.968 112.782 103.046C112.782 103.124 112.782 103.21 112.782 103.297C112.782 103.465 112.816 103.647 112.838 103.837C112.901 104.251 112.995 104.659 113.119 105.059C113.249 105.455 113.409 105.841 113.598 106.213C113.693 106.386 113.775 106.545 113.87 106.692C113.914 106.761 113.957 106.835 114 106.9L114.13 107.09C114.212 107.211 114.298 107.31 114.367 107.405C114.436 107.5 114.501 107.574 114.553 107.634C114.605 107.695 114.644 107.742 114.678 107.777L114.709 107.82Z" fill="white"/>
<path d="M118.061 102.64C117.986 102.622 117.918 102.585 117.862 102.532C117.719 102.411 117.618 102.248 117.573 102.066C117.531 101.883 117.549 101.692 117.625 101.521C117.649 101.449 117.693 101.385 117.75 101.335C117.75 101.335 117.707 101.409 117.659 101.538C117.598 101.703 117.586 101.882 117.625 102.053C117.673 102.217 117.764 102.366 117.888 102.485C117.988 102.597 118.065 102.631 118.061 102.64Z" fill="white"/>
<path d="M118.687 100.268C118.645 100.202 118.615 100.129 118.6 100.052C118.572 99.981 118.56 99.9042 118.566 99.8276C118.609 99.8912 118.639 99.9634 118.652 100.039C118.681 100.112 118.693 100.19 118.687 100.268Z" fill="white"/>
<path d="M118.597 97.1753C118.541 97.1962 118.483 97.2107 118.424 97.2185L118.221 97.2617L117.953 97.3351L117.638 97.4345C117.521 97.4734 117.404 97.5252 117.279 97.577C117.011 97.6946 116.751 97.8303 116.502 97.9831C116.255 98.1395 116.02 98.3127 115.797 98.5015C115.698 98.5922 115.599 98.6743 115.517 98.7607C115.434 98.8471 115.352 98.9292 115.283 99.0027C115.214 99.0761 115.158 99.1495 115.106 99.21L114.977 99.3742C114.907 99.4649 114.864 99.5124 114.864 99.5124C114.89 99.4586 114.922 99.4079 114.959 99.3612C114.997 99.3029 115.037 99.2467 115.08 99.1927C115.132 99.1279 115.188 99.0545 115.257 98.9767C115.326 98.899 115.4 98.8169 115.486 98.7305C115.573 98.6441 115.663 98.5577 115.763 98.4627C115.987 98.2699 116.226 98.0938 116.476 97.9356C116.728 97.7818 116.99 97.6461 117.262 97.5295C117.387 97.4777 117.508 97.4302 117.62 97.3956C117.727 97.357 117.835 97.3239 117.944 97.2963C118.044 97.266 118.134 97.2531 118.212 97.2358C118.281 97.2189 118.35 97.2059 118.42 97.1969L118.597 97.1753Z" fill="white"/>
<path d="M122.476 109.297L122.363 109.366C122.285 109.405 122.173 109.462 122.031 109.522C121.657 109.679 121.268 109.792 120.869 109.859C120.469 109.926 120.063 109.948 119.659 109.924L119.296 109.885L119.162 109.859C119.206 109.852 119.252 109.852 119.296 109.859C119.382 109.859 119.508 109.859 119.663 109.859C120.064 109.874 120.465 109.848 120.86 109.781C121.254 109.712 121.64 109.605 122.013 109.462C122.16 109.405 122.273 109.354 122.35 109.319C122.391 109.307 122.433 109.3 122.476 109.297Z" fill="white"/>
<path d="M193.29 90.8801C193.549 91.8225 193.522 92.8204 193.214 93.7478C192.906 94.6752 192.329 95.4903 191.558 96.0902C190.786 96.69 189.854 97.0477 188.879 97.118C187.905 97.1882 186.931 96.9679 186.081 96.4848C185.232 96.0018 184.545 95.2777 184.106 94.4041C183.668 93.5306 183.499 92.5467 183.62 91.577C183.741 90.6072 184.147 89.6951 184.786 88.9559C185.425 88.2167 186.269 87.6836 187.212 87.4241C187.838 87.2516 188.491 87.2042 189.136 87.2846C189.78 87.365 190.402 87.5715 190.967 87.8925C191.531 88.2134 192.027 88.6425 192.426 89.1551C192.824 89.6677 193.118 90.2539 193.29 90.8801Z" fill="#4864A3"/>
<g opacity="0.1">
<path d="M187.212 87.4368C186.585 87.6087 185.999 87.9025 185.486 88.3014C184.973 88.7002 184.543 89.1964 184.222 89.7613C183.901 90.3263 183.695 90.949 183.615 91.5939C183.535 92.2387 183.583 92.893 183.756 93.5193C183.756 93.5193 187.143 92.7417 187.575 91.1692C188.007 89.5968 187.212 87.4368 187.212 87.4368Z" fill="white"/>
</g>
<path d="M192.055 91.1522C192.254 91.8685 192.237 92.628 192.005 93.3345C191.772 94.041 191.336 94.6627 190.75 95.1209C190.165 95.5792 189.456 95.8534 188.715 95.9089C187.973 95.9644 187.232 95.7986 186.584 95.4326C185.937 95.0666 185.413 94.5168 185.078 93.8527C184.743 93.1887 184.613 92.4403 184.704 91.7022C184.795 90.9641 185.102 90.2695 185.588 89.7064C186.074 89.1432 186.716 88.7368 187.432 88.5386C188.392 88.2744 189.417 88.4011 190.283 88.8909C191.149 89.3807 191.786 90.1938 192.055 91.1522Z" fill="#4864A3"/>
<g opacity="0.2">
<path d="M192.055 91.1522C192.254 91.8685 192.237 92.628 192.005 93.3345C191.772 94.041 191.336 94.6627 190.75 95.1209C190.165 95.5792 189.456 95.8534 188.715 95.9089C187.973 95.9644 187.232 95.7986 186.584 95.4326C185.937 95.0666 185.413 94.5168 185.078 93.8527C184.743 93.1887 184.613 92.4403 184.704 91.7022C184.795 90.9641 185.102 90.2695 185.588 89.7064C186.074 89.1432 186.716 88.7368 187.432 88.5386C188.392 88.2744 189.417 88.4011 190.283 88.8909C191.149 89.3807 191.786 90.1938 192.055 91.1522Z" fill="black"/>
</g>
<path d="M189.755 95.7866C191.705 95.1622 192.779 93.0756 192.154 91.1261C191.53 89.1766 189.443 88.1024 187.494 88.7268C185.544 89.3512 184.47 91.4378 185.094 93.3873C185.719 95.3369 187.805 96.4111 189.755 95.7866Z" fill="#4864A3"/>
<g opacity="0.2">
<path d="M189.755 95.7866C191.705 95.1622 192.779 93.0756 192.154 91.1261C191.53 89.1766 189.443 88.1024 187.494 88.7268C185.544 89.3512 184.47 91.4378 185.094 93.3873C185.719 95.3369 187.805 96.4111 189.755 95.7866Z" fill="white"/>
</g>
<path d="M188.684 91.9035L188.429 90.992C188.601 90.9682 188.776 90.9682 188.948 90.992C189.039 91.0095 189.129 91.0355 189.216 91.0698V91.0395L189.267 90.6723V90.5859L189.06 90.4606L188.991 90.5168C188.754 90.4692 188.511 90.4692 188.274 90.5168L188.136 90.0157L187.946 89.9336L187.98 90.0589L187.764 90.1194L187.907 90.6291C187.22 90.8926 186.995 91.3894 187.125 91.8517C187.298 92.4824 187.885 92.4954 188.421 92.4781L188.671 93.381C188.335 93.4451 187.988 93.4137 187.669 93.2902L187.591 93.8043C187.98 93.9484 188.403 93.9725 188.805 93.8734L188.913 94.2493L188.736 94.3011L188.943 94.3746L189.315 94.2709L189.216 93.7438C189.907 93.4717 190.136 92.9792 190.006 92.517C189.812 91.8949 189.216 91.8862 188.684 91.9035ZM188.287 91.9035C188.002 91.9035 187.777 91.8517 187.717 91.6357C187.656 91.4197 187.755 91.2382 188.062 91.1L188.287 91.9035ZM189.056 93.2427L188.835 92.4435C189.125 92.4435 189.354 92.4954 189.419 92.7157C189.483 92.936 189.371 93.1131 189.056 93.2514V93.2427Z" fill="#4864A3"/>
<g opacity="0.3">
<path d="M188.684 91.9035L188.429 90.992C188.601 90.9682 188.776 90.9682 188.948 90.992C189.039 91.0095 189.129 91.0355 189.216 91.0698V91.0395L189.267 90.6723V90.5859L189.06 90.4606L188.991 90.5168C188.754 90.4692 188.511 90.4692 188.274 90.5168L188.136 90.0157L187.946 89.9336L187.98 90.0589L187.764 90.1194L187.907 90.6291C187.22 90.8926 186.995 91.3894 187.125 91.8517C187.298 92.4824 187.885 92.4954 188.421 92.4781L188.671 93.381C188.335 93.4451 187.988 93.4137 187.669 93.2902L187.591 93.8043C187.98 93.9484 188.403 93.9725 188.805 93.8734L188.913 94.2493L188.736 94.3011L188.943 94.3746L189.315 94.2709L189.216 93.7438C189.907 93.4717 190.136 92.9792 190.006 92.517C189.812 91.8949 189.216 91.8862 188.684 91.9035ZM188.287 91.9035C188.002 91.9035 187.777 91.8517 187.717 91.6357C187.656 91.4197 187.755 91.2382 188.062 91.1L188.287 91.9035ZM189.056 93.2427L188.835 92.4435C189.125 92.4435 189.354 92.4954 189.419 92.7157C189.483 92.936 189.371 93.1131 189.056 93.2514V93.2427Z" fill="black"/>
</g>
<path d="M189.004 93.6663L189.147 94.1717L188.775 94.2754L188.637 93.7743C188.235 93.8736 187.812 93.8495 187.423 93.7051L187.501 93.1911C187.818 93.3165 188.164 93.348 188.499 93.2818L188.248 92.3789C187.713 92.3789 187.129 92.3789 186.952 91.7525C186.827 91.2903 187.047 90.7935 187.739 90.5299L187.596 90.0202L187.967 89.9165L188.106 90.4176C188.432 90.3348 188.773 90.3348 189.099 90.4176L189.043 90.9274C188.781 90.8571 188.507 90.8439 188.24 90.8885L188.495 91.8C189.03 91.8 189.622 91.8 189.791 92.4178C189.924 92.9016 189.695 93.3941 189.004 93.6663ZM188.097 91.8303L187.872 91.0267C187.566 91.165 187.475 91.3637 187.531 91.5624C187.587 91.7611 187.812 91.8259 188.097 91.8303ZM189.229 92.6424C189.168 92.4221 188.939 92.3703 188.646 92.3703L188.87 93.1738C189.186 93.0312 189.285 92.8368 189.216 92.6424H189.229Z" fill="#5A74AC"/>
<path d="M185.094 95.5597L185.06 95.5295L184.973 95.4344C184.934 95.3955 184.891 95.3437 184.839 95.2832C184.787 95.2227 184.731 95.1536 184.675 95.0715C184.619 94.9895 184.619 94.9895 184.584 94.9419L184.494 94.7994C184.429 94.7043 184.373 94.592 184.308 94.4797C184.176 94.2255 184.065 93.9611 183.975 93.6891C183.889 93.4171 183.827 93.1381 183.789 92.8554C183.789 92.7258 183.755 92.6005 183.751 92.4839C183.746 92.3672 183.751 92.3715 183.751 92.3154V92.1599C183.746 92.0706 183.746 91.9812 183.751 91.892C183.754 91.8254 183.761 91.7591 183.772 91.6933V91.5637C183.772 91.5378 183.772 91.5205 183.772 91.5205C183.773 91.5363 183.773 91.5522 183.772 91.568V91.6933C183.772 91.7495 183.772 91.8143 183.772 91.892C183.768 91.9813 183.768 92.0706 183.772 92.1599V92.3154C183.772 92.3715 183.772 92.4277 183.772 92.4839C183.772 92.54 183.794 92.7215 183.807 92.8511C183.851 93.1316 183.914 93.4088 183.997 93.6805C184.088 93.9486 184.197 94.2099 184.325 94.4624C184.386 94.5805 184.446 94.6885 184.507 94.7864L184.597 94.929L184.684 95.0543C184.74 95.1363 184.796 95.2055 184.844 95.2703L184.973 95.4258L185.055 95.5208L185.094 95.5597Z" fill="white"/>
<path d="M187.366 92.0472C187.317 92.0311 187.271 92.0046 187.232 91.9695C187.136 91.8896 187.067 91.7804 187.038 91.6584C187.008 91.5345 187.019 91.4044 187.068 91.2869C187.088 91.2396 187.117 91.197 187.155 91.1616C187.132 91.2052 187.112 91.2499 187.094 91.2955C187.062 91.4115 187.062 91.5339 187.094 91.6498C187.126 91.7644 187.187 91.8686 187.271 91.9522C187.319 92.017 187.371 92.0429 187.366 92.0472Z" fill="white"/>
<path d="M187.794 90.4358C187.794 90.4358 187.756 90.3753 187.734 90.2932C187.716 90.2434 187.707 90.1907 187.708 90.1377C187.708 90.1377 187.747 90.1982 187.769 90.2803C187.787 90.3301 187.795 90.3828 187.794 90.4358Z" fill="white"/>
<path d="M187.731 88.3396L187.614 88.3698L187.476 88.4001L187.294 88.4476C187.222 88.4661 187.152 88.4891 187.083 88.5167C187.005 88.5426 186.923 88.5772 186.841 88.6118C186.659 88.6905 186.483 88.7814 186.314 88.8839C186.146 88.9915 185.986 89.1099 185.834 89.2382C185.768 89.2939 185.704 89.353 185.644 89.4153C185.589 89.4666 185.537 89.5215 185.489 89.5794C185.441 89.627 185.402 89.6788 185.363 89.722L185.277 89.83C185.253 89.8636 185.227 89.8953 185.199 89.925L185.264 89.8214L185.35 89.709C185.385 89.6658 185.42 89.614 185.467 89.5622C185.515 89.5103 185.562 89.4498 185.623 89.3937C185.683 89.3375 185.744 89.277 185.813 89.2122C185.963 89.0811 186.124 88.9613 186.292 88.8537C186.462 88.749 186.64 88.6566 186.824 88.5772L187.07 88.4865L187.29 88.4217L187.472 88.3785L187.614 88.3526L187.731 88.3396Z" fill="white"/>
<path d="M190.361 96.5532C190.338 96.5735 190.311 96.5896 190.283 96.6007C190.231 96.631 190.153 96.6655 190.058 96.7087C189.551 96.9224 189.001 97.0155 188.451 96.9809L188.205 96.955L188.114 96.9334H188.205C188.265 96.9334 188.348 96.9334 188.451 96.9334C188.723 96.9394 188.995 96.9206 189.263 96.8772C189.532 96.8332 189.796 96.7608 190.05 96.6612L190.279 96.5662L190.361 96.5532Z" fill="white"/>
<path d="M171.854 145.96H143.402V207.222H171.854V145.96Z" fill="#4864A3"/>
<g opacity="0.3">
<path d="M171.854 145.96H163.032V207.222H171.854V145.96Z" fill="black"/>
</g>
<path d="M163.032 207.222C162.967 207.222 162.911 193.661 162.911 176.939C162.911 160.216 162.967 146.651 163.032 146.651C163.097 146.651 163.153 160.212 163.153 176.939C163.153 193.666 163.101 207.222 163.032 207.222Z" fill="#263238"/>
<path d="M137.13 124.364H108.678V207.222H137.13V124.364Z" fill="#4864A3"/>
<g opacity="0.3">
<path d="M137.134 124.364H128.312V207.222H137.134V124.364Z" fill="black"/>
</g>
<path d="M128.304 207.222C128.235 207.222 128.183 188.883 128.183 166.264C128.183 143.644 128.244 125.28 128.304 125.28C128.365 125.28 128.425 143.618 128.425 166.247C128.425 188.875 128.378 207.222 128.304 207.222Z" fill="#263238"/>
<path d="M206.958 163.797H178.507V207.226H206.958V163.797Z" fill="#4864A3"/>
<g opacity="0.3">
<path d="M206.958 163.797H198.137V207.226H206.958V163.797Z" fill="black"/>
</g>
<path d="M198.137 207.222C198.067 207.222 198.016 197.61 198.016 185.756C198.016 173.902 198.067 164.285 198.137 164.285C198.206 164.285 198.258 173.897 198.258 185.756C198.258 197.614 198.201 207.222 198.137 207.222Z" fill="#263238"/>
<path d="M241.297 183.527H212.846V207.222H241.297V183.527Z" fill="#4864A3"/>
<g opacity="0.3">
<path d="M241.302 183.527H232.48V207.222H241.302V183.527Z" fill="black"/>
</g>
<path d="M232.48 207.222C232.411 207.222 232.359 201.977 232.359 195.51C232.359 189.043 232.411 183.794 232.48 183.794C232.549 183.794 232.601 189.039 232.601 195.51C232.601 201.982 232.545 207.222 232.48 207.222Z" fill="#263238"/>
<path d="M276.022 191.726H247.57V207.222H276.022V191.726Z" fill="#4864A3"/>
<g opacity="0.3">
<path d="M276.023 191.726H267.201V207.222H276.023V191.726Z" fill="black"/>
</g>
<path d="M267.2 207.222C267.135 207.222 267.079 203.792 267.079 199.562C267.079 195.333 267.135 191.899 267.2 191.899C267.265 191.899 267.321 195.329 267.321 199.562C267.321 203.796 267.269 207.222 267.2 207.222Z" fill="#263238"/>
<path d="M102.41 97.1223H73.958V207.205H102.41V97.1223Z" fill="#4864A3"/>
<g opacity="0.3">
<path d="M102.41 97.1223H93.5884V207.205H102.41V97.1223Z" fill="black"/>
</g>
<path d="M93.5882 207.654C93.5234 207.654 93.4673 183.19 93.4673 153.014C93.4673 122.839 93.5234 98.3665 93.5882 98.3665C93.653 98.3665 93.7092 122.831 93.7092 153.014C93.7092 183.198 93.653 207.654 93.5882 207.654Z" fill="#263238"/>
<path d="M67.6854 74.7793H39.2339V207.654H67.6854V74.7793Z" fill="#4864A3"/>
<g opacity="0.3">
<path d="M67.6857 74.7793H58.8643V207.654H67.6857V74.7793Z" fill="black"/>
</g>
<path d="M58.8646 207.654C58.7998 207.654 58.7437 178.243 58.7437 141.99C58.7437 105.736 58.7998 76.2998 58.8646 76.2998C58.9294 76.2998 58.9856 105.702 58.9856 141.99C58.9856 178.278 58.9337 207.654 58.8646 207.654Z" fill="#263238"/>
<path d="M61.8129 62.9889C70.083 57.3896 72.2481 46.1464 66.6488 37.8763C61.0496 29.6063 49.8063 27.4411 41.5363 33.0404C33.2662 38.6396 31.1011 49.8829 36.7003 58.153C42.2996 66.423 53.5429 68.5881 61.8129 62.9889Z" fill="#4864A3"/>
<path opacity="0.3" d="M61.8129 62.9889C70.083 57.3896 72.2481 46.1464 66.6488 37.8763C61.0496 29.6063 49.8063 27.4411 41.5363 33.0404C33.2662 38.6396 31.1011 49.8829 36.7003 58.153C42.2996 66.423 53.5429 68.5881 61.8129 62.9889Z" fill="black"/>
<path d="M61.8129 60.9952C70.083 55.396 72.2481 44.1527 66.6488 35.8827C61.0496 27.6126 49.8063 25.4475 41.5363 31.0467C33.2662 36.646 31.1011 47.8893 36.7003 56.1593C42.2996 64.4294 53.5429 66.5945 61.8129 60.9952Z" fill="#4864A3"/>
<path d="M51.6758 58.1343C58.3658 58.1343 63.7891 52.711 63.7891 46.021C63.7891 39.331 58.3658 33.9077 51.6758 33.9077C44.9858 33.9077 39.5625 39.331 39.5625 46.021C39.5625 52.711 44.9858 58.1343 51.6758 58.1343Z" fill="white"/>
<path d="M55.8676 50.2094C58.1822 47.8947 58.1822 44.1419 55.8676 41.8273C53.5529 39.5126 49.8001 39.5126 47.4855 41.8273C45.1708 44.1419 45.1708 47.8947 47.4855 50.2094C49.8001 52.524 53.5529 52.524 55.8676 50.2094Z" fill="#4864A3"/>
<path d="M66.2127 30.7066L65.7202 26.8489L69.6514 22.6455L69.9322 26.81L66.2127 30.7066Z" fill="#455A64"/>
<path d="M74.6407 27.6394L70.6577 27.3154L66.666 31.1559L70.6577 31.5836L74.6407 27.6394Z" fill="#455A64"/>
<path opacity="0.3" d="M52.4663 45.9347L66.2903 35.3766C65.7712 34.6278 65.1934 33.9214 64.5623 33.2642L52.4663 44.993V45.9347Z" fill="black"/>
<path d="M70.2911 25.7773L63.9363 32.2055L53.8751 42.4007L51.5595 44.7465C50.8251 45.4895 51.9915 46.6343 52.7043 45.8913L59.0504 39.4631L69.1203 29.2679L71.4359 26.9221C72.1659 26.1791 71.0039 25.0343 70.2867 25.7773H70.2911Z" fill="#263238"/>
<path d="M51.6758 23.3281C51.611 23.3281 51.5635 19.8721 51.5635 15.5996C51.5635 11.3271 51.611 7.87109 51.6758 7.87109C51.7406 7.87109 51.7881 11.3271 51.7881 15.5996C51.7881 19.8721 51.7363 23.3281 51.6758 23.3281Z" fill="#263238"/>
<path d="M63.3524 15.2625C63.3999 15.3014 62.1644 17.038 60.5919 19.1505C59.0194 21.263 57.7018 22.9305 57.65 22.8916C57.5982 22.8527 58.838 21.1204 60.4105 19.0036C61.983 16.8868 63.3006 15.2279 63.3524 15.2625Z" fill="#263238"/>
<path d="M39.8565 14.9083C39.9126 14.8781 40.984 16.7184 42.2541 19.0166C43.5241 21.3149 44.5048 23.207 44.4529 23.2373C44.4011 23.2675 43.3254 21.4272 42.0553 19.1246C40.7853 16.8221 39.8046 14.9386 39.8565 14.9083Z" fill="#263238"/>
<path d="M232.874 62.2988L236.33 61.8971C238.273 63.8723 240.885 65.0492 243.652 65.1964C246.419 65.3436 249.141 64.4504 251.283 62.6924C253.424 60.9345 254.831 58.4389 255.226 55.6964C255.621 52.9539 254.976 50.1628 253.418 47.8718C251.859 45.5808 249.5 43.9556 246.804 43.3158C244.108 42.676 241.27 43.0678 238.849 44.4143C236.427 45.7607 234.596 47.9643 233.717 50.5919C232.838 53.2195 232.973 56.081 234.097 58.6139L232.874 62.2988Z" fill="white"/>
<path d="M232.874 62.2989C232.874 62.2989 232.874 62.2254 232.939 62.0699L233.159 61.3658C233.358 60.7264 233.652 59.7976 234.023 58.5923L234.049 58.5059L234.11 58.575L234.027 58.6269C233.261 56.9266 232.935 55.0604 233.081 53.201C233.177 52.0093 233.469 50.8415 233.945 49.745C234.904 47.4913 236.577 45.6154 238.707 44.4064C240.836 43.1973 243.305 42.7222 245.731 43.0543C248.158 43.3863 250.407 44.5071 252.134 46.2438C253.861 47.9806 254.968 50.237 255.286 52.6653C255.503 54.3907 255.325 56.1428 254.763 57.7888C254.226 59.3326 253.355 60.7386 252.21 61.9058C251.152 62.9832 249.889 63.8381 248.495 64.42C246.102 65.4122 243.439 65.542 240.961 64.7872C239.194 64.2404 237.593 63.2586 236.304 61.9317H236.343L233.751 62.2039L233.094 62.2687C233.024 62.2722 232.953 62.2722 232.883 62.2687L233.112 62.2341L233.777 62.1477L236.326 61.8194H236.347C237.38 62.8538 238.609 63.6726 239.961 64.2282C241.313 64.7838 242.762 65.0652 244.224 65.056C245.686 65.0467 247.131 64.747 248.476 64.1744C249.821 63.6017 251.039 62.7674 252.059 61.72C253.18 60.5717 254.033 59.1893 254.556 57.6722C255.098 56.0757 255.274 54.3778 255.07 52.7042C254.728 50.1084 253.468 47.7207 251.519 45.9723C249.57 44.2238 247.061 43.2299 244.443 43.1699C242.929 43.1384 241.424 43.4199 240.024 43.9968C238.623 44.5736 237.357 45.4334 236.304 46.5222C235.38 47.4766 234.639 48.5923 234.118 49.8141C233.644 50.8932 233.352 52.0435 233.254 53.2183C233.099 55.0557 233.405 56.9028 234.144 58.5923L234.291 58.925L234.062 58.6442H234.148L233.224 61.3658C233.116 61.6725 233.038 61.9058 232.978 62.0743L232.874 62.2989Z" fill="#263238"/>
<path d="M238.758 54.5403L240.123 53.0801L242.931 55.4086L248.102 50.082L249.458 51.4515L242.819 58.1388L238.758 54.5403Z" fill="#4864A3"/>
<path d="M183.63 69.9148C182.999 69.2255 182.296 68.6043 181.535 68.0616C181.138 67.8452 180.714 67.6839 180.274 67.582C180.274 67.582 173.85 65.8108 172.498 65.6899C171.145 65.5689 171.284 66.6748 172.536 66.8822C173.789 67.0896 176.459 68.1782 176.459 68.1782C176.302 68.2091 176.159 68.2911 176.053 68.4113C175.946 68.5316 175.883 68.6834 175.872 68.8435C175.841 68.988 175.863 69.1386 175.933 69.2684C176.004 69.3982 176.118 69.4987 176.256 69.552C176.078 69.773 175.957 70.0339 175.902 70.3123C175.946 70.5835 176.052 70.8408 176.213 71.064C176.213 71.064 175.746 71.4441 175.893 71.8718C176.096 72.2518 176.365 72.5926 176.688 72.8784C176.688 72.8784 179.436 74.6064 180.027 74.6625C180.619 74.7187 181.323 74.8396 181.323 74.8396L182.291 75.5395L184.883 71.4744C184.508 70.9219 184.089 70.4003 183.63 69.9148Z" fill="#FFBF9D"/>
<path d="M176.459 68.1438C176.638 68.2154 176.825 68.2661 177.016 68.295C177.203 68.342 177.394 68.3681 177.586 68.3728C177.41 68.2984 177.224 68.2476 177.034 68.2216C176.846 68.1717 176.653 68.1455 176.459 68.1438Z" fill="#FF9A6C"/>
<path d="M176.191 69.5176C176.365 69.595 176.546 69.6544 176.731 69.6947C176.91 69.7607 177.093 69.8113 177.28 69.8459C177.119 69.7449 176.943 69.6718 176.757 69.6299C176.575 69.5645 176.385 69.5267 176.191 69.5176Z" fill="#FF9A6C"/>
<path d="M176.036 70.822C176.225 70.9188 176.419 71.0026 176.619 71.0726C176.809 71.1646 177.006 71.2426 177.207 71.3059C177.04 71.1773 176.853 71.0766 176.654 71.0078C176.458 70.9159 176.25 70.8534 176.036 70.822Z" fill="#FF9A6C"/>
<path d="M231.284 133.237C231.284 133.237 230.139 122.748 227.685 121.573C225.231 120.398 221.819 119.642 220.89 121.215C219.742 123.204 218.975 125.39 218.626 127.66C218.255 130.17 218.466 134.006 218.466 134.006L221.266 133.695C221.266 133.695 221.127 123.237 221.978 121.694C222.83 120.152 227.141 121.388 227.594 123.25C228.048 125.111 229.119 133.488 229.119 133.488L231.284 133.237Z" fill="#455A64"/>
<path d="M241.056 148.034C240.926 143.714 240.512 134.162 240.326 129.967C240.303 129.413 240.065 128.889 239.661 128.508C239.257 128.127 238.721 127.919 238.166 127.928L212.427 128.084C211.875 128.087 211.345 128.304 210.951 128.691C210.556 129.077 210.326 129.601 210.31 130.153L209.805 147.926C209.8 148.209 209.852 148.491 209.956 148.755C210.06 149.019 210.216 149.259 210.413 149.463C210.61 149.667 210.846 149.83 211.106 149.943C211.367 150.055 211.647 150.116 211.93 150.12L238.896 150.228C239.184 150.233 239.47 150.179 239.736 150.07C240.003 149.961 240.244 149.799 240.446 149.594C240.648 149.389 240.807 149.145 240.911 148.876C241.016 148.608 241.065 148.321 241.056 148.034Z" fill="#455A64"/>
<path d="M212.112 134.602C212.112 134.602 212.112 134.667 212.112 134.792V135.367C212.112 135.881 212.112 136.628 212.112 137.587C212.112 139.531 212.143 142.339 212.164 145.795C212.164 146.016 212.164 146.227 212.164 146.456C212.148 146.694 212.201 146.931 212.315 147.139C212.435 147.352 212.62 147.522 212.842 147.623C213.069 147.715 213.315 147.752 213.56 147.731H216.506H222.986H230.157H233.954H236.382C236.554 147.74 236.726 147.729 236.896 147.701C237.07 147.659 237.233 147.579 237.372 147.466C237.511 147.353 237.623 147.21 237.7 147.048C237.763 146.913 237.8 146.766 237.808 146.616C237.808 146.461 237.808 146.327 237.808 146.184C237.808 145.904 237.808 145.623 237.808 145.342C237.808 144.78 237.786 144.223 237.773 143.67C237.747 142.564 237.724 141.473 237.704 140.395C237.656 138.235 237.609 136.166 237.566 134.179V134.084H237.471C230.075 134.538 223.733 134.659 219.245 134.68C216.998 134.68 215.218 134.68 213.996 134.68H212.592H212.112H212.238H212.605L213.992 134.719C215.214 134.749 216.994 134.78 219.24 134.784C223.733 134.784 230.079 134.697 237.479 134.257L237.38 134.17C237.423 136.158 237.466 138.236 237.51 140.387C237.53 141.461 237.551 142.553 237.574 143.661C237.574 144.214 237.587 144.772 237.613 145.333C237.613 145.614 237.613 145.895 237.613 146.176C237.65 146.442 237.62 146.714 237.527 146.966C237.462 147.102 237.368 147.222 237.25 147.317C237.133 147.411 236.996 147.477 236.849 147.511C236.695 147.539 236.538 147.549 236.382 147.541H235.894H233.954H230.157L222.981 147.567L216.501 147.597H213.56C213.337 147.622 213.111 147.593 212.903 147.511C212.706 147.419 212.543 147.268 212.436 147.079C212.335 146.892 212.289 146.681 212.302 146.469C212.302 146.249 212.302 146.037 212.302 145.817C212.251 142.361 212.207 139.579 212.181 137.644C212.181 136.676 212.147 135.916 212.138 135.406V134.823C212.112 134.676 212.112 134.602 212.112 134.602Z" fill="#263238"/>
<path d="M219.495 146.016C219.495 146.016 219.335 146.016 219.063 145.951C218.64 145.857 218.253 145.644 217.948 145.338C217.714 145.09 217.536 144.795 217.428 144.472C217.32 144.148 217.284 143.806 217.322 143.467C217.322 142.655 217.322 141.739 217.322 140.724C217.322 140.214 217.322 139.683 217.322 139.125C217.273 138.563 217.437 138.002 217.78 137.553C217.965 137.319 218.196 137.127 218.459 136.987C218.722 136.847 219.012 136.763 219.309 136.741C219.935 136.741 220.605 136.741 221.266 136.719L230.009 136.65C230.565 136.639 231.102 136.847 231.506 137.228C231.91 137.61 232.148 138.134 232.169 138.689C232.169 139.061 232.169 139.428 232.169 139.791C232.169 140.525 232.169 141.242 232.169 141.951C232.169 142.301 232.169 142.651 232.169 142.992C232.189 143.327 232.189 143.663 232.169 143.998C232.105 144.463 231.889 144.893 231.556 145.222C231.222 145.552 230.79 145.762 230.325 145.821C230.031 145.852 229.716 145.821 229.422 145.847L226.1 145.891L221.283 145.964L219.987 145.994H219.646H219.529H219.646H219.987H221.283H226.096H229.418C229.72 145.994 230.014 145.994 230.338 145.973C230.662 145.933 230.974 145.825 231.254 145.657C231.546 145.481 231.796 145.242 231.984 144.957C232.172 144.673 232.295 144.349 232.342 144.011C232.369 143.668 232.376 143.323 232.364 142.979C232.364 142.633 232.364 142.288 232.364 141.933C232.364 141.229 232.364 140.512 232.364 139.773C232.364 139.406 232.364 139.039 232.364 138.663C232.341 138.061 232.084 137.491 231.648 137.075C231.211 136.66 230.629 136.431 230.027 136.438L221.287 136.525C220.613 136.525 219.965 136.525 219.317 136.555C218.999 136.577 218.688 136.665 218.405 136.814C218.123 136.962 217.874 137.169 217.676 137.419C217.313 137.899 217.142 138.496 217.196 139.095C217.196 139.648 217.196 140.18 217.218 140.689C217.218 141.706 217.231 142.62 217.257 143.432C217.257 143.631 217.257 143.826 217.278 144.02C217.304 144.203 217.348 144.382 217.412 144.556C217.53 144.856 217.71 145.128 217.939 145.355C218.228 145.677 218.605 145.907 219.024 146.016C219.18 146.037 219.338 146.037 219.495 146.016Z" fill="#263238"/>
<g opacity="0.3">
<path d="M237.013 147.563C229.331 149.879 221.14 149.899 213.447 147.619L237.013 147.563Z" fill="black"/>
</g>
<path d="M222.354 139.394L225.551 139.365C225.983 139.361 226.33 139.008 226.326 138.576L226.324 138.416C226.321 137.984 225.967 137.637 225.535 137.641L222.339 137.67C221.907 137.674 221.56 138.028 221.564 138.459L221.565 138.619C221.569 139.051 221.923 139.398 222.354 139.394Z" fill="#E0E0E0"/>
<path d="M222.562 117.219C222.121 117.603 221.726 118.038 221.387 118.515C221.084 119.05 220.549 121.366 220.549 121.366C220.549 121.366 220.981 121.75 221.745 120.532C222.131 119.952 222.462 119.337 222.735 118.696L222.562 117.219Z" fill="#FFBF9D"/>
<path d="M226.368 112.623L225.348 114.42L222.532 117.267L221.473 121.487C221.356 121.932 221.409 122.405 221.62 122.813C221.678 122.946 221.776 123.056 221.901 123.129C222.216 123.258 223.11 122.805 223.11 122.805C223.11 122.805 223.758 123.608 224.45 123.133C224.45 123.133 225.452 123.647 226.009 123.133C226.009 123.133 226.644 123.634 227.115 123.323C227.586 123.012 228.938 121.038 228.938 121.038L230.753 114.532L226.368 112.623Z" fill="#FFBF9D"/>
<path d="M232.983 77.0427C233.543 77.4506 234.003 77.9801 234.329 78.5913C234.655 79.2026 234.839 79.8798 234.866 80.5722C234.939 82.3434 236.27 94.3616 236.162 97.593C236.054 100.824 230.546 116.13 230.546 116.13L224.468 114.298L229.708 97.1998L229.19 86.456L232.983 77.0427Z" fill="#EBEBEB"/>
<path d="M222.321 50.6131C222.164 50.3051 221.916 50.053 221.61 49.8914C221.305 49.7297 220.957 49.6665 220.614 49.7103C220.217 49.3919 219.725 49.2149 219.215 49.2071C218.706 49.1992 218.209 49.3611 217.802 49.6671C217.504 49.4827 217.164 49.3762 216.813 49.3574C216.463 49.3385 216.114 49.4078 215.797 49.5591C215.486 49.7168 215.22 49.9508 215.023 50.2394C214.827 50.528 214.707 50.8617 214.674 51.2093C214.325 51.1489 213.966 51.1954 213.644 51.3426C213.322 51.4898 213.051 51.731 212.868 52.0344C212.701 52.3451 212.633 52.6997 212.673 53.0503C212.713 53.4009 212.86 53.7308 213.093 53.9957C212.709 54.1076 212.379 54.3581 212.168 54.6987C211.957 55.0393 211.88 55.4459 211.952 55.84C212.023 56.2341 212.238 56.5878 212.555 56.8328C212.872 57.0778 213.268 57.1967 213.668 57.1666L221.953 52.4967C222.203 52.2598 222.372 51.9511 222.438 51.6136C222.504 51.276 222.463 50.9263 222.321 50.6131Z" fill="#263238"/>
<path d="M212.613 66.1392C212.652 64.3594 213.045 60.696 213.425 57.3869C213.633 55.6647 214.481 54.0836 215.801 52.9576C217.121 51.8316 218.816 51.243 220.549 51.3087H220.908C224.77 51.6672 226.619 55.1146 226.152 58.9335L225.072 70.9776L217.603 77.7125L215.979 72.9605L216.238 70.537C216.238 70.537 212.544 69.8285 212.613 66.1392Z" fill="#FFBF9D"/>
<path d="M216.195 70.5241C217.92 70.5828 219.626 70.1498 221.115 69.2756C221.115 69.2756 219.88 71.8676 216.182 71.4356L216.195 70.5241Z" fill="#FF9A6C"/>
<path d="M214.389 60.5921C214.383 60.7298 214.431 60.8644 214.524 60.9669C214.616 61.0695 214.744 61.1319 214.882 61.1408C214.949 61.1486 215.017 61.1428 215.082 61.1239C215.147 61.105 215.208 61.0733 215.261 61.0307C215.313 60.988 215.357 60.9353 215.389 60.8756C215.421 60.8159 215.441 60.7503 215.448 60.6829C215.452 60.5455 215.404 60.4116 215.312 60.3092C215.22 60.2069 215.092 60.1442 214.955 60.1342C214.888 60.1264 214.82 60.1322 214.754 60.1511C214.689 60.17 214.629 60.2017 214.576 60.2443C214.523 60.287 214.48 60.3397 214.448 60.3994C214.415 60.4591 214.396 60.5247 214.389 60.5921Z" fill="#263238"/>
<path d="M214.16 59.2185C214.225 59.2876 214.635 59.0068 215.205 59.0284C215.775 59.05 216.186 59.3481 216.251 59.2789C216.315 59.2098 216.22 59.1234 216.043 58.9852C215.8 58.8099 215.51 58.7107 215.21 58.7001C214.912 58.6884 214.619 58.7716 214.371 58.9376C214.19 59.0629 214.13 59.1839 214.16 59.2185Z" fill="#263238"/>
<path d="M219.542 60.869C219.538 61.0071 219.587 61.1416 219.679 61.244C219.772 61.3464 219.901 61.4087 220.039 61.4176C220.171 61.4336 220.303 61.3973 220.408 61.3165C220.513 61.2357 220.582 61.1169 220.601 60.9856C220.608 60.8472 220.56 60.7116 220.468 60.6081C220.376 60.5046 220.247 60.4416 220.108 60.4326C219.976 60.4178 219.843 60.455 219.737 60.5364C219.631 60.6178 219.562 60.737 219.542 60.869Z" fill="#263238"/>
<path d="M219.772 59.5167C219.837 59.5901 220.247 59.3093 220.818 59.3309C221.388 59.3525 221.798 59.6463 221.863 59.5815C221.928 59.5167 221.833 59.426 221.656 59.2877C221.413 59.1093 221.123 59.0084 220.822 58.9983C220.525 58.9887 220.232 59.0717 219.984 59.2359C219.802 59.3655 219.742 59.4865 219.772 59.5167Z" fill="#263238"/>
<path d="M217.551 63.6466C217.251 63.5445 216.941 63.4778 216.626 63.4479C216.484 63.4479 216.346 63.3961 216.324 63.2967C216.315 63.1445 216.354 62.9932 216.436 62.8647L216.907 61.7761C217.338 60.8565 217.696 59.9046 217.978 58.9292C217.47 59.8101 217.037 60.732 216.682 61.6854C216.523 62.0655 216.376 62.4284 216.229 62.7783C216.134 62.9506 216.1 63.1503 216.134 63.3442C216.154 63.3957 216.186 63.4422 216.226 63.4802C216.266 63.5183 216.315 63.5471 216.367 63.5646C216.447 63.5888 216.53 63.6019 216.613 63.6034C216.923 63.6587 217.238 63.6732 217.551 63.6466Z" fill="#263238"/>
<path d="M219.219 64.0957C219.124 64.0957 219.102 64.7048 218.558 65.1239C218.014 65.5429 217.353 65.4479 217.344 65.5343C217.335 65.6207 217.487 65.6595 217.776 65.6768C218.139 65.6926 218.496 65.5828 218.787 65.3658C219.065 65.1561 219.249 64.8459 219.301 64.5018C219.323 64.2512 219.262 64.0957 219.219 64.0957Z" fill="#263238"/>
<path d="M219.703 57.2919C219.754 57.4474 220.325 57.3956 220.999 57.4992C221.673 57.6029 222.2 57.8016 222.295 57.6677C222.338 57.6029 222.247 57.456 222.035 57.2962C221.75 57.1014 221.423 56.9757 221.081 56.929C220.739 56.8758 220.39 56.904 220.061 57.0111C219.806 57.1018 219.681 57.2184 219.703 57.2919Z" fill="#263238"/>
<path d="M214.427 57.5854C214.523 57.7194 214.92 57.5854 215.395 57.5854C215.87 57.5854 216.259 57.7021 216.363 57.5854C216.406 57.5206 216.363 57.391 216.177 57.2614C215.946 57.1078 215.675 57.0259 215.397 57.0259C215.12 57.0259 214.849 57.1078 214.618 57.2614C214.445 57.391 214.384 57.5206 214.427 57.5854Z" fill="#263238"/>
<path d="M213.84 55.728C213.84 55.728 214.903 53.4514 216.044 52.9503C217.426 52.3455 217.957 53.8445 219.266 53.5335C220.575 53.2224 221.893 52.6349 223.18 53.676C224.593 54.8122 223.889 55.5509 223.919 57.1882C224.049 63.8324 225.215 65.7504 225.647 62.64C225.699 62.2988 226.667 62.0612 226.857 60.6183C227.107 58.7477 227.263 56.4754 226.887 55.1319C226.571 53.9957 225.954 53.2008 224.826 52.3066C223.046 50.894 220.541 50.7773 218.834 50.8896C217.128 51.002 213.789 52.812 213.84 55.728Z" fill="#263238"/>
<path d="M225.427 62.5147C225.436 62.3788 225.473 62.2462 225.536 62.125C225.598 62.0038 225.684 61.8966 225.789 61.8097C225.894 61.7229 226.016 61.6583 226.147 61.6198C226.277 61.5813 226.415 61.5698 226.55 61.5859C227.241 61.6767 228.001 62.0914 227.906 63.5127C227.734 66.0312 225.219 65.34 225.224 65.2709C225.228 65.2018 225.349 63.5645 225.427 62.5147Z" fill="#FFBF9D"/>
<path d="M225.837 64.368C225.837 64.368 225.88 64.4026 225.953 64.4414C226.055 64.4931 226.173 64.5024 226.282 64.4674C226.452 64.3765 226.595 64.2417 226.696 64.0769C226.797 63.912 226.853 63.7232 226.856 63.5299C226.877 63.3133 226.849 63.0949 226.774 62.8906C226.754 62.8103 226.716 62.736 226.662 62.6736C226.608 62.6112 226.54 62.5627 226.463 62.532C226.413 62.5153 226.359 62.5165 226.31 62.5354C226.261 62.5544 226.221 62.5898 226.195 62.6357C226.156 62.7048 226.169 62.7566 226.152 62.761C226.135 62.7653 226.1 62.7134 226.152 62.6098C226.171 62.5493 226.209 62.4964 226.26 62.4586C226.334 62.4114 226.424 62.3944 226.51 62.411C226.614 62.4398 226.708 62.4947 226.783 62.5704C226.859 62.646 226.914 62.7399 226.942 62.843C227.035 63.0669 227.071 63.3104 227.046 63.5515C227.045 63.7774 226.976 63.9977 226.848 64.1841C226.72 64.3704 226.539 64.5142 226.329 64.597C226.26 64.612 226.189 64.6116 226.12 64.5959C226.052 64.5803 225.987 64.5496 225.932 64.5062C225.837 64.4198 225.828 64.368 225.837 64.368Z" fill="#FF9A6C"/>
<path d="M225.551 57.6288C225.227 57.8617 224.85 58.0102 224.454 58.0608C224.256 58.0842 224.056 58.0355 223.891 57.9237C223.726 57.8118 223.607 57.6443 223.555 57.4517C223.555 57.2746 223.581 57.0758 223.469 56.9333C223.357 56.7907 223.08 56.808 222.864 56.8253C222.493 56.8412 222.128 56.7294 221.829 56.5085C221.53 56.2876 221.316 55.9709 221.223 55.6114C221.104 55.7329 220.945 55.8059 220.776 55.8163C220.606 55.8267 220.439 55.7736 220.307 55.6675C220.05 55.4475 219.825 55.1914 219.642 54.9072C219.545 54.7665 219.416 54.651 219.266 54.5706C219.116 54.4901 218.948 54.447 218.778 54.445C218.596 54.5007 218.409 54.5355 218.22 54.5486C217.888 54.5054 217.741 54.1166 217.702 53.784C217.663 53.4514 217.637 53.0669 217.361 52.8811C217.074 52.7558 216.753 52.7359 216.453 52.825C216.142 52.8595 215.749 52.7731 215.68 52.4707C215.67 52.3903 215.677 52.3088 215.699 52.2309C215.721 52.153 215.759 52.0803 215.81 52.0171C216.03 51.7203 216.343 51.5053 216.698 51.4059C217.054 51.3066 217.433 51.3286 217.775 51.4685C217.918 51.0522 218.179 50.6871 218.528 50.4188C218.877 50.1506 219.297 49.991 219.736 49.9601C220.175 49.9292 220.613 50.0284 220.996 50.2452C221.378 50.462 221.689 50.7868 221.888 51.179C222.171 50.9526 222.504 50.7956 222.858 50.7206C223.213 50.6456 223.581 50.6546 223.931 50.747C224.282 50.8406 224.605 51.0163 224.874 51.2597C225.143 51.5032 225.35 51.8072 225.478 52.1467C225.792 52.0814 226.118 52.1063 226.419 52.2187C226.719 52.3311 226.982 52.5263 227.176 52.7818C227.358 53.0432 227.462 53.3512 227.475 53.6696C227.488 53.988 227.409 54.3035 227.249 54.5789C227.48 54.7026 227.675 54.8828 227.817 55.1027C227.959 55.3225 228.043 55.5749 228.061 55.836C228.059 55.9643 228.028 56.0906 227.973 56.2062C227.917 56.3218 227.837 56.4241 227.738 56.5061C227.639 56.5881 227.524 56.6478 227.4 56.6813C227.276 56.7147 227.147 56.7211 227.02 56.7C227.109 56.9104 227.117 57.1461 227.043 57.362C226.969 57.578 226.818 57.7591 226.618 57.8707C226.412 57.9706 226.177 57.9923 225.956 57.932C225.735 57.8716 225.544 57.7332 225.417 57.5424" fill="#263238"/>
<path d="M227.232 56.7087C227.239 56.7967 227.227 56.8852 227.196 56.968C227.165 57.0508 227.117 57.1259 227.055 57.1883C226.924 57.3445 226.739 57.4449 226.536 57.4691C226.407 57.4869 226.275 57.4752 226.151 57.4348C226.027 57.3944 225.913 57.3263 225.819 57.2358H225.927C225.785 57.4679 225.605 57.6751 225.396 57.8492C225.258 57.9686 225.098 58.0596 224.925 58.1171C224.702 58.1832 224.465 58.1793 224.245 58.1058C224.025 58.0324 223.832 57.8931 223.694 57.7067C223.598 57.5429 223.533 57.3627 223.504 57.1753C223.49 57.1069 223.49 57.0363 223.504 56.9679C223.504 56.9679 223.534 57.0371 223.573 57.1623C223.619 57.3347 223.694 57.4981 223.793 57.6462C223.884 57.757 223.997 57.8478 224.125 57.913C224.253 57.9781 224.393 58.0161 224.536 58.0246C224.679 58.0331 224.822 58.012 224.957 57.9625C225.092 57.913 225.215 57.8362 225.318 57.7369C225.515 57.5724 225.685 57.3786 225.824 57.1623L225.871 57.0932L225.932 57.1537C226.011 57.2302 226.107 57.2886 226.211 57.3251C226.315 57.3616 226.426 57.3754 226.536 57.3654C226.714 57.3496 226.88 57.2698 227.003 57.1407C227.107 57.0132 227.185 56.8664 227.232 56.7087Z" fill="#455A64"/>
<path d="M220.079 64.4934C220.04 64.4934 220.031 64.2255 219.824 64.0009C219.616 63.7762 219.357 63.7244 219.361 63.6855C219.366 63.6466 219.435 63.651 219.547 63.6855C219.697 63.7198 219.832 63.8016 219.932 63.9188C220.035 64.0311 220.1 64.1733 220.117 64.3249C220.126 64.4286 220.096 64.4977 220.079 64.4934Z" fill="#FF9A6C"/>
<path d="M220.32 63.8064C220.285 63.828 220.194 63.7373 220.06 63.6725C219.927 63.6077 219.801 63.5861 219.797 63.5429C219.793 63.4997 219.952 63.4522 220.125 63.5429C220.298 63.6336 220.363 63.7892 220.32 63.8064Z" fill="#FF9A6C"/>
<path d="M215.676 49.6239C215.676 49.6023 215.403 49.7665 215.196 50.1812C215.071 50.4237 214.994 50.6875 214.967 50.9588C214.935 51.3026 215.029 51.6463 215.231 51.9265C215.44 52.1931 215.714 52.4026 216.025 52.5356C216.268 52.647 216.518 52.7422 216.773 52.8207C217.003 52.9064 217.242 52.9672 217.486 53.0022C217.278 52.8698 217.053 52.7679 216.816 52.6998C216.572 52.6086 216.332 52.5048 216.099 52.3887C215.819 52.2571 215.572 52.0636 215.377 51.8228C215.197 51.5728 215.111 51.2664 215.136 50.9588C215.151 50.7056 215.211 50.4571 215.313 50.2244C215.408 50.01 215.53 49.8083 215.676 49.6239Z" fill="#E0E0E0"/>
<path d="M214.065 51.2828C214.065 51.2828 214.026 51.4426 214.095 51.6889C214.192 52.0093 214.374 52.2974 214.622 52.5226C214.867 52.7393 215.165 52.8882 215.486 52.9546C215.741 53.0022 215.918 52.9762 215.918 52.9546C215.918 52.933 215.767 52.9071 215.542 52.8337C215.25 52.7333 214.981 52.5746 214.751 52.3671C214.526 52.159 214.346 51.9058 214.224 51.6241C214.121 51.4297 214.091 51.2785 214.065 51.2828Z" fill="#E0E0E0"/>
<path d="M211.404 75.4445L207.749 104.648C207.572 106.069 208.855 108.652 210.246 109.002L228.727 111.024C229.846 111.218 230.753 110.359 230.887 109.227C231.349 105.265 231.664 96.9409 232.239 91.5149C232.865 85.5361 234.014 77.9372 232.623 76.8572C230.388 75.2236 228.022 73.7786 225.547 72.5372L225.236 69.8242C225.236 69.8242 216.998 70.7746 215.594 71.9842L214.942 74.6108L211.404 75.4445Z" fill="#EBEBEB"/>
<path d="M214.328 74.9304L197.372 76.5331L184.188 70.0747L181.401 75.8635L183.419 76.9133C186.667 78.9869 192.599 83.3414 195.083 84.4301C198.539 85.9593 215.927 83.9981 215.927 83.9981L214.328 74.9304Z" fill="#EBEBEB"/>
<path d="M209.52 84.7022C209.895 84.6725 210.269 84.6191 210.638 84.5424C211.635 84.3003 212.544 83.7858 213.265 83.0563C214.324 81.9612 214.953 80.521 215.036 78.9998C215.08 78.1118 214.892 77.2276 214.492 76.4337C214.316 76.0119 213.996 75.666 213.589 75.4574C213.143 75.2903 212.663 75.2311 212.189 75.2846C208.219 75.5784 204.621 75.9326 202.02 76.1486L198.936 76.4121L198.097 76.4769C198 76.4875 197.901 76.4875 197.804 76.4769C197.898 76.4506 197.995 76.4332 198.093 76.4251L198.927 76.3171L202.003 75.9801C204.595 75.7209 208.193 75.3408 212.176 75.047C212.685 74.9907 213.201 75.0558 213.68 75.2371C214.132 75.4687 214.489 75.8506 214.691 76.3171C215.106 77.1478 215.296 78.0727 215.244 78.9998C215.15 80.5666 214.486 82.0449 213.377 83.1557C212.631 83.8956 211.685 84.4028 210.656 84.6158C210.378 84.6696 210.096 84.7 209.813 84.7065C209.716 84.7183 209.617 84.7168 209.52 84.7022Z" fill="#263238"/>
<path d="M225.547 72.5241C225.547 72.5587 224.955 72.6494 223.996 72.8351C223.037 73.0209 221.719 73.319 220.268 73.6732C218.816 74.0275 217.49 74.3039 216.518 74.4465C216.034 74.5199 215.654 74.5675 215.365 74.5891C215.221 74.6069 215.076 74.6069 214.933 74.5891C214.933 74.5545 215.524 74.4638 216.483 74.278C217.443 74.0923 218.756 73.7942 220.207 73.4399C221.659 73.0857 222.989 72.8092 223.957 72.6667C224.445 72.5932 224.821 72.5457 225.111 72.5241C225.255 72.5063 225.402 72.5063 225.547 72.5241Z" fill="#263238"/>
<path d="M233.155 79.8855C233.164 79.9918 233.164 80.0988 233.155 80.2052C233.155 80.4385 233.099 80.7452 233.064 81.1253C232.978 81.9461 232.861 83.0953 232.714 84.4993C232.433 87.3505 232.088 91.2946 231.85 95.6578C231.729 97.8178 231.643 99.9217 231.587 101.814C231.561 102.76 231.539 103.658 231.517 104.501C231.496 105.343 231.518 106.129 231.448 106.851C231.414 107.5 231.308 108.143 231.133 108.769C231 109.245 230.785 109.693 230.498 110.095C230.317 110.349 230.095 110.571 229.841 110.752C229.752 110.813 229.658 110.868 229.561 110.916C229.894 110.677 230.186 110.385 230.425 110.052C230.69 109.656 230.887 109.218 231.008 108.756C231.167 108.135 231.26 107.5 231.284 106.86C231.323 106.151 231.314 105.365 231.323 104.522C231.332 103.68 231.349 102.794 231.375 101.831C231.422 99.9346 231.5 97.8524 231.621 95.6665C231.863 91.2989 232.23 87.3548 232.554 84.5036C232.714 83.0823 232.861 81.9116 232.986 81.134C233.038 80.7581 233.086 80.4514 233.116 80.2225C233.116 80.109 233.129 79.996 233.155 79.8855Z" fill="#263238"/>
<path d="M195.48 151.688L198.789 159.067C198.789 159.067 190.08 162.479 190.007 164.099L206.963 163.793L206.941 162.376L203.204 150.202L195.48 151.688Z" fill="#455A64"/>
<path d="M203.757 157.741C203.926 157.786 204.071 157.895 204.163 158.045C204.254 158.194 204.285 158.373 204.25 158.544C204.205 158.707 204.099 158.847 203.955 158.936C203.81 159.024 203.638 159.054 203.472 159.019C203.298 158.97 203.149 158.857 203.053 158.704C202.958 158.551 202.922 158.368 202.954 158.19C203.013 158.019 203.136 157.879 203.298 157.798C203.459 157.717 203.646 157.703 203.818 157.758" fill="#E0E0E0"/>
<path d="M206.962 163.793L206.941 162.376L190.663 163.24C190.663 163.24 189.911 163.581 190.006 164.104L206.962 163.793Z" fill="#263238"/>
<path d="M198.513 158.976C198.513 159.062 198.945 159.093 199.347 159.348C199.749 159.602 199.982 159.952 200.055 159.918C200.129 159.883 199.999 159.408 199.498 159.106C198.997 158.803 198.496 158.911 198.513 158.976Z" fill="#263238"/>
<path d="M196.75 159.754C196.75 159.836 197.091 159.97 197.381 160.315C197.67 160.661 197.757 161.028 197.839 161.024C197.921 161.019 197.964 160.548 197.601 160.125C197.238 159.702 196.75 159.676 196.75 159.754Z" fill="#263238"/>
<path d="M195.778 161.901C195.851 161.901 195.959 161.503 195.739 161.037C195.518 160.57 195.13 160.41 195.095 160.48C195.061 160.549 195.307 160.791 195.48 161.162C195.652 161.534 195.696 161.896 195.778 161.901Z" fill="#263238"/>
<path d="M197.894 157.062C197.933 157.136 198.326 157.015 198.78 157.041C199.234 157.067 199.614 157.205 199.644 157.131C199.674 157.058 199.329 156.773 198.78 156.751C198.231 156.73 197.855 156.997 197.894 157.062Z" fill="#263238"/>
<path d="M225.296 169.724L225.672 183.799L218.272 183.777L217.879 170.044L225.296 169.724Z" fill="#455A64"/>
<path d="M222.001 183.086C221.936 183.086 221.845 180.084 221.793 176.386C221.741 172.688 221.746 169.681 221.793 169.677C221.841 169.672 221.949 172.701 222.005 176.381C222.061 180.062 222.048 183.086 222.001 183.086Z" fill="#263238"/>
<path d="M218.16 179.388C218.16 179.388 218.208 179.271 218.342 179.086C218.533 178.826 218.749 178.584 218.985 178.364C219.332 178.04 219.723 177.766 220.147 177.552C220.898 177.166 221.752 177.031 222.584 177.166C223.417 177.301 224.185 177.7 224.774 178.304C224.999 178.538 225.189 178.804 225.336 179.094C225.398 179.197 225.44 179.309 225.461 179.427C225.224 179.066 224.957 178.726 224.662 178.412C223.908 177.7 222.903 177.314 221.867 177.34C220.831 177.395 219.846 177.804 219.076 178.498C218.471 179.004 218.16 179.414 218.16 179.388Z" fill="#263238"/>
<path d="M225.646 183.812L218.281 183.777L218.225 182.114L225.655 182.149L225.646 183.812Z" fill="#263238"/>
<path d="M225.884 110.113L210.539 108.769L210.284 110.454C206.396 113.586 194.192 121.072 187.902 127.202C187.902 127.202 185.578 130.442 186.502 133.294L196.339 155.589L206.349 153.282L200.24 134.352L219.023 125.582C222.674 124.23 225.966 119.621 226.743 116.977C227.417 114.713 225.983 113.011 225.884 110.113Z" fill="#263238"/>
<path d="M212.998 127.872L217.059 175.232L227.302 175.176C227.302 175.176 227.63 160.717 227.427 150.984C227.224 141.251 228.412 121.392 228.412 121.392L212.998 127.872Z" fill="#263238"/>
<path d="M225.884 110.113L230.809 110.657C230.809 110.657 231.293 120.494 230.939 121.742C230.584 122.99 227.915 127.924 227.915 127.924L213.348 132.166V121.072L225.884 110.113Z" fill="#263238"/>
<path d="M224.584 120.187C224.555 120.279 224.514 120.368 224.463 120.45C224.345 120.703 224.211 120.949 224.062 121.185C223.532 122.067 222.87 122.864 222.1 123.548C220.955 124.554 219.685 125.408 218.32 126.088C216.8 126.887 215.063 127.617 213.275 128.451L204.077 132.667L201.278 133.92L200.513 134.253C200.426 134.297 200.335 134.331 200.241 134.356C200.322 134.302 200.407 134.256 200.496 134.218L201.243 133.851L204.017 132.555L213.188 128.287C214.981 127.453 216.718 126.727 218.234 125.941C219.59 125.275 220.857 124.442 222.005 123.461C222.773 122.793 223.442 122.019 223.993 121.163C224.386 120.528 224.567 120.174 224.584 120.187Z" fill="#455A64"/>
<path d="M193.726 133.488C194.07 133.376 194.427 133.308 194.788 133.285C195.65 133.188 196.519 133.188 197.38 133.285C198.248 133.381 199.101 133.581 199.92 133.881C200.265 133.99 200.594 134.146 200.897 134.343C200.55 134.255 200.208 134.146 199.873 134.019C199.052 133.763 198.209 133.585 197.354 133.488C196.501 133.397 195.641 133.378 194.784 133.432C194.433 133.475 194.079 133.494 193.726 133.488Z" fill="#455A64"/>
<path d="M210.172 110.437L230.886 112.394L230.817 110.877L210.539 108.769L210.172 110.437Z" fill="#455A64"/>
<path d="M214.562 111.067C214.622 110.946 214.769 109.149 214.769 109.149L215.896 109.266L215.624 111.465L214.562 111.067Z" fill="#263238"/>
<path d="M225.422 112.225C225.482 112.104 225.634 110.307 225.634 110.307L226.757 110.423L226.489 112.622L225.422 112.225Z" fill="#263238"/>
</svg>
