<svg width="326" height="326" viewBox="0 0 326 326" fill="none" xmlns="http://www.w3.org/2000/svg">
<path d="M163 278.769C232.818 278.769 289.416 275.465 289.416 271.388C289.416 267.312 232.818 264.008 163 264.008C93.182 264.008 36.5835 267.312 36.5835 271.388C36.5835 275.465 93.182 278.769 163 278.769Z" fill="#F5F5F5"/>
<path d="M254.782 85.6987C253.518 85.4314 251.894 83.6384 251.712 80.5935C251.49 76.6815 255.721 76.4599 257.769 77.3922C259.816 78.3246 258.681 83.5406 254.782 85.6987Z" fill="#263238"/>
<path d="M286.887 256.321L282.016 257.97L277.465 246.782L282.329 245.132L286.887 256.321Z" fill="#FFC3BD"/>
<path d="M281.247 257.599L287.174 255.59C287.267 255.555 287.369 255.556 287.461 255.593C287.553 255.631 287.628 255.702 287.669 255.792L289.69 259.998C289.737 260.106 289.762 260.222 289.761 260.34C289.761 260.457 289.737 260.573 289.69 260.681C289.643 260.789 289.574 260.886 289.488 260.966C289.401 261.045 289.299 261.107 289.188 261.145C287.271 261.758 285.85 262.117 283.451 262.932C281.971 263.434 279.017 264.51 276.976 265.201C274.936 265.892 274.173 263.897 274.962 263.395C278.515 261.263 279.591 259.718 280.53 258.179C280.694 257.908 280.948 257.703 281.247 257.599Z" fill="#263238"/>
<path opacity="0.2" d="M282.329 245.132L277.465 246.782L279.813 252.552L284.683 250.903L282.329 245.132Z" fill="black"/>
<path d="M256.06 104.535H259.972C258.668 105.644 258.785 135.453 259.887 149.764C256.764 149.96 251.04 148.871 251.04 148.871C251.04 148.871 250.492 126.56 256.06 104.535Z" fill="#F5F5F5"/>
<path opacity="0.4" d="M263.035 116H266.947C265.643 117.108 265.761 146.918 266.862 161.229C263.739 161.425 258.015 160.336 258.015 160.336C258.015 160.336 257.467 138.025 263.035 116Z" fill="black"/>
<path d="M253.98 266.107H248.803L248.027 254.124H253.198L253.98 266.107Z" fill="#FFC3BD"/>
<path opacity="0.2" d="M253.198 254.13H248.027L248.432 260.304H253.602L253.198 254.13Z" fill="black"/>
<path d="M245.504 258.192L254.736 258.114C254.736 258.114 253.185 224.386 254.163 208.327C254.463 203.437 254.404 196.663 255.78 189.373C257.527 180.187 259.763 170.244 261.608 162.465C263.564 154.263 262.534 148.46 262.534 148.46L244.35 147.385C244.35 147.385 239.649 190.417 239.643 206.182C239.63 222.619 245.504 258.192 245.504 258.192Z" fill="#263238"/>
<path d="M248.184 265.507H254.489C254.589 265.503 254.687 265.538 254.763 265.603C254.839 265.668 254.888 265.76 254.9 265.859L255.486 270.456C255.496 270.573 255.482 270.691 255.444 270.803C255.406 270.914 255.345 271.016 255.265 271.102C255.185 271.189 255.088 271.258 254.981 271.305C254.873 271.352 254.756 271.376 254.639 271.375C252.611 271.343 251.144 271.225 248.588 271.225C247.017 271.225 241.338 271.388 239.167 271.388C236.996 271.388 236.917 269.243 237.824 269.048C241.892 268.174 245.928 266.974 247.317 265.827C247.559 265.621 247.866 265.508 248.184 265.507Z" fill="#263238"/>
<path d="M244.768 259.313H256.647L256.575 255.982L244.142 255.766L244.768 259.313Z" fill="#407BFF"/>
<path d="M246.384 266.407C246.042 266.437 245.7 266.345 245.419 266.146C245.33 266.066 245.264 265.963 245.23 265.848C245.195 265.733 245.193 265.61 245.224 265.494C245.231 265.421 245.257 265.35 245.299 265.29C245.341 265.229 245.398 265.181 245.465 265.149C246.065 264.849 247.636 265.879 247.819 265.996C247.837 266.01 247.851 266.03 247.858 266.052C247.865 266.074 247.865 266.098 247.858 266.12C247.851 266.143 247.838 266.164 247.821 266.181C247.804 266.198 247.783 266.211 247.76 266.218C247.309 266.33 246.848 266.393 246.384 266.407ZM245.732 265.338C245.676 265.337 245.621 265.348 245.569 265.37C245.544 265.385 245.522 265.406 245.506 265.431C245.49 265.456 245.48 265.484 245.478 265.514C245.459 265.592 245.461 265.674 245.483 265.752C245.504 265.829 245.545 265.9 245.602 265.957C245.863 266.198 246.541 266.231 247.434 266.055C246.916 265.709 246.332 265.473 245.719 265.364L245.732 265.338Z" fill="#407BFF"/>
<path d="M247.76 266.231C247.744 266.238 247.725 266.238 247.708 266.231C247.2 265.944 246.267 264.81 246.437 264.229C246.464 264.139 246.519 264.06 246.594 264.002C246.669 263.945 246.76 263.913 246.854 263.91C246.945 263.899 247.037 263.907 247.125 263.934C247.213 263.961 247.294 264.006 247.363 264.066C247.917 264.562 247.897 266.022 247.897 266.114C247.898 266.136 247.892 266.159 247.88 266.178C247.869 266.198 247.852 266.214 247.832 266.224C247.81 266.235 247.784 266.237 247.76 266.231ZM246.919 264.132H246.861C246.698 264.132 246.678 264.229 246.672 264.255C246.574 264.601 247.154 265.455 247.643 265.859C247.667 265.283 247.507 264.715 247.187 264.236C247.147 264.198 247.1 264.169 247.048 264.151C246.996 264.133 246.941 264.127 246.887 264.132H246.919Z" fill="#407BFF"/>
<path opacity="0.2" d="M255.78 189.399C257.527 180.213 259.763 170.27 261.609 162.491L259.594 158.436C255.271 163.847 254.613 180.415 255.78 189.399Z" fill="black"/>
<path d="M254.163 148.004C254.163 148.004 260.115 192.268 262.795 207.245C265.736 223.642 277.035 252.233 277.035 252.233L285.948 249.207C285.948 249.207 278.926 225.488 276.461 209.435C273.651 191.179 272.008 149.047 272.008 149.047L254.163 148.004Z" fill="#263238"/>
<path d="M276.057 252.774L287.232 248.986L286.098 245.823L274.336 249.586L276.057 252.774Z" fill="#407BFF"/>
<path d="M279.845 259.033C279.531 259.173 279.176 259.194 278.847 259.092C278.738 259.044 278.643 258.967 278.574 258.869C278.505 258.772 278.464 258.657 278.456 258.537C278.441 258.465 278.443 258.389 278.464 258.318C278.484 258.246 278.522 258.18 278.574 258.127C279.043 257.657 280.849 258.127 281.058 258.192C281.081 258.197 281.102 258.21 281.117 258.229C281.131 258.248 281.138 258.272 281.136 258.296C281.138 258.321 281.133 258.346 281.121 258.368C281.11 258.39 281.092 258.408 281.071 258.42C280.688 258.672 280.276 258.878 279.845 259.033ZM278.873 258.225C278.819 258.239 278.769 258.269 278.73 258.309C278.71 258.331 278.696 258.357 278.689 258.386C278.682 258.414 278.683 258.444 278.691 258.472C278.697 258.554 278.724 258.632 278.77 258.7C278.815 258.767 278.878 258.822 278.952 258.857C279.271 259 279.917 258.818 280.699 258.361C280.106 258.191 279.485 258.145 278.873 258.225Z" fill="#407BFF"/>
<path d="M281.045 258.433H281.012C280.445 258.316 279.213 257.527 279.18 256.927C279.176 256.832 279.203 256.738 279.255 256.658C279.308 256.579 279.384 256.518 279.473 256.484C279.557 256.447 279.647 256.428 279.737 256.428C279.828 256.428 279.918 256.447 280.002 256.484C280.654 256.777 281.136 258.211 281.156 258.27C281.166 258.29 281.172 258.313 281.172 258.335C281.172 258.358 281.166 258.38 281.156 258.4C281.143 258.417 281.125 258.429 281.105 258.435C281.086 258.441 281.064 258.44 281.045 258.433ZM279.584 256.699H279.532C279.389 256.77 279.389 256.849 279.389 256.881C279.389 257.233 280.223 257.872 280.817 258.101C280.66 257.69 280.308 256.881 279.871 256.699C279.826 256.68 279.777 256.67 279.728 256.67C279.678 256.67 279.63 256.68 279.584 256.699Z" fill="#407BFF"/>
<path d="M249.423 110.657C247.128 113.578 244.767 116.297 242.251 118.983C239.723 121.694 237.044 124.258 234.225 126.664C233.481 127.264 232.758 127.87 231.956 128.444C231.032 129.173 230.017 129.778 228.937 130.243C226.728 131.102 224.329 131.345 221.993 130.948C219.951 130.619 217.971 129.977 216.125 129.044C215.248 128.614 214.399 128.131 213.582 127.596C212.768 127.059 211.989 126.471 211.248 125.836L213.374 122.576C216.36 123.802 219.744 124.78 222.567 124.76C223.797 124.797 225.015 124.511 226.101 123.932C226.62 123.606 227.107 123.231 227.555 122.811C228.174 122.295 228.78 121.709 229.387 121.148C230.606 119.981 231.812 118.781 232.986 117.51C234.159 116.238 235.339 114.974 236.493 113.67C238.795 111.062 241.103 108.382 243.294 105.741L249.423 110.657Z" fill="#FFC3BD"/>
<path d="M248.836 114.693C246.784 117.029 244.54 119.188 242.127 121.148L240.399 119.544L234.231 113.826C235.94 110.572 238.234 107.661 240.999 105.239C245.85 100.916 251.6 102.292 252.259 107.691C252.507 109.699 250.863 112.307 248.836 114.693Z" fill="#F5F5F5"/>
<path opacity="0.2" d="M248.836 114.693C246.784 117.029 244.54 119.188 242.127 121.148L240.399 119.544C242.029 116.154 247.76 110.188 248.836 114.693Z" fill="black"/>
<path d="M242.309 155.032C244.761 156.062 248.51 156.747 251.711 155.756C251.496 150.912 251.568 123.593 256.392 104.509H259.248C257.944 105.572 253.967 141.269 255.271 156.121C260.741 157.262 271.493 156.388 273.188 154.713C272.973 152.379 271.793 140.721 271.956 132.584C272.027 129.115 272.184 125.288 272.542 121.272C273.021 115.528 273.932 109.829 275.268 104.222C275.268 104.222 272.008 103.355 268.272 102.794C267.535 102.683 266.785 102.585 266.049 102.507C262.153 102.05 258.235 101.818 254.313 101.81C253.83 101.81 253.354 101.849 252.891 101.881C250.684 102.042 248.489 102.338 246.319 102.768C246.319 102.768 239.336 126.233 242.309 155.032Z" fill="#F5F5F5"/>
<path opacity="0.2" d="M271.376 112.313C270.013 116.441 270.072 122.159 272.028 124.851C272.106 124.962 272.191 125.067 272.269 125.158C272.347 123.893 272.445 122.606 272.562 121.298C272.738 119.296 272.967 117.243 273.247 115.163L271.376 112.313Z" fill="black"/>
<path d="M265.364 89.239C264.484 92.975 263.493 99.8536 266.016 102.533C264.798 103.68 263.344 104.548 261.757 105.077C260.17 105.606 258.486 105.784 256.823 105.598C253.563 105.33 253.491 103.048 254.261 101.836C258.518 101.079 258.525 97.9237 257.892 94.9701L265.364 89.239Z" fill="#FFC3BD"/>
<path opacity="0.2" d="M262.326 91.5798L257.925 94.9637C258.08 95.6563 258.176 96.3608 258.212 97.0697C259.829 96.9328 262.124 95.2962 262.339 93.6206C262.46 92.9453 262.455 92.2535 262.326 91.5798Z" fill="black"/>
<path d="M266.016 83.0125C265.579 88.1372 265.579 91.156 262.939 93.6727C258.961 97.4543 252.715 94.8072 251.62 89.6303C250.635 84.962 251.516 77.3727 256.569 75.5667C257.7 75.1825 258.91 75.0872 260.088 75.2895C261.266 75.4919 262.375 75.9854 263.313 76.7252C264.252 77.465 264.991 78.4277 265.463 79.5257C265.935 80.6237 266.125 81.8223 266.016 83.0125Z" fill="#FFC3BD"/>
<path d="M265.723 86.2465C264.458 85.9857 262.828 84.1862 262.652 81.1414C262.424 77.2294 266.662 77.0077 268.702 77.9401C270.743 78.8724 269.615 84.108 265.723 86.2465Z" fill="#263238"/>
<path d="M263.323 79.5048C260.976 80.4307 251.842 80.0982 250.407 77.7575C248.973 75.4168 267.972 77.6727 263.323 79.5048Z" fill="#263238"/>
<path d="M264.249 78.8918C261.837 79.609 252.761 78.5006 251.535 76.0491C250.31 73.5976 269.048 77.4248 264.249 78.8918Z" fill="#263238"/>
<path d="M265.468 78.5138C263.004 79.0093 254.065 77.0859 253.08 74.5301C252.096 71.9742 270.378 77.5228 265.468 78.5138Z" fill="#263238"/>
<path d="M267.06 78.7616C264.562 79.0746 255.682 75.7298 254.874 73.1088C254.065 70.4877 272.028 78.1422 267.06 78.7616Z" fill="#263238"/>
<path d="M268.031 78.2398C265.514 78.2985 257.051 74.8364 256.51 72.1501C255.969 69.4639 273.038 78.0964 268.031 78.2398Z" fill="#263238"/>
<path d="M268.318 78.1943C266.245 77.7965 258.825 73.3108 259.053 71.0223C259.307 68.4599 272.484 78.9897 268.318 78.1943Z" fill="#263238"/>
<path d="M268.148 87.0288C267.995 87.6436 267.72 88.2214 267.339 88.7277C266.959 89.2341 266.48 89.6585 265.931 89.9758C264.458 90.8169 263.265 89.5912 263.323 87.9807C263.323 86.5268 264.158 84.3426 265.821 84.16C266.183 84.1299 266.548 84.1888 266.883 84.3317C267.218 84.4745 267.513 84.697 267.742 84.9797C267.971 85.2624 268.128 85.5968 268.199 85.9539C268.27 86.311 268.252 86.68 268.148 87.0288Z" fill="#FFC3BD"/>
<path d="M258.192 84.108C258.192 84.5252 257.951 84.8512 257.677 84.8447C257.403 84.8382 257.195 84.4796 257.208 84.0623C257.221 83.645 257.442 83.3125 257.716 83.3256C257.99 83.3386 258.192 83.6711 258.192 84.108Z" fill="#263238"/>
<path d="M253.511 83.8666C253.511 84.2839 253.27 84.6164 252.996 84.6033C252.722 84.5903 252.513 84.2382 252.526 83.8209C252.539 83.4037 252.761 83.0777 253.035 83.0907C253.309 83.1037 253.518 83.4558 253.511 83.8666Z" fill="#263238"/>
<path d="M254.997 84.147C254.472 85.3984 253.774 86.5703 252.924 87.6287C253.197 87.843 253.513 87.996 253.851 88.077C254.188 88.158 254.539 88.1652 254.88 88.0981L254.997 84.147Z" fill="#FF5652"/>
<path d="M256.627 89.3239C256.447 89.337 256.266 89.337 256.086 89.3239C256.07 89.3239 256.055 89.3207 256.04 89.3144C256.025 89.3081 256.012 89.2988 256.001 89.2872C255.99 89.2756 255.981 89.2619 255.976 89.2469C255.97 89.2319 255.968 89.2159 255.969 89.2C255.969 89.184 255.972 89.1682 255.978 89.1535C255.985 89.1388 255.994 89.1256 256.006 89.1146C256.017 89.1036 256.031 89.0951 256.046 89.0896C256.061 89.0841 256.077 89.0817 256.093 89.0826C256.607 89.1193 257.122 89.0318 257.595 88.8276C258.069 88.6233 258.486 88.3083 258.812 87.909C258.835 87.8875 258.865 87.8755 258.896 87.8755C258.928 87.8755 258.958 87.8875 258.981 87.909C259.007 87.9296 259.024 87.9587 259.03 87.991C259.036 88.0233 259.03 88.0567 259.014 88.0851C258.721 88.4431 258.359 88.7376 257.948 88.9506C257.538 89.1636 257.089 89.2906 256.627 89.3239Z" fill="#263238"/>
<path d="M259.698 82.6279C259.655 82.6324 259.61 82.6251 259.57 82.6068C259.53 82.5884 259.496 82.5597 259.47 82.5236C259.302 82.2628 259.074 82.0458 258.805 81.8905C258.537 81.7351 258.235 81.646 257.925 81.6304C257.86 81.6304 257.797 81.6055 257.75 81.5606C257.702 81.5157 257.674 81.4543 257.671 81.3891C257.669 81.3572 257.674 81.3253 257.685 81.2953C257.696 81.2653 257.713 81.2378 257.735 81.2147C257.757 81.1915 257.783 81.173 257.813 81.1604C257.842 81.1478 257.874 81.1413 257.905 81.1414C258.295 81.1575 258.676 81.2658 259.016 81.4573C259.356 81.6489 259.646 81.9182 259.861 82.2432C259.899 82.2966 259.914 82.3621 259.904 82.4264C259.894 82.4907 259.861 82.5488 259.809 82.5888C259.777 82.6122 259.738 82.6258 259.698 82.6279Z" fill="#263238"/>
<path d="M251.522 82.1518C251.478 82.1672 251.43 82.1672 251.385 82.1518C251.356 82.1374 251.33 82.1172 251.309 82.0924C251.288 82.0677 251.272 82.0389 251.262 82.0078C251.252 81.9768 251.249 81.944 251.252 81.9116C251.255 81.8792 251.265 81.8478 251.281 81.8193C251.45 81.4729 251.701 81.173 252.012 80.9458C252.324 80.7185 252.686 80.5707 253.067 80.5153C253.133 80.5116 253.197 80.5333 253.247 80.5758C253.297 80.6183 253.328 80.6784 253.335 80.7435C253.338 80.7752 253.336 80.8073 253.327 80.838C253.318 80.8686 253.303 80.8972 253.283 80.9221C253.263 80.947 253.238 80.9676 253.21 80.9828C253.182 80.9981 253.151 81.0076 253.12 81.0108C252.817 81.0549 252.53 81.1732 252.284 81.3552C252.038 81.5373 251.842 81.7774 251.711 82.054C251.689 82.0837 251.661 82.1079 251.628 82.1249C251.595 82.1419 251.559 82.1511 251.522 82.1518Z" fill="#263238"/>
<path d="M278.209 107.684C279.011 109.49 279.636 111.212 280.282 112.992C280.927 114.772 281.482 116.565 282.003 118.39C283.094 122.109 283.816 125.927 284.161 129.787L284.233 131.313V131.75V132.349C284.233 132.741 284.148 133.073 284.096 133.425C283.853 134.583 283.468 135.707 282.949 136.77C282.072 138.575 281.026 140.293 279.825 141.901C277.576 144.942 275.049 147.767 272.275 150.338L269.322 147.808C271.219 144.816 273.116 141.732 274.733 138.68C275.517 137.236 276.195 135.737 276.761 134.195C276.975 133.589 277.121 132.961 277.198 132.323C277.198 132.226 277.198 132.108 277.198 132.043C277.195 132.017 277.195 131.991 277.198 131.965V131.867V131.717L277.048 130.524C276.483 127.162 275.659 123.849 274.583 120.613C274.062 118.951 273.482 117.288 272.895 115.632C272.308 113.976 271.656 112.3 271.05 110.755L278.209 107.684Z" fill="#FFC3BD"/>
<path d="M276.807 105.004C280.986 107.736 282.923 118.866 282.923 118.866L273.077 123.117C270.738 119.859 269.099 116.152 268.266 112.229C266.87 105.141 272.536 102.201 276.807 105.004Z" fill="#F5F5F5"/>
<path d="M271.819 147.052L265.749 146.817L268.944 152.685C268.944 152.685 273.345 151.472 272.908 149.067L271.819 147.052Z" fill="#FFC3BD"/>
<path d="M262.515 149.621L265.377 154.328L268.944 152.659L265.749 146.817L262.515 149.621Z" fill="#FFC3BD"/>
<path d="M213.589 122.771L209.09 119.955L208.34 126.475C208.34 126.475 212.683 128.033 213.713 125.823L213.589 122.771Z" fill="#FFC3BD"/>
<path d="M204.656 120.894L203.411 125.784L208.34 126.501L209.09 119.955L204.656 120.894Z" fill="#FFC3BD"/>
<path d="M170.706 87.6159C166.951 91.5865 161.324 101.895 165.64 105.513C167.144 106.161 168.761 106.505 170.399 106.524C172.036 106.543 173.661 106.237 175.179 105.624L174.168 90.7389C174.168 90.7389 173.64 85.0079 170.706 87.6159Z" fill="#263238"/>
<path d="M167.714 121.741C167.202 123.779 166.589 125.79 165.875 127.766C165.171 129.722 164.362 131.645 163.476 133.543C162.592 135.461 161.579 137.317 160.444 139.098C159.87 139.997 159.251 140.878 158.599 141.745C158.273 142.175 157.947 142.605 157.581 143.049C157.405 143.257 157.216 143.46 157.034 143.668L156.76 143.981C156.578 144.18 156.382 144.365 156.173 144.535C155.696 144.914 155.145 145.19 154.556 145.344C154.019 145.478 153.463 145.515 152.913 145.455C152.108 145.356 151.328 145.104 150.618 144.711C149.565 144.124 148.59 143.405 147.717 142.573C146.173 141.114 144.75 139.533 143.459 137.846C140.971 134.594 138.722 131.167 136.73 127.59L139.11 126.045C140.323 127.577 141.568 129.142 142.84 130.648C144.111 132.154 145.389 133.653 146.752 135.062C148.019 136.462 149.385 137.769 150.84 138.974C151.454 139.488 152.128 139.926 152.848 140.278C153.022 140.367 153.213 140.418 153.409 140.428C153.409 140.428 153.37 140.428 153.259 140.428C153.152 140.452 153.051 140.494 152.959 140.552C152.949 140.566 152.936 140.578 152.92 140.584L153.128 140.317C153.272 140.141 153.415 139.971 153.552 139.789C153.826 139.424 154.093 139.059 154.354 138.674C154.869 137.918 155.365 137.135 155.828 136.314C156.753 134.69 157.581 132.975 158.364 131.235C159.146 129.494 159.824 127.688 160.463 125.869C161.102 124.05 161.689 122.165 162.178 120.411L167.714 121.741Z" fill="#FF8B7B"/>
<path d="M171.802 123.189C171.195 124.891 169.135 127.942 167.518 130.198C166.338 131.828 165.399 133.041 165.399 133.041L164.467 132.389L156.747 127.14C158.201 122.726 160.131 118.012 165.516 116.708C168.907 115.9 172.884 120.151 171.802 123.189Z" fill="#407BFF"/>
<g opacity="0.5">
<path d="M171.802 123.189C171.195 124.891 169.135 127.942 167.518 130.198C166.338 131.828 165.399 133.041 165.399 133.041L164.467 132.389L156.747 127.14C158.201 122.726 160.131 118.012 165.516 116.708C168.907 115.9 172.884 120.151 171.802 123.189Z" fill="white"/>
</g>
<path opacity="0.3" d="M167.518 130.198C166.338 131.828 165.399 133.041 165.399 133.041L164.467 132.389C164.93 130.628 165.771 127.87 166.997 126.775C167.412 127.866 167.59 129.033 167.518 130.198Z" fill="black"/>
<path d="M139.626 127.244L139.88 122.394L134.077 123.202C134.077 123.202 135.714 126.925 137.441 128.483L139.626 127.244Z" fill="#FF8B7B"/>
<path d="M138.002 120.372L133.803 121.774L134.077 123.202L139.88 122.394L138.002 120.372Z" fill="#FF8B7B"/>
<path d="M186.276 265.964L180.78 266.498L177.122 253.608L182.618 253.08L186.276 265.964Z" fill="#FF8B7B"/>
<path d="M225.944 253.569L220.852 255.91L213.791 244.872L218.883 242.531L225.944 253.569Z" fill="#FF8B7B"/>
<path d="M219.332 254.195L224.94 251.281C225.036 251.231 225.147 251.217 225.252 251.242C225.358 251.267 225.45 251.33 225.513 251.418L228.454 255.499C228.524 255.605 228.571 255.725 228.592 255.85C228.613 255.976 228.607 256.104 228.575 256.227C228.543 256.35 228.485 256.465 228.406 256.564C228.327 256.663 228.228 256.745 228.115 256.803C226.159 257.781 225.155 258.16 222.697 259.411C221.191 260.2 217.963 262.169 215.877 263.252C213.79 264.334 212.617 262.339 213.373 261.7C216.835 258.831 217.937 256.693 218.68 254.906C218.814 254.604 219.043 254.355 219.332 254.195Z" fill="#263238"/>
<path d="M179.795 264.823H186.472C186.591 264.824 186.706 264.865 186.8 264.938C186.894 265.011 186.962 265.112 186.993 265.227L188.441 270.489C188.477 270.613 188.483 270.743 188.459 270.87C188.435 270.997 188.381 271.116 188.302 271.218C188.224 271.321 188.122 271.403 188.006 271.459C187.889 271.514 187.761 271.542 187.632 271.538C185.285 271.538 184.177 271.538 181.249 271.538H172.284C169.859 271.538 169.35 269.08 170.328 268.859C174.833 267.861 177.435 266.485 178.804 265.175C178.937 265.053 179.094 264.959 179.264 264.898C179.434 264.838 179.615 264.812 179.795 264.823Z" fill="#263238"/>
<path opacity="0.2" d="M177.122 253.608L179.013 260.252H184.659L182.625 253.08L177.122 253.608Z" fill="black"/>
<path opacity="0.2" d="M218.889 242.531L213.791 244.872L217.435 250.564L222.527 248.223L218.889 242.531Z" fill="black"/>
<path d="M193.709 147.437L171.13 150.325C161.637 118.377 164.023 117.217 164.023 117.217C164.023 117.217 167.792 115.913 171.639 114.909C172.219 114.759 172.806 114.615 173.38 114.485C176.763 113.809 180.191 113.374 183.636 113.181L185.155 113.083C187.9 112.962 190.65 113.006 193.39 113.213C192.972 117.328 192.672 120.809 192.483 123.854C192.229 127.818 192.151 131.026 192.209 133.804C192.347 138.381 192.849 142.939 193.709 147.437Z" fill="#407BFF"/>
<g opacity="0.5">
<path d="M193.709 147.437L171.13 150.325C161.637 118.377 164.023 117.217 164.023 117.217C164.023 117.217 167.792 115.913 171.639 114.909C172.219 114.759 172.806 114.615 173.38 114.485C176.763 113.809 180.191 113.374 183.636 113.181L185.155 113.083C187.9 112.962 190.65 113.006 193.39 113.213C192.972 117.328 192.672 120.809 192.483 123.854C192.229 127.818 192.151 131.026 192.209 133.804C192.347 138.381 192.849 142.939 193.709 147.437Z" fill="white"/>
</g>
<path opacity="0.3" d="M192.209 133.791C190.683 130.531 189.94 123.417 190.905 120.979L192.483 123.841C192.229 127.792 192.15 131 192.209 133.791Z" fill="black"/>
<path d="M181.152 106.341C181.36 109.132 182.019 111.975 183.636 113.168C181.104 113.925 178.755 115.192 176.731 116.891C173.96 115.43 173.386 114.485 173.386 114.485C176.953 113.135 176.705 110.684 175.192 106.746L177.976 105.246C178.216 104.981 178.529 104.791 178.876 104.702C179.222 104.613 179.588 104.628 179.926 104.745C180.264 104.861 180.561 105.075 180.779 105.359C180.997 105.643 181.126 105.984 181.152 106.341Z" fill="#FF8B7B"/>
<path d="M174.084 112.255C173.099 111.805 171.254 114.244 171.006 114.896C170.758 115.548 171.763 115.75 171.658 116.61C171.554 117.471 172.128 118.234 173.829 118.905C175.531 119.577 178.902 119.173 180.023 117.504C181.145 115.834 188.134 114.498 187.156 112.835C186.178 111.173 185.422 112.105 184.731 110.442C184.04 108.78 181.112 110.371 180.167 111.238C179.221 112.105 178.23 114.139 174.084 112.255Z" fill="#407BFF"/>
<path opacity="0.2" d="M177.996 105.239C178.221 104.991 178.511 104.809 178.833 104.714C179.155 104.62 179.497 104.616 179.821 104.704C180.145 104.792 180.438 104.967 180.668 105.211C180.899 105.455 181.057 105.759 181.126 106.087C180.069 108.222 178.365 109.968 176.255 111.075C176.18 109.577 175.827 108.107 175.212 106.739L177.996 105.239Z" fill="black"/>
<path d="M185.481 97.5915C184.099 102.984 183.629 105.292 180.337 107.561C175.381 110.971 169.064 108.095 168.809 102.403C168.581 97.2786 170.883 89.3242 176.633 88.1832C177.901 87.9241 179.214 87.9936 180.448 88.385C181.682 88.7765 182.795 89.4769 183.681 90.4197C184.568 91.3625 185.199 92.5163 185.514 93.7716C185.829 95.0268 185.817 96.3418 185.481 97.5915Z" fill="#FF8B7B"/>
<path d="M185.741 102.899C185.519 103.383 185.202 103.818 184.811 104.18C184.419 104.541 183.96 104.821 183.459 105.005C182.116 105.494 181.34 104.314 181.627 102.997C181.888 101.81 182.899 100.121 184.287 100.213C184.589 100.238 184.88 100.338 185.134 100.504C185.388 100.67 185.596 100.896 185.74 101.163C185.885 101.429 185.96 101.728 185.96 102.031C185.961 102.334 185.885 102.632 185.741 102.899Z" fill="#FF8B7B"/>
<path d="M171.874 91.404C174.521 90.8628 180.878 91.3127 181.432 93.9142C179.169 96.0266 180.258 102.834 177.905 104.829C181.341 108.089 188.154 108.121 188.154 108.121C188.154 108.121 194.889 89.8196 186.667 88.9264C184.94 84.2972 175.584 83.8799 170.707 87.6224" fill="#263238"/>
<path d="M184.516 94.1685H181.256C181.142 94.1685 181.032 94.1232 180.952 94.0425C180.871 93.9618 180.826 93.8523 180.826 93.7382C180.827 93.6246 180.873 93.5161 180.954 93.4358C181.034 93.3554 181.142 93.3095 181.256 93.3079H184.516C184.63 93.3079 184.74 93.3532 184.82 93.4339C184.901 93.5146 184.946 93.6241 184.946 93.7382C184.947 93.7949 184.937 93.8513 184.915 93.9039C184.894 93.9565 184.862 94.0043 184.822 94.0444C184.782 94.0846 184.734 94.1162 184.682 94.1375C184.629 94.1588 184.573 94.1694 184.516 94.1685Z" fill="#407BFF"/>
<path d="M171.13 150.332C171.13 150.332 162.459 193.97 165.347 210.824C168.118 226.981 176.64 258.329 176.64 258.329L186.309 258.081C186.309 258.081 180.239 221.758 180.121 208.255C179.919 185.859 187.665 148.213 187.665 148.213L171.13 150.332Z" fill="#407BFF"/>
<path d="M176.033 258.831L187.221 258.525L186.53 254.854L174.41 255.473L176.033 258.831Z" fill="#263238"/>
<path opacity="0.3" d="M179.006 155.619L182.873 148.826L187.665 148.213C187.665 148.213 184.137 165.334 181.908 183.349C179.228 174.736 178.282 159.584 179.006 155.619Z" fill="black"/>
<path d="M176.04 149.764C176.04 149.764 182.892 186.681 189.001 207.76C193.93 224.784 214.625 247.982 214.625 247.982L221.94 244.311C221.94 244.311 208.053 218.609 204.61 207.043C193.598 170.035 202.211 156.584 193.683 147.437L176.04 149.764Z" fill="#407BFF"/>
<path d="M214.703 250.238L223.316 245.791L222.025 242.12L212.513 247.402L214.703 250.238Z" fill="#263238"/>
<path d="M193.879 146.048L195.183 147.939C195.281 148.082 195.118 148.271 194.857 148.304L171.17 151.342C170.967 151.342 170.785 151.29 170.759 151.16L170.296 149.165C170.296 149.028 170.426 148.884 170.648 148.858L193.514 145.924C193.58 145.913 193.648 145.919 193.712 145.941C193.775 145.962 193.833 145.999 193.879 146.048Z" fill="#407BFF"/>
<path opacity="0.4" d="M193.879 146.048L195.183 147.939C195.281 148.082 195.118 148.271 194.857 148.304L171.17 151.342C170.967 151.342 170.785 151.29 170.759 151.16L170.296 149.165C170.296 149.028 170.426 148.884 170.648 148.858L193.514 145.924C193.58 145.913 193.648 145.919 193.712 145.941C193.775 145.962 193.833 145.999 193.879 146.048Z" fill="white"/>
<path d="M191.134 149.021L191.747 148.937C191.87 148.937 191.955 148.852 191.936 148.774L191.284 146.166C191.284 146.087 191.153 146.042 191.029 146.055L190.416 146.133C190.299 146.133 190.214 146.224 190.227 146.302L190.879 148.91C190.899 148.982 191.036 149.034 191.134 149.021Z" fill="#263238"/>
<path d="M172.897 151.355L173.51 151.277C173.628 151.277 173.712 151.186 173.699 151.114L173.047 148.506C173.047 148.428 172.91 148.376 172.793 148.395L172.18 148.473C172.056 148.473 171.972 148.565 171.991 148.636L172.643 151.244C172.656 151.323 172.78 151.375 172.897 151.355Z" fill="#263238"/>
<path d="M182.012 150.188L182.625 150.11C182.749 150.11 182.834 150.019 182.814 149.941L182.195 147.333C182.195 147.261 182.058 147.209 181.94 147.222L181.328 147.3C181.204 147.3 181.119 147.391 181.139 147.469L181.758 150.077C181.777 150.156 181.908 150.201 182.012 150.188Z" fill="#263238"/>
<path d="M176.248 97.3632C176.164 97.8065 175.857 98.1195 175.596 98.0608C175.335 98.0021 175.14 97.6044 175.225 97.1611C175.309 96.7177 175.616 96.3982 175.877 96.4569C176.137 96.5156 176.333 96.9198 176.248 97.3632Z" fill="#263238"/>
<path d="M171.228 96.3983C171.143 96.8417 170.844 97.1547 170.576 97.096C170.309 97.0373 170.12 96.6396 170.205 96.1962C170.289 95.7529 170.596 95.4334 170.889 95.4921C171.183 95.5507 171.319 95.9485 171.228 96.3983Z" fill="#263238"/>
<path d="M170.987 95.5376L169.976 95.0291C169.976 95.0291 170.361 95.9679 170.987 95.5376Z" fill="#263238"/>
<path d="M172.558 97.3894C171.968 98.3257 171.253 99.1768 170.433 99.9192C170.628 100.125 170.865 100.285 171.129 100.39C171.392 100.495 171.675 100.541 171.958 100.526L172.558 97.3894Z" fill="#FF5652"/>
<path d="M173.654 102.736C173.632 102.722 173.615 102.702 173.605 102.679C173.594 102.656 173.591 102.63 173.595 102.605C173.601 102.57 173.621 102.539 173.65 102.518C173.68 102.497 173.716 102.489 173.751 102.494C174.301 102.614 174.871 102.603 175.415 102.46C175.959 102.317 176.461 102.047 176.881 101.673C176.906 101.649 176.94 101.635 176.975 101.635C177.011 101.635 177.045 101.649 177.07 101.673C177.083 101.684 177.093 101.699 177.1 101.714C177.107 101.73 177.11 101.747 177.11 101.764C177.11 101.781 177.107 101.798 177.1 101.814C177.093 101.83 177.083 101.844 177.07 101.855C176.622 102.267 176.08 102.564 175.492 102.721C174.904 102.877 174.286 102.889 173.693 102.755C173.678 102.753 173.664 102.746 173.654 102.736Z" fill="#263238"/>
<path d="M177.996 95.994C177.956 95.9692 177.924 95.9328 177.904 95.8897C177.766 95.5867 177.558 95.3206 177.298 95.1133C177.037 94.9059 176.731 94.7631 176.405 94.6965C176.37 94.6933 176.336 94.6831 176.305 94.6664C176.274 94.6498 176.247 94.6271 176.225 94.5997C176.203 94.5723 176.187 94.5408 176.178 94.507C176.168 94.4732 176.166 94.4379 176.17 94.4031C176.18 94.3339 176.216 94.2711 176.27 94.2275C176.325 94.1839 176.394 94.1627 176.464 94.1684C176.88 94.2423 177.271 94.4163 177.605 94.6752C177.939 94.9342 178.205 95.2704 178.38 95.655C178.412 95.7181 178.418 95.7913 178.396 95.8585C178.374 95.9257 178.326 95.9815 178.263 96.0135C178.22 96.0329 178.174 96.0412 178.127 96.0378C178.08 96.0344 178.035 96.0193 177.996 95.994Z" fill="#263238"/>
<path d="M169.474 93.7772V93.7315C169.464 93.6986 169.461 93.6639 169.464 93.6297C169.468 93.5954 169.478 93.5621 169.494 93.5318C169.511 93.5015 169.533 93.4747 169.56 93.4531C169.586 93.4314 169.617 93.4152 169.65 93.4055C170.051 93.2721 170.478 93.238 170.895 93.3061C171.312 93.3743 171.706 93.5426 172.043 93.7967C172.097 93.8425 172.132 93.9081 172.138 93.979C172.144 94.05 172.121 94.1204 172.076 94.1749C172.03 94.2293 171.964 94.2634 171.893 94.2695C171.822 94.2756 171.752 94.2533 171.697 94.2075C171.43 94.0093 171.118 93.8791 170.788 93.828C170.459 93.7769 170.122 93.8064 169.807 93.9141C169.744 93.9352 169.676 93.933 169.615 93.9078C169.554 93.8827 169.504 93.8363 169.474 93.7772Z" fill="#263238"/>
<path d="M195.711 118.905C196.454 119.707 197.073 120.437 197.706 121.233C198.338 122.028 198.945 122.804 199.538 123.606C200.705 125.223 201.807 126.866 202.798 128.62C203.829 130.356 204.751 132.154 205.556 134.006C205.771 134.469 205.947 134.951 206.143 135.42C206.338 135.89 206.521 136.366 206.684 136.855C206.847 137.344 207.016 137.8 207.186 138.341L207.421 139.215L207.59 140.082C207.881 142.253 207.804 144.457 207.362 146.602C206.955 148.604 206.377 150.567 205.634 152.47C204.907 154.321 204.086 156.133 203.176 157.901C202.263 159.653 201.258 161.355 200.164 163L197.712 161.553C198.482 159.897 199.238 158.143 199.884 156.402C200.558 154.677 201.143 152.918 201.637 151.134C202.131 149.408 202.49 147.647 202.713 145.865C202.812 145.019 202.86 144.168 202.857 143.316C202.841 142.526 202.756 141.738 202.602 140.962L202.472 140.428L202.309 139.919C202.179 139.554 201.983 139.104 201.82 138.707C201.657 138.309 201.474 137.885 201.279 137.474C201.083 137.063 200.914 136.659 200.699 136.262C199.897 134.645 198.951 133.086 197.999 131.528C197.047 129.97 195.978 128.477 194.876 127.01C194.335 126.266 193.774 125.536 193.201 124.819C192.627 124.102 192.027 123.378 191.486 122.759L195.711 118.905Z" fill="#FF8B7B"/>
<path d="M198.86 159.988L194.361 162.185L198.977 165.791C198.977 165.791 200.979 163.378 200.894 161.051L198.86 159.988Z" fill="#FF8B7B"/>
<path d="M192.223 166.645L196.148 168.679L198.945 165.791L194.329 162.185L192.223 166.645Z" fill="#FF8B7B"/>
<path d="M193.39 113.2C196.187 113.578 200.412 121.389 200.412 121.389L193.298 128.379C193.298 128.379 187.848 122.165 187.991 118.534C188.121 115.45 189.823 112.724 193.39 113.2Z" fill="#407BFF"/>
<g opacity="0.5">
<path d="M193.39 113.2C196.187 113.578 200.412 121.389 200.412 121.389L193.298 128.379C193.298 128.379 187.848 122.165 187.991 118.534C188.121 115.45 189.823 112.724 193.39 113.2Z" fill="white"/>
</g>
<path d="M217.116 256.236C217.086 256.24 217.055 256.24 217.025 256.236C216.9 256.202 216.787 256.135 216.695 256.044C216.604 255.953 216.538 255.839 216.503 255.715C216.472 255.641 216.461 255.561 216.472 255.482C216.482 255.403 216.513 255.328 216.562 255.265C217.005 254.697 219.026 254.887 219.255 254.906C219.281 254.909 219.305 254.92 219.325 254.938C219.345 254.955 219.359 254.978 219.365 255.004C219.372 255.028 219.372 255.054 219.365 255.078C219.358 255.102 219.345 255.124 219.326 255.141C218.766 255.584 217.768 256.301 217.116 256.236ZM218.902 255.128C218.094 255.076 217.005 255.128 216.77 255.408C216.753 255.438 216.744 255.472 216.744 255.506C216.744 255.54 216.753 255.574 216.77 255.604C216.791 255.688 216.833 255.765 216.892 255.828C216.952 255.891 217.027 255.937 217.109 255.962C217.442 256.028 218.114 255.721 218.883 255.095L218.902 255.128Z" fill="#407BFF"/>
<path d="M219.072 255.108C218.42 255.01 217.116 254.456 216.966 253.882C216.935 253.781 216.941 253.673 216.981 253.576C217.022 253.478 217.094 253.398 217.188 253.348C217.269 253.286 217.364 253.244 217.465 253.226C217.566 253.208 217.67 253.214 217.768 253.244C218.557 253.439 219.313 254.867 219.346 254.926C219.357 254.947 219.363 254.97 219.363 254.994C219.363 255.018 219.357 255.042 219.346 255.063C219.333 255.081 219.315 255.097 219.294 255.107C219.274 255.117 219.251 255.122 219.228 255.121L219.072 255.108ZM217.65 253.491C217.596 253.482 217.541 253.484 217.487 253.496C217.433 253.508 217.382 253.531 217.337 253.563C217.201 253.661 217.201 253.746 217.22 253.804C217.331 254.182 218.309 254.691 218.981 254.828C218.707 254.365 218.179 253.615 217.677 253.524L217.65 253.491Z" fill="#407BFF"/>
<path d="M176.842 265.918C176.386 265.951 175.931 265.844 175.538 265.612C175.436 265.535 175.354 265.437 175.296 265.324C175.239 265.211 175.207 265.087 175.205 264.96C175.196 264.89 175.206 264.818 175.235 264.754C175.263 264.689 175.31 264.634 175.368 264.595C175.975 264.19 178.237 265.247 178.687 265.429C178.711 265.44 178.732 265.459 178.745 265.482C178.757 265.506 178.762 265.533 178.759 265.56C178.756 265.588 178.745 265.615 178.726 265.636C178.707 265.657 178.682 265.671 178.654 265.677C178.06 265.818 177.453 265.899 176.842 265.918ZM175.785 264.771C175.695 264.765 175.604 264.785 175.525 264.829C175.506 264.843 175.491 264.862 175.481 264.884C175.472 264.906 175.469 264.93 175.473 264.953C175.475 265.04 175.497 265.126 175.538 265.203C175.578 265.28 175.636 265.346 175.707 265.397C176.098 265.69 177.011 265.729 178.204 265.514C177.442 265.142 176.626 264.891 175.785 264.771Z" fill="#407BFF"/>
<path d="M178.648 265.69H178.596C177.846 265.384 176.333 264.171 176.418 263.538C176.418 263.402 176.529 263.232 176.874 263.193C178.178 263.036 178.752 265.436 178.778 265.534C178.784 265.558 178.783 265.584 178.775 265.609C178.767 265.633 178.752 265.654 178.733 265.67C178.707 265.686 178.677 265.693 178.648 265.69ZM176.992 263.441H176.907C176.764 263.441 176.692 263.499 176.679 263.565C176.633 263.93 177.676 264.869 178.446 265.305C178.257 264.712 177.774 263.441 176.979 263.441H176.992Z" fill="#407BFF"/>
<path d="M176.001 96.4961L174.997 95.9875C174.997 95.9875 175.388 96.9329 176.001 96.4961Z" fill="#263238"/>
<path d="M76.1797 266.023L81.4153 265.944L82.6149 253.804L77.3859 253.882L76.1797 266.023Z" fill="#B55B52"/>
<path d="M50.269 266.042H55.5046L57.5584 253.921H52.3294L50.269 266.042Z" fill="#B55B52"/>
<path d="M56.2284 265.436H49.8453C49.7416 265.436 49.6413 265.472 49.5607 265.537C49.4801 265.603 49.4241 265.693 49.4019 265.794L48.3652 270.45C48.3417 270.563 48.344 270.68 48.3719 270.792C48.3999 270.905 48.4528 271.009 48.5268 271.098C48.6007 271.187 48.6937 271.258 48.799 271.306C48.9042 271.354 49.0189 271.378 49.1346 271.376C51.1884 271.343 52.6815 271.219 55.2699 271.219C56.8608 271.219 61.6595 271.389 63.8568 271.389C66.054 271.389 66.3409 269.217 65.4411 269.015C61.4052 268.135 58.3669 266.922 57.076 265.755C56.8407 265.551 56.54 265.438 56.2284 265.436Z" fill="#263238"/>
<path d="M81.3697 265.364L75.6516 265.455C75.5485 265.455 75.4484 265.491 75.3687 265.556C75.2889 265.621 75.2345 265.713 75.2148 265.814L74.2498 270.482C74.2248 270.595 74.226 270.713 74.2535 270.825C74.281 270.938 74.3339 271.042 74.4082 271.131C74.4826 271.22 74.5763 271.291 74.6823 271.338C74.7882 271.384 74.9035 271.406 75.0192 271.402C77.0795 271.336 80.0592 271.167 82.6476 271.128C85.6794 271.082 88.3004 271.206 91.8473 271.128C93.9989 271.095 94.5596 268.917 93.6599 268.735C89.5523 267.9 86.2075 267.855 82.6346 265.729C82.2544 265.494 81.8168 265.367 81.3697 265.364Z" fill="#263238"/>
<path d="M85.3009 106.641C86.9831 109.79 88.7631 113.031 90.5561 116.167C92.3491 119.303 94.2203 122.42 96.2154 125.295C96.4567 125.666 96.7175 126.006 96.9717 126.351L97.3499 126.866L97.5194 127.101L97.5846 127.192C97.7474 127.428 97.9734 127.613 98.2366 127.727C98.9408 128.033 100.427 127.994 101.927 127.636C103.549 127.224 105.13 126.67 106.654 125.979C107.449 125.621 108.258 125.262 109.047 124.858C109.836 124.454 110.644 124.023 111.374 123.632L113.806 126.723C113.063 127.459 112.352 128.079 111.583 128.679C110.814 129.279 110.051 129.911 109.229 130.472C107.546 131.665 105.733 132.662 103.824 133.445C102.771 133.865 101.679 134.18 100.564 134.384C99.2422 134.614 97.8887 134.594 96.574 134.325C95.0259 134.001 93.6029 133.241 92.4729 132.134C92.3295 131.997 92.1991 131.854 92.0687 131.711L91.8014 131.404L91.3124 130.83C90.9864 130.452 90.6604 130.067 90.3539 129.683C87.9608 126.655 85.7571 123.483 83.7557 120.183C81.7997 116.923 79.935 113.663 78.2202 110.201L85.3009 106.641Z" fill="#B65B52"/>
<path d="M75.9778 106.798C74.5629 111.596 84.4994 124.682 84.4994 124.682L94.5402 118.24C92.6553 114.091 90.3295 110.156 87.6029 106.504C83.4562 101.243 77.523 101.529 75.9778 106.798Z" fill="#407BFF"/>
<path opacity="0.2" d="M75.9778 106.798C74.5629 111.596 84.4994 124.682 84.4994 124.682L94.5402 118.24C92.6553 114.091 90.3295 110.156 87.6029 106.504C83.4562 101.243 77.523 101.529 75.9778 106.798Z" fill="white"/>
<path opacity="0.2" d="M82.0801 112.431C84.1404 113.311 87.1722 118.299 88.75 121.95L84.499 124.682C82.1241 121.506 79.9883 118.159 78.1094 114.667C79.4525 113.194 80.9912 111.968 82.0801 112.431Z" fill="black"/>
<path d="M110.944 123.88L114.596 121.709L117.725 127.147C117.725 127.147 113.663 129.526 111.036 126.762L110.944 123.88Z" fill="#B55B52"/>
<path d="M119.701 121.761L121.337 125.954L117.725 127.147L114.596 121.709L119.701 121.761Z" fill="#B55B52"/>
<path opacity="0.2" d="M82.6147 253.804L81.9953 260.063L76.7598 260.148L77.3792 253.889L82.6147 253.804Z" fill="black"/>
<path opacity="0.2" d="M52.323 253.928H57.5586L56.4958 260.174H51.2603L52.323 253.928Z" fill="black"/>
<path d="M52.6489 104.672C58.2822 124.532 57.3759 145.644 57.715 149.96L85.6858 148.91C90.4388 119.277 81.9042 102.781 81.9042 102.781C81.9042 102.781 80.1112 102.436 77.6727 102.181C76.9033 102.103 76.0818 102.038 75.2212 101.992C74.7452 101.992 74.2627 101.947 73.7737 101.94C69.8161 102 65.8651 102.285 61.9399 102.794C61.1901 102.886 60.4338 103.003 59.7036 103.12C58.9733 103.238 58.3539 103.362 57.7476 103.485C54.8462 104.053 52.6489 104.672 52.6489 104.672Z" fill="#407BFF"/>
<path opacity="0.2" d="M52.6489 104.672C58.2822 124.532 57.3759 145.644 57.715 149.96L85.6858 148.91C90.4388 119.277 81.9042 102.781 81.9042 102.781C81.9042 102.781 80.1112 102.436 77.6727 102.181C76.9033 102.103 76.0818 102.038 75.2212 101.992C74.7452 101.992 74.2627 101.947 73.7737 101.94C69.8161 102 65.8651 102.285 61.9399 102.794C61.1901 102.886 60.4338 103.003 59.7036 103.12C58.9733 103.238 58.3539 103.362 57.7476 103.485C54.8462 104.053 52.6489 104.672 52.6489 104.672Z" fill="white"/>
<path opacity="0.2" d="M58.6017 113.2C59.1037 115.124 58.53 123.9 56.5218 126.064C56.248 123.254 55.8698 120.32 55.4004 117.321L58.6017 113.2Z" fill="black"/>
<path d="M75.4168 101.979H75.2146C74.7387 101.979 74.2562 101.934 73.7672 101.927C69.7982 101.995 65.8363 102.289 61.9008 102.807C61.327 102.879 60.7533 102.964 60.186 103.055L61.0532 103.798C63.6221 105.996 66.6148 108.03 71.0484 108.03H71.6156C73.878 107.939 75.3255 107.202 75.9318 105.826C76.1591 105.19 76.2309 104.509 76.1413 103.84C76.0517 103.171 75.8033 102.533 75.4168 101.979Z" fill="white"/>
<path d="M62.0898 89.324C63.12 93.086 64.3848 100.03 61.9072 102.775C64.1371 104.685 67.0254 106.863 71.5699 106.687C76.1143 106.511 75.0907 103.427 73.7736 101.895C69.4378 101.19 69.3139 98.0217 69.8616 95.0029L62.0898 89.324Z" fill="#B55B52"/>
<path opacity="0.2" d="M65.2454 91.6648L69.8094 95.0226C69.6792 95.726 69.6094 96.4393 69.6008 97.1546C67.9577 97.0373 65.591 95.4203 65.291 93.7316C65.1493 93.0513 65.1339 92.3507 65.2454 91.6648Z" fill="black"/>
<path d="M73.1411 85.6923C74.6277 87.205 77.3596 78.9572 74.4451 76.9555C71.5307 74.9539 65.8518 78.24 73.1411 85.6923Z" fill="#263238"/>
<path d="M61.2033 83.632C61.9075 88.7763 62.0574 91.8277 64.8675 94.2857C69.0925 97.9825 75.2995 95.1398 76.1471 89.8912C76.91 85.1642 75.6321 77.5423 70.4226 75.8602C69.2746 75.4837 68.0494 75.407 66.8634 75.6372C65.6774 75.8675 64.5699 76.3971 63.6462 77.1758C62.7225 77.9545 62.0132 78.9564 61.5856 80.0864C61.158 81.2164 61.0264 82.4369 61.2033 83.632Z" fill="#B55B52"/>
<path d="M61.8748 88.2938C63.5635 89.5978 65.0436 81.0109 61.8748 79.4657C58.7061 77.9205 53.5292 82.015 61.8748 88.2938Z" fill="#263238"/>
<path d="M59.8925 80.6329C64.8542 82.3346 78.8005 80.7502 76.3359 70.5986C75.2862 66.2172 70.5396 69.9466 70.2136 72.372C67.7882 70.3769 63.2829 70.8138 63.811 74.002C61.1965 73.2392 51.3121 75.632 59.8925 80.6329Z" fill="#263238"/>
<path d="M59.2928 89.5066C59.6799 90.0319 60.1674 90.4753 60.727 90.811C61.2865 91.1468 61.9071 91.3682 62.5528 91.4626C64.2676 91.7103 64.9 90.1195 64.235 88.6198C63.6352 87.2702 62.0247 85.5163 60.3947 85.9597C58.7647 86.403 58.354 88.2091 59.2928 89.5066Z" fill="#B55B52"/>
<path d="M83.9383 258.844L75.0776 258.981C75.0776 258.981 78.0312 223.975 77.2358 207.688C76.9945 202.733 75.997 195.802 74.6864 188.376C73.0369 179.013 72.2414 175.284 70.1224 163.456C68.5968 155.02 67.3188 149.595 67.3188 149.595L85.7052 148.904C85.7052 148.904 91.3711 190.058 91.1951 206.026C90.993 222.612 83.9383 258.844 83.9383 258.844Z" fill="#263238"/>
<path opacity="0.2" d="M73.6758 160.392C76.9749 168.607 77.0401 187.854 75.521 193.272C75.2602 191.669 74.9798 190.012 74.6864 188.356C73.0303 178.994 72.2349 175.264 70.1224 163.437C70.0833 163.202 70.0377 162.974 69.9985 162.746C71.0794 161.755 72.3235 160.959 73.6758 160.392Z" fill="black"/>
<path d="M75.7688 149.256C75.7688 149.256 72.4306 192.633 69.9725 207.773C67.2863 224.347 58.9277 258.961 58.9277 258.961H49.3433C49.3433 258.961 52.5055 227.665 54.468 211.365C56.6978 192.849 57.728 149.914 57.728 149.914L75.7688 149.256Z" fill="#263238"/>
<path d="M60.0752 259.17H48.7891V255.799L61.4053 255.578L60.0752 259.17Z" fill="#407BFF"/>
<path opacity="0.5" d="M60.0752 259.17H48.7891V255.799L61.4053 255.578L60.0752 259.17Z" fill="white"/>
<path d="M85.0535 259.013L74.4976 259.176L74.439 255.766L86.2402 255.401L85.0535 259.013Z" fill="#407BFF"/>
<path opacity="0.5" d="M85.0535 259.013L74.4976 259.176L74.439 255.766L86.2402 255.401L85.0535 259.013Z" fill="white"/>
<path d="M69.1578 84.4928C69.1578 84.9166 69.4382 85.2426 69.712 85.2165C69.9859 85.1905 70.1814 84.8384 70.1488 84.4211C70.1162 84.0038 69.875 83.6778 69.5947 83.6974C69.3143 83.7169 69.1122 84.1081 69.1578 84.4928Z" fill="#263238"/>
<path d="M73.9105 84.1407C73.9105 84.5645 74.1909 84.884 74.4713 84.8644C74.7516 84.8448 74.9407 84.4862 74.9081 84.069C74.8755 83.6517 74.6277 83.3192 74.3539 83.3387C74.0801 83.3583 73.8845 83.7169 73.9105 84.1407Z" fill="#263238"/>
<path d="M72.4175 84.4602C73.0136 85.7111 73.7793 86.874 74.693 87.9158C74.424 88.1389 74.1098 88.301 73.7721 88.3911C73.4345 88.4811 73.0813 88.4969 72.737 88.4374L72.4175 84.4602Z" fill="#A02724"/>
<path d="M71.0226 89.6957C70.5485 89.6762 70.0834 89.5597 69.6561 89.3534C69.2288 89.147 68.8484 88.8552 68.5385 88.496C68.5186 88.4692 68.5101 88.4356 68.515 88.4026C68.5199 88.3695 68.5377 88.3398 68.5645 88.3199C68.5913 88.3001 68.6249 88.2916 68.6579 88.2965C68.691 88.3014 68.7207 88.3192 68.7406 88.346C69.0902 88.7384 69.5275 89.0428 70.0169 89.2342C70.5064 89.4257 71.0341 89.4989 71.5572 89.4479C71.589 89.4461 71.6203 89.4565 71.6446 89.4772C71.6689 89.4978 71.6843 89.527 71.6876 89.5587C71.6894 89.5755 71.6877 89.5925 71.6827 89.6086C71.6777 89.6248 71.6695 89.6397 71.6585 89.6525C71.6475 89.6654 71.634 89.6758 71.6188 89.6832C71.6037 89.6906 71.5871 89.6949 71.5702 89.6957C71.3879 89.7087 71.2049 89.7087 71.0226 89.6957Z" fill="#263238"/>
<path d="M67.5732 83.0649C67.5309 83.0649 67.4897 83.0512 67.4558 83.0258C67.4008 82.9909 67.3618 82.9358 67.3472 82.8723C67.3325 82.8089 67.3434 82.7422 67.3776 82.6868C67.5853 82.3484 67.8716 82.0651 68.2121 81.8608C68.5525 81.6565 68.9372 81.5373 69.3336 81.5132C69.3993 81.5132 69.4623 81.5393 69.5088 81.5858C69.5552 81.6322 69.5813 81.6952 69.5813 81.7609C69.5813 81.8267 69.5552 81.8897 69.5088 81.9361C69.4623 81.9826 69.3993 82.0087 69.3336 82.0087C69.0223 82.0331 68.7213 82.1316 68.4559 82.2961C68.1905 82.4606 67.9683 82.6862 67.8079 82.9541C67.784 82.9936 67.749 83.0252 67.7073 83.0449C67.6655 83.0646 67.6189 83.0716 67.5732 83.0649Z" fill="#263238"/>
<path d="M75.8404 82.354C75.8002 82.3509 75.7613 82.3379 75.7272 82.3164C75.6931 82.2948 75.6648 82.2652 75.6448 82.2302C75.4948 81.9567 75.2827 81.7223 75.0257 81.5457C74.7686 81.369 74.4738 81.2551 74.1648 81.213C74.099 81.213 74.036 81.1869 73.9896 81.1405C73.9431 81.094 73.917 81.031 73.917 80.9653C73.917 80.8996 73.9431 80.8366 73.9896 80.7901C74.036 80.7436 74.099 80.7175 74.1648 80.7175C74.5553 80.7628 74.9294 80.9006 75.2559 81.1194C75.5825 81.3383 75.8522 81.6319 76.0425 81.9759C76.0598 82.0039 76.0711 82.0351 76.0758 82.0677C76.0806 82.1002 76.0786 82.1334 76.07 82.1651C76.0615 82.1969 76.0466 82.2265 76.0261 82.2523C76.0057 82.2781 75.9802 82.2994 75.9512 82.3149C75.9178 82.3364 75.8799 82.3498 75.8404 82.354Z" fill="#263238"/>
<path d="M57.9564 266.355C57.4945 266.342 57.0354 266.279 56.5872 266.166C56.5633 266.16 56.5419 266.146 56.5256 266.128C56.5093 266.109 56.499 266.086 56.4959 266.062C56.4924 266.038 56.4961 266.013 56.5066 265.991C56.517 265.969 56.5337 265.95 56.5546 265.938C56.7437 265.821 58.4323 264.784 59.0126 265.077C59.0751 265.113 59.1273 265.164 59.1639 265.225C59.2005 265.287 59.2203 265.358 59.2213 265.429C59.2357 265.551 59.22 265.673 59.1757 265.787C59.1313 265.901 59.0596 266.002 58.967 266.081C58.6696 266.282 58.3143 266.378 57.9564 266.355ZM56.9458 266.016C57.839 266.192 58.5171 266.16 58.804 265.918C58.8681 265.865 58.9173 265.797 58.947 265.719C58.9767 265.641 58.9859 265.557 58.9735 265.475C58.9754 265.445 58.9692 265.415 58.9554 265.389C58.9416 265.363 58.9208 265.34 58.8953 265.325C58.5953 265.142 57.6369 265.592 56.9458 266.016Z" fill="#407BFF"/>
<path d="M56.6197 266.166C56.5962 266.173 56.5714 266.173 56.548 266.166C56.5293 266.155 56.5145 266.138 56.5052 266.118C56.4959 266.099 56.4926 266.077 56.4958 266.055C56.4958 265.99 56.6262 264.477 57.2326 263.982C57.3038 263.919 57.388 263.872 57.4793 263.845C57.5705 263.818 57.6666 263.811 57.7607 263.825C57.8528 263.825 57.9422 263.857 58.0135 263.915C58.0849 263.973 58.1338 264.054 58.1519 264.145C58.2627 264.732 57.2195 265.879 56.6784 266.172L56.6197 266.166ZM57.6759 264.06C57.5697 264.059 57.4671 264.099 57.389 264.171C57.0114 264.638 56.7841 265.208 56.737 265.807C57.2782 265.397 57.9432 264.503 57.878 264.19C57.878 264.158 57.878 264.08 57.6955 264.06H57.6433H57.6759Z" fill="#407BFF"/>
<path d="M81.8911 266.055C81.87 266.046 81.8517 266.032 81.838 266.014C81.8242 265.995 81.8156 265.974 81.8128 265.951C81.8073 265.927 81.8101 265.901 81.8207 265.879C81.8314 265.856 81.8493 265.838 81.8715 265.827C82.1128 265.697 84.1991 264.601 84.8381 264.94C84.8983 264.973 84.949 265.021 84.9855 265.08C85.022 265.138 85.0431 265.204 85.0468 265.273C85.062 265.384 85.0497 265.498 85.0111 265.603C84.9724 265.709 84.9086 265.804 84.8251 265.879C84.2578 266.394 82.7582 266.212 81.9106 266.055H81.8911ZM84.6751 265.142C84.2774 265.012 83.1429 265.462 82.3214 265.873C83.482 266.049 84.3426 265.983 84.6555 265.697C84.7112 265.647 84.7535 265.583 84.7785 265.513C84.8036 265.442 84.8106 265.366 84.799 265.292C84.7995 265.265 84.7924 265.239 84.7786 265.216C84.7647 265.193 84.7447 265.174 84.7208 265.162L84.6751 265.142Z" fill="#407BFF"/>
<path d="M81.8912 266.055C81.8729 266.043 81.8579 266.027 81.8477 266.007C81.8374 265.988 81.8322 265.966 81.8325 265.944C81.8325 265.886 81.9564 264.471 82.6149 263.917C82.7035 263.838 82.8068 263.778 82.9187 263.74C83.0306 263.702 83.149 263.687 83.2669 263.695C83.606 263.695 83.7103 263.891 83.7364 264.034C83.8407 264.621 82.6084 265.775 81.976 266.068C81.9471 266.073 81.9175 266.068 81.8912 266.055ZM83.3778 263.943H83.2539C83.163 263.934 83.0714 263.945 82.9849 263.974C82.8984 264.003 82.819 264.05 82.7519 264.112C82.3727 264.573 82.145 265.14 82.0999 265.736C82.7519 265.338 83.5734 264.432 83.5082 264.08C83.4951 264.06 83.456 263.975 83.3778 263.943Z" fill="#407BFF"/>
<path d="M58.4387 111.394L53.5227 122.107C52.7207 123.9 51.8992 125.68 51.1363 127.479C50.7582 128.372 50.3539 129.266 49.9953 130.159L49.715 130.811C49.6237 131.039 49.5715 131.196 49.4998 131.385C49.3499 131.75 49.2521 132.154 49.1282 132.539C48.6868 134.206 48.4461 135.92 48.411 137.644C48.3527 139.485 48.4268 141.329 48.6327 143.16C48.8348 145.024 49.1412 146.909 49.5324 148.787C49.9236 150.664 50.3931 152.581 50.9016 154.361L47.2961 155.926C46.7679 154.948 46.3311 154.042 45.9073 153.077C45.4835 152.112 45.0923 151.166 44.7207 150.188C43.9787 148.222 43.3645 146.209 42.882 144.164C41.7727 139.856 41.5707 135.364 42.2887 130.974C42.4191 130.4 42.5299 129.82 42.7125 129.24L42.9603 128.392L43.2015 127.655C43.5145 126.671 43.8535 125.699 44.1795 124.734C44.8706 122.778 45.5748 120.9 46.3376 119.023C47.8437 115.241 49.4803 111.577 51.3059 107.939L58.4387 111.394Z" fill="#B65B52"/>
<path d="M52.6492 104.672C47.8765 106.172 43.1821 122.361 43.1821 122.361L54.227 127.192C54.227 127.192 57.8 119.368 59.8538 113.239C62.0966 106.556 58.4324 102.859 52.6492 104.672Z" fill="#407BFF"/>
<path opacity="0.2" d="M52.6492 104.672C47.8765 106.172 43.1821 122.361 43.1821 122.361L54.227 127.192C54.227 127.192 57.8 119.368 59.8538 113.239C62.0966 106.556 58.4324 102.859 52.6492 104.672Z" fill="white"/>
<path d="M50.6083 153.474L53.1837 158.123L47.1136 159.701C47.1136 159.701 45.275 155.196 47.4461 153.761L50.6083 153.474Z" fill="#B55B52"/>
<path d="M53.6333 163.398L48.0587 163.861L47.1133 159.701L53.1834 158.123L53.6333 163.398Z" fill="#B55B52"/>
<path d="M163 184.092C162.953 185.706 162.279 187.238 161.122 188.364C159.964 189.49 158.414 190.121 156.8 190.123H140.395C141.75 191.999 142.559 194.213 142.735 196.52C142.912 198.827 142.447 201.138 141.394 203.198C140.34 205.258 138.738 206.987 136.764 208.194C134.79 209.402 132.522 210.041 130.208 210.041C127.894 210.041 125.625 209.402 123.652 208.194C121.678 206.987 120.076 205.258 119.022 203.198C117.968 201.138 117.504 198.827 117.68 196.52C117.856 194.213 118.666 191.999 120.02 190.123H103.61C101.968 190.12 100.394 189.466 99.2335 188.305C98.0727 187.144 97.419 185.571 97.4155 183.929V130.739C97.419 129.097 98.0724 127.523 99.2331 126.361C100.394 125.199 101.967 124.544 103.61 124.539H156.8C158.414 124.543 159.964 125.176 161.12 126.303C162.276 127.43 162.948 128.962 162.994 130.576V147.143C161.118 145.793 158.906 144.986 156.601 144.812C154.296 144.638 151.988 145.104 149.931 146.158C147.874 147.211 146.148 148.812 144.942 150.784C143.737 152.756 143.099 155.023 143.099 157.334C143.099 159.645 143.737 161.912 144.942 163.884C146.148 165.856 147.874 167.457 149.931 168.511C151.988 169.565 154.296 170.03 156.601 169.856C158.906 169.682 161.118 168.875 162.994 167.525V183.929C162.993 183.984 162.995 184.038 163 184.092Z" fill="#01396C"/>
<path opacity="0.3" d="M130.205 208.125C128.239 208.13 126.309 207.591 124.63 206.568C122.952 205.544 121.588 204.077 120.692 202.327C119.795 200.577 119.399 198.614 119.549 196.653C119.699 194.693 120.388 192.812 121.54 191.218L123.678 188.252H103.61C102.465 188.248 101.368 187.792 100.559 186.982C99.7503 186.171 99.2952 185.074 99.2935 183.929V130.739C99.2935 129.593 99.7478 128.494 100.557 127.682C101.366 126.871 102.464 126.413 103.61 126.41H156.8C157.925 126.417 159.003 126.86 159.809 127.645C160.615 128.431 161.086 129.497 161.123 130.622V143.851C161.122 143.864 161.118 143.877 161.111 143.888C161.104 143.899 161.095 143.909 161.083 143.916C161.071 143.922 161.058 143.925 161.044 143.925C161.031 143.925 161.017 143.922 161.005 143.916C159.312 143.236 157.503 142.889 155.678 142.892C153.757 142.851 151.847 143.194 150.061 143.901C148.274 144.608 146.646 145.665 145.273 147.009C143.9 148.353 142.809 149.958 142.065 151.729C141.32 153.501 140.936 155.403 140.936 157.324C140.936 159.246 141.32 161.148 142.065 162.919C142.809 164.69 143.9 166.295 145.273 167.639C146.646 168.984 148.274 170.04 150.061 170.747C151.847 171.454 153.757 171.797 155.678 171.756C157.503 171.762 159.312 171.414 161.005 170.733C161.017 170.726 161.031 170.723 161.044 170.723C161.058 170.723 161.071 170.726 161.083 170.733C161.095 170.74 161.104 170.749 161.111 170.761C161.118 170.772 161.122 170.785 161.123 170.798V184.099C161.061 185.208 160.581 186.252 159.778 187.02C158.975 187.787 157.911 188.221 156.8 188.232H136.751L138.87 191.192C138.885 191.208 138.893 191.229 138.893 191.251C138.893 191.273 138.885 191.294 138.87 191.31C138.863 191.317 138.854 191.323 138.844 191.327C138.835 191.331 138.825 191.333 138.814 191.333C138.804 191.333 138.794 191.331 138.784 191.327C138.775 191.323 138.766 191.317 138.759 191.31L136.542 188.213C136.534 188.2 136.53 188.185 136.53 188.17C136.53 188.155 136.534 188.141 136.542 188.128C136.55 188.116 136.561 188.106 136.573 188.099C136.586 188.092 136.6 188.089 136.614 188.089H156.826C157.893 188.076 158.915 187.659 159.687 186.922C160.459 186.185 160.923 185.183 160.986 184.118V170.935C159.303 171.592 157.511 171.928 155.705 171.926C153.558 171.929 151.437 171.459 149.493 170.549C147.549 169.639 145.829 168.311 144.457 166.66C143.084 165.01 142.093 163.077 141.553 160.999C141.013 158.921 140.938 156.75 141.333 154.64C141.728 152.53 142.584 150.533 143.839 148.792C145.094 147.05 146.718 145.607 148.595 144.565C150.471 143.523 152.555 142.907 154.697 142.763C156.838 142.618 158.986 142.947 160.986 143.727V130.628C160.95 129.546 160.498 128.519 159.722 127.763C158.947 127.007 157.909 126.581 156.826 126.573H103.61C103.063 126.574 102.523 126.682 102.018 126.892C101.514 127.102 101.056 127.409 100.67 127.796C100.285 128.183 99.9789 128.642 99.7706 129.147C99.5624 129.652 99.4556 130.193 99.4565 130.739V183.929C99.4565 185.031 99.8938 186.088 100.673 186.868C101.451 187.648 102.508 188.087 103.61 188.089H123.822C123.836 188.087 123.851 188.09 123.864 188.097C123.876 188.104 123.887 188.115 123.893 188.128C123.902 188.141 123.906 188.155 123.906 188.17C123.906 188.185 123.902 188.2 123.893 188.213L121.664 191.316C120.368 193.097 119.67 195.243 119.668 197.445C119.668 200.236 120.777 202.913 122.751 204.886C124.724 206.86 127.401 207.968 130.192 207.968C132.983 207.968 135.659 206.86 137.633 204.886C139.606 202.913 140.715 200.236 140.715 197.445C140.715 197.424 140.723 197.404 140.738 197.39C140.753 197.375 140.773 197.367 140.793 197.367C140.804 197.366 140.815 197.367 140.825 197.371C140.835 197.374 140.845 197.38 140.853 197.387C140.861 197.395 140.867 197.404 140.872 197.414C140.876 197.423 140.878 197.434 140.878 197.445C140.873 200.275 139.747 202.987 137.747 204.989C135.746 206.99 133.035 208.118 130.205 208.125Z" fill="white"/>
<path d="M222.391 124.532H205.993C207.343 126.409 208.148 128.622 208.321 130.927C208.494 133.233 208.028 135.541 206.973 137.598C205.919 139.656 204.317 141.382 202.344 142.588C200.371 143.793 198.104 144.431 195.793 144.431C193.481 144.431 191.214 143.793 189.241 142.588C187.268 141.382 185.667 139.656 184.612 137.598C183.557 135.541 183.091 133.233 183.264 130.927C183.437 128.622 184.242 126.409 185.592 124.532H169.194C167.552 124.537 165.979 125.191 164.818 126.351C163.656 127.512 163.001 129.084 162.994 130.726V147.137C161.118 145.786 158.906 144.98 156.601 144.806C154.296 144.632 151.988 145.097 149.931 146.151C147.874 147.205 146.148 148.806 144.942 150.778C143.737 152.75 143.099 155.016 143.099 157.328C143.099 159.639 143.737 161.905 144.942 163.877C146.148 165.849 147.874 167.45 149.931 168.504C151.988 169.558 154.296 170.023 156.601 169.849C158.906 169.676 161.118 168.869 162.994 167.518V183.929C162.999 185.572 163.654 187.146 164.815 188.308C165.977 189.47 167.551 190.125 169.194 190.13H222.391C224.033 190.125 225.607 189.469 226.767 188.308C227.928 187.146 228.581 185.571 228.585 183.929V130.732C228.581 129.09 227.928 127.516 226.767 126.354C225.607 125.192 224.033 124.537 222.391 124.532Z" fill="#C63B3A"/>
<path opacity="0.3" d="M222.391 188.252H169.194C168.048 188.252 166.948 187.796 166.137 186.986C165.327 186.175 164.871 185.076 164.871 183.929V163.861L161.905 165.999C160.311 167.149 158.43 167.836 156.471 167.984C154.511 168.132 152.549 167.737 150.8 166.84C149.051 165.944 147.584 164.582 146.56 162.904C145.536 161.227 144.996 159.299 144.998 157.334C144.997 157.323 144.999 157.312 145.002 157.302C145.006 157.292 145.011 157.282 145.019 157.274C145.026 157.266 145.035 157.26 145.045 157.256C145.055 157.251 145.066 157.249 145.077 157.249C145.099 157.249 145.121 157.258 145.136 157.274C145.152 157.29 145.161 157.312 145.161 157.334C145.159 159.269 145.691 161.167 146.699 162.819C147.706 164.47 149.151 165.812 150.873 166.695C152.594 167.577 154.527 167.967 156.456 167.822C158.386 167.676 160.237 167 161.807 165.869L164.904 163.639C164.916 163.631 164.93 163.626 164.945 163.626C164.96 163.625 164.974 163.628 164.988 163.634C165.001 163.641 165.012 163.651 165.02 163.663C165.028 163.675 165.033 163.689 165.034 163.704V183.916C165.034 185.019 165.473 186.077 166.253 186.857C167.033 187.638 168.091 188.076 169.194 188.076H222.391C223.494 188.076 224.552 187.638 225.332 186.857C226.112 186.077 226.55 185.019 226.55 183.916V130.732C226.549 129.63 226.11 128.573 225.33 127.793C224.55 127.013 223.493 126.574 222.391 126.573H209.403C210.261 128.785 210.567 131.173 210.294 133.53C210.021 135.886 209.178 138.141 207.837 140.099C206.497 142.057 204.7 143.658 202.601 144.765C200.502 145.871 198.165 146.45 195.792 146.45C193.42 146.45 191.083 145.871 188.984 144.765C186.885 143.658 185.088 142.057 183.747 140.099C182.407 138.141 181.564 135.886 181.291 133.53C181.018 131.173 181.324 128.785 182.182 126.573H169.194C168.091 126.574 167.034 127.013 166.255 127.793C165.475 128.573 165.036 129.63 165.034 130.732V150.944C165.034 150.96 165.029 150.976 165.021 150.989C165.013 151.003 165.002 151.014 164.989 151.023C164.975 151.029 164.961 151.032 164.946 151.032C164.932 151.032 164.917 151.029 164.904 151.023L161.807 148.793C160.025 147.5 157.88 146.804 155.678 146.804C155.657 146.804 155.637 146.796 155.623 146.781C155.608 146.767 155.6 146.747 155.6 146.726C155.599 146.715 155.6 146.704 155.604 146.694C155.607 146.684 155.613 146.674 155.62 146.666C155.628 146.658 155.637 146.652 155.647 146.648C155.656 146.643 155.667 146.641 155.678 146.641C157.914 146.64 160.093 147.345 161.905 148.656L164.871 150.794V130.732C164.873 129.586 165.329 128.488 166.139 127.678C166.95 126.867 168.048 126.411 169.194 126.41H182.299C182.313 126.41 182.327 126.414 182.34 126.421C182.352 126.428 182.363 126.437 182.371 126.449C182.376 126.46 182.378 126.472 182.378 126.485C182.378 126.497 182.376 126.509 182.371 126.521C181.693 128.219 181.348 130.032 181.354 131.86C181.434 135.635 182.99 139.228 185.688 141.869C188.385 144.51 192.011 145.989 195.786 145.989C199.561 145.989 203.186 144.51 205.884 141.869C208.582 139.228 210.138 135.635 210.218 131.86C210.224 130.032 209.878 128.219 209.201 126.521C209.194 126.51 209.191 126.497 209.191 126.485C209.191 126.472 209.194 126.46 209.201 126.449C209.208 126.437 209.219 126.427 209.232 126.42C209.244 126.413 209.258 126.41 209.272 126.41H222.378C223.524 126.411 224.622 126.867 225.432 127.678C226.243 128.488 226.699 129.586 226.7 130.732V183.929C226.699 185.073 226.245 186.169 225.437 186.979C224.63 187.789 223.534 188.247 222.391 188.252Z" fill="white"/>
</svg>
