<svg width="247" height="41" viewBox="0 0 247 41" fill="none" xmlns="http://www.w3.org/2000/svg">
<path d="M219.403 0.338778C219.132 0.48402 218.928 7.21357 218.928 15.2987C218.928 31.4206 218.657 30.5007 223.334 30.5007C227.536 30.5007 227.74 30.3071 227.74 25.853C227.74 20.6243 228.621 20.5758 233.23 25.5141C235.128 27.5959 237.229 29.5809 237.771 29.8713C239.262 30.7428 245.701 30.6944 246.718 29.7745C247.396 29.1935 246.718 28.1769 242.651 23.9648C239.94 21.1084 237.974 18.5425 238.178 18.1551C238.381 17.7678 240.211 15.8313 242.312 13.8947C244.346 11.9097 246.04 10.07 246.04 9.77952C246.04 9.3922 244.481 9.19855 241.363 9.19855H236.686L233.094 12.6844C231.061 14.6209 229.095 16.1702 228.756 16.1218C228.35 16.0249 228.011 12.7328 227.875 7.9882L227.74 -0.000120163H223.741C221.572 -0.000120163 219.606 0.145123 219.403 0.338778Z" fill="black"/>
<path d="M132.916 3.34058C132.509 3.87313 132.17 5.37397 132.17 6.72956C132.17 9.10185 132.103 9.15026 130.001 9.29551C127.832 9.44075 127.765 9.48916 127.765 11.8615C127.765 14.2337 127.832 14.2822 130.001 14.4274L132.17 14.5726V19.0267C132.238 25.0301 132.916 27.015 135.83 28.9032C137.999 30.3556 138.677 30.5009 142.337 30.5009C147.014 30.5009 151.826 29.0968 151.826 27.6928C151.826 27.2571 151.216 26.1436 150.471 25.2721C149.047 23.6261 148.37 23.5292 144.845 24.4975C142.608 25.0785 141.659 23.384 141.659 18.8815V14.5726L146.268 14.4274L150.81 14.2822V11.8615V9.44075L146.404 9.19868L141.998 8.95661L141.659 5.8097L141.321 2.66278L137.457 2.51754C134.204 2.3723 133.526 2.51754 132.916 3.34058Z" fill="black"/>
<path d="M13.217 8.81143C12.1326 9.10191 10.777 9.58605 10.2347 9.87654C9.48915 10.2639 9.21803 10.2639 9.0147 9.77971C8.81136 9.3924 7.25242 9.19874 4.3379 9.19874H0L0.135559 24.3039L0.338898 39.4575H4.40568H8.47246L8.6758 34.2288C8.74358 31.3724 9.0147 29.0485 9.21803 29.0485C9.35359 29.0485 10.3025 29.3874 11.2514 29.8715C13.7593 31.0335 19.9272 30.9366 23.384 29.6779C28.8741 27.6445 31.382 24.4008 31.382 19.3657C31.382 14.2338 27.5863 10.2639 21.4184 8.95667C17.5549 8.13363 16.0638 8.08522 13.217 8.81143ZM18.9105 15.2021C22.1639 16.4124 23.3162 19.6078 21.3506 22.2705C19.3172 25.0785 14.9115 25.5143 11.387 23.2872C9.48915 22.0769 9.15025 21.5443 9.15025 19.6078C9.15025 17.6712 9.48915 17.1386 11.387 15.9283C13.8271 14.379 16.0638 14.1854 18.9105 15.2021Z" fill="black"/>
<path d="M43.8533 8.90811C37.7531 10.5058 33.9574 14.5241 33.8896 19.5108C33.8896 21.06 34.3641 23.0934 34.9741 24.1101C36.1942 26.2403 39.5154 28.8063 42.3621 29.8714C45.2766 30.9849 51.4446 30.9365 53.8169 29.8714C55.5114 29.0484 55.7825 29.0484 56.867 29.7261C58.2903 30.646 62.9671 30.7428 64.5938 29.8714C65.6783 29.3388 65.7461 28.2737 65.6105 19.3655L65.4072 9.44066L61.4082 9.29542C59.2392 9.19859 57.1381 9.34384 56.7314 9.63432C56.3247 9.9248 55.1047 9.73115 53.2746 9.15018C50.0212 8.08507 47.3778 8.03666 43.8533 8.90811ZM52.3935 15.0567C54.9691 15.9766 56.2569 17.5258 56.2569 19.7529C56.2569 25.4657 45.8866 26.5308 43.3788 21.06C41.5487 17.1385 47.4456 13.2654 52.3935 15.0567Z" fill="black"/>
<path d="M108.244 8.90826C101.195 10.3123 98.2128 15.0084 101.873 18.93C103.364 20.576 105.601 21.3023 113.734 22.7547C115.768 23.142 116.581 23.5293 116.581 24.1587C116.581 26.0468 111.769 26.1921 108.176 24.4492C105.126 22.9483 104.177 22.9483 101.67 24.3039C99.0939 25.6595 99.0939 26.7246 101.67 28.2255C104.516 29.9684 108.109 30.6946 113.192 30.6946C120.987 30.6462 126.07 27.7897 126.07 23.4325C126.07 20.0919 122.817 17.9617 116.174 16.945C114.344 16.7029 112.175 16.364 111.362 16.2188C110.413 16.0735 109.803 15.5894 109.803 15.0084C109.803 13.7981 112.785 13.2171 115.361 13.9433C121.868 15.8799 121.122 15.8315 123.495 14.137C126.206 12.2488 125.731 11.4258 121.258 9.82813C117.394 8.42412 112.379 8.08522 108.244 8.90826Z" fill="black"/>
<path d="M162.672 8.76296C150.132 11.4741 148.438 25.3206 160.096 29.581C163.756 30.9366 169.856 31.0334 172.5 29.8231C174.058 29.0969 174.33 29.0969 175.279 29.7747C175.889 30.162 177.515 30.5009 178.939 30.5009C183.954 30.5009 183.683 31.0818 183.683 19.5593V9.19869H179.345C176.634 9.19869 174.872 9.39235 174.736 9.77966C174.533 10.167 173.923 10.0701 172.771 9.53759C170.534 8.47248 165.722 8.13358 162.672 8.76296ZM172.296 15.9282C174.194 17.1386 174.533 17.6711 174.533 19.6077C174.533 21.5443 174.194 22.0768 172.296 23.2872C166.332 27.0635 158.334 21.9316 162.468 16.9449C164.705 14.2337 168.907 13.798 172.296 15.9282Z" fill="black"/>
<path d="M197.374 9.10195C190.596 10.8449 187.14 14.4275 187.072 19.753C187.072 24.2555 189.851 27.5477 195.544 29.6779C199.34 31.0819 206.05 31.0335 209.846 29.6295C212.489 28.6612 216.217 26.0469 216.217 25.1754C216.217 24.6913 211.405 21.7864 210.659 21.7864C210.32 21.7864 208.829 22.4158 207.27 23.2389C203.881 25.0302 201.373 25.0786 198.662 23.4325C193.646 20.4308 196.425 14.5243 202.864 14.5243C204.22 14.5243 206.05 15.2021 209.575 17.0419C210.524 17.526 211.134 17.3808 213.235 16.1704C214.658 15.3474 215.878 14.4759 216.014 14.1854C216.42 13.3624 212.896 10.6996 210.117 9.68292C206.186 8.27891 201.577 8.03684 197.374 9.10195Z" fill="black"/>
<path d="M67.7798 10.2638C67.7798 11.571 75.7778 29.0001 76.7945 29.8715C77.1334 30.2104 78.3534 30.5009 79.4379 30.5009C81.2002 30.5009 81.4035 30.6461 80.929 31.566C80.1157 33.5994 78.489 34.4708 76.2522 34.1319C71.711 33.4541 70.9654 33.5994 69.4065 35.2455C67.5764 37.1336 67.7798 37.763 70.5588 38.9249C73.8122 40.2805 79.1668 40.4742 82.8269 39.3122C87.0292 38.0051 88.5881 35.9717 92.8583 25.9016C94.7561 21.3506 97.0606 15.9767 98.0095 13.8465C98.8906 11.7647 99.4329 9.87651 99.2295 9.63444C99.0262 9.39237 96.7895 9.19871 94.2816 9.19871H89.6726L87.0292 16.2187C85.5381 20.0919 84.1147 23.2388 83.708 23.2388C83.3691 23.2388 81.8102 20.1403 80.2512 16.3156L77.5401 9.44078L72.6599 9.29554C67.9831 9.1503 67.7798 9.19871 67.7798 10.2638Z" fill="black"/>
</svg>
