<svg width="326" height="326" viewBox="0 0 326 326" fill="none" xmlns="http://www.w3.org/2000/svg">
<path d="M163 278.769C232.818 278.769 289.416 275.465 289.416 271.388C289.416 267.312 232.818 264.008 163 264.008C93.182 264.008 36.5835 267.312 36.5835 271.388C36.5835 275.465 93.182 278.769 163 278.769Z" fill="#F5F5F5"/>
<path d="M231.128 259.222L226.44 260.213L223.265 249.546L227.953 248.555L231.128 259.222Z" fill="#7F3E3B"/>
<path d="M226.146 259.705L231.264 258.629C231.358 258.611 231.454 258.624 231.539 258.666C231.624 258.709 231.692 258.778 231.734 258.863L233.533 262.834C233.578 262.93 233.6 263.034 233.598 263.14C233.596 263.246 233.571 263.349 233.523 263.443C233.475 263.538 233.407 263.62 233.323 263.684C233.239 263.747 233.141 263.791 233.038 263.812C231.18 264.171 228.474 264.621 226.172 265.116C223.46 265.69 223.082 266.27 219.854 266.681C217.898 266.929 217.116 265.025 217.898 264.725C221.517 263.421 222.332 262.919 225.07 260.298C225.365 260.002 225.739 259.796 226.146 259.705Z" fill="#263238"/>
<path opacity="0.2" d="M223.265 249.547L224.901 255.049L229.589 254.058L227.953 248.562L223.265 249.547Z" fill="black"/>
<path d="M197.172 106.628C196.214 109.803 195.164 112.894 194.023 115.997C192.882 119.101 191.656 122.159 190.209 125.256L189.641 126.423L189.022 127.616C188.813 128.014 188.566 128.385 188.337 128.777C188.109 129.168 187.881 129.539 187.62 129.905C186.639 131.375 185.549 132.769 184.36 134.077C183.199 135.374 181.946 136.585 180.611 137.702C179.959 138.263 179.268 138.791 178.557 139.293C177.847 139.795 177.162 140.265 176.328 140.747L174.02 137.676C174.469 137.155 175.017 136.548 175.5 135.962C175.982 135.375 176.458 134.749 176.934 134.143C177.866 132.917 178.747 131.658 179.542 130.387C180.352 129.123 181.094 127.817 181.765 126.475C182.104 125.823 182.417 125.171 182.704 124.473L183.134 123.463L183.552 122.4C184.654 119.512 185.684 116.467 186.694 113.422L189.746 104.294L197.172 106.628Z" fill="#803E3C"/>
<path d="M200.594 101.458C202.244 105.846 193.474 121.455 193.474 121.455L183.616 113.852C185.302 109.715 187.351 105.736 189.739 101.96C193.207 96.7895 198.782 96.6461 200.594 101.458Z" fill="#FF725E"/>
<path opacity="0.2" d="M198.665 105.794C195.548 107.098 191.317 112.131 189.993 118.768L193.475 121.455C193.475 121.455 198.691 112.222 200.301 105.963C200.074 105.779 199.799 105.665 199.508 105.635C199.218 105.605 198.925 105.66 198.665 105.794Z" fill="black"/>
<path d="M194.773 98.1065C194.773 98.1065 188.989 109.047 194.486 136.614H220.703C220.879 132.584 218.349 116.812 222.235 97.8522C219.336 97.2948 216.405 96.9245 213.459 96.7438C209.748 96.5284 206.027 96.5284 202.316 96.7438C199.77 96.9993 197.248 97.4549 194.773 98.1065Z" fill="#FF725E"/>
<path d="M165.608 141.015L168.275 143.427L172.226 142.377L169.546 137.611L165.608 141.015Z" fill="#7F3E3B"/>
<path d="M175.33 137.885L169.547 137.611L172.227 142.377C172.227 142.377 176.523 142.834 176.934 139.658L175.33 137.885Z" fill="#7F3E3B"/>
<path d="M212.35 84.1929C211.653 87.7789 210.949 94.351 213.459 96.7439C213.459 96.7439 212.331 99.1498 205.667 99.1498C199.578 99.1498 202.316 96.7439 202.316 96.7439C206.313 95.792 206.228 92.8319 205.511 90.0348L212.35 84.1929Z" fill="#7F3E3B"/>
<path opacity="0.2" d="M209.567 86.5791L205.518 90.0347C205.686 90.676 205.799 91.3303 205.857 91.9907C206.835 93.5099 209.501 91.28 209.99 88.9459C210.028 88.1352 209.883 87.3265 209.567 86.5791Z" fill="black"/>
<path d="M196.265 76.3167C194.929 78.5661 197.869 84.7927 201.273 84.2254C204.676 83.6582 198.808 72.0591 196.265 76.3167Z" fill="#263238"/>
<path d="M210.72 78.5595C211.431 83.3712 212.089 86.1487 210.205 89.0958C207.375 93.5229 201.077 92.584 198.913 88.0852C196.989 84.0297 196.148 76.8447 200.399 73.9694C201.334 73.3309 202.416 72.9421 203.544 72.8399C204.671 72.7376 205.806 72.9255 206.84 73.3854C207.874 73.8454 208.774 74.5623 209.453 75.4679C210.132 76.3735 210.568 77.4377 210.72 78.5595Z" fill="#7F3E3B"/>
<path d="M211.144 72.2156L206.991 75.2409C209.495 78.2205 206.652 84.734 210.597 83.2539C212.403 82.6085 217.065 75.5017 211.144 72.2156Z" fill="#263238"/>
<path d="M206.156 68.5057C199.851 70.0314 199.29 68.2123 199.714 65.8521C195 66.6279 191.473 70.3443 194.211 74.8366C197.249 79.8244 206.521 75.7755 208.157 75.7429L210.511 75.1691C215.858 73.6108 214.032 66.6084 206.156 68.5057Z" fill="#263238"/>
<path d="M211.776 81.0763C210.583 81.0763 206.893 81.0763 206.854 81.0763C206.826 81.0763 206.799 81.0653 206.78 81.0457C206.76 81.0262 206.749 80.9997 206.749 80.972C206.748 80.958 206.75 80.944 206.755 80.9309C206.76 80.9179 206.768 80.906 206.778 80.8961C206.788 80.8862 206.799 80.8785 206.813 80.8736C206.826 80.8687 206.84 80.8667 206.854 80.8677C206.893 80.8677 210.583 80.8677 211.776 80.8677C211.804 80.8677 211.83 80.8787 211.85 80.8982C211.869 80.9178 211.88 80.9443 211.88 80.972C211.88 80.9997 211.869 81.0262 211.85 81.0457C211.83 81.0653 211.804 81.0763 211.776 81.0763Z" fill="white"/>
<path d="M213.98 83.3386C213.558 84.4898 212.698 85.4274 211.587 85.9466C210.107 86.5986 209.123 85.3533 209.332 83.8276C209.514 82.4584 210.505 80.4567 212.09 80.4307C212.434 80.4319 212.772 80.5187 213.074 80.6833C213.376 80.848 213.633 81.0853 213.821 81.3738C214.008 81.6623 214.121 81.993 214.149 82.336C214.177 82.679 214.119 83.0235 213.98 83.3386Z" fill="#7F3E3B"/>
<path d="M204.708 265.26H199.923L199.76 254.163H204.552L204.708 265.26Z" fill="#7F3E3B"/>
<path d="M199.727 264.706H204.943C205.038 264.704 205.131 264.736 205.205 264.795C205.278 264.855 205.329 264.938 205.347 265.032L206.293 269.289C206.317 269.392 206.317 269.498 206.293 269.6C206.27 269.703 206.223 269.798 206.157 269.88C206.091 269.962 206.008 270.027 205.912 270.072C205.817 270.116 205.713 270.139 205.608 270.137C203.717 270.104 200.992 269.993 198.619 269.993C195.848 269.993 193.455 270.15 190.201 270.15C188.245 270.15 187.691 268.161 188.513 267.979C192.262 267.157 195.32 267.072 198.554 265.077C198.901 264.843 199.308 264.714 199.727 264.706Z" fill="#263238"/>
<path opacity="0.2" d="M199.76 254.169L199.845 259.887H204.637L204.552 254.169H199.76Z" fill="black"/>
<path d="M197.752 265.436C197.426 265.514 197.084 265.48 196.78 265.338C196.683 265.277 196.602 265.194 196.544 265.095C196.487 264.996 196.453 264.885 196.448 264.771C196.437 264.703 196.446 264.634 196.472 264.57C196.499 264.507 196.542 264.452 196.598 264.412C197.08 264.054 198.801 264.764 198.997 264.849C199.018 264.859 199.035 264.875 199.046 264.895C199.058 264.914 199.063 264.937 199.062 264.96C199.062 264.982 199.056 265.005 199.043 265.023C199.03 265.042 199.012 265.056 198.991 265.064C198.592 265.233 198.177 265.357 197.752 265.436ZM196.878 264.549C196.826 264.552 196.776 264.57 196.735 264.601C196.711 264.616 196.693 264.638 196.684 264.664C196.674 264.69 196.674 264.718 196.682 264.745C196.681 264.824 196.701 264.902 196.74 264.97C196.779 265.039 196.836 265.096 196.904 265.136C197.482 265.298 198.101 265.233 198.632 264.953C198.079 264.706 197.483 264.569 196.878 264.549Z" fill="#C63B3A"/>
<path d="M198.985 265.071H198.932C198.385 264.882 197.25 263.969 197.27 263.415C197.272 263.328 197.304 263.244 197.361 263.179C197.419 263.113 197.497 263.07 197.583 263.056C197.669 263.032 197.759 263.026 197.848 263.038C197.936 263.051 198.021 263.081 198.098 263.128C198.75 263.499 199.069 264.875 199.082 264.934C199.086 264.955 199.084 264.977 199.078 264.997C199.071 265.018 199.059 265.036 199.043 265.051C199.026 265.062 199.005 265.069 198.985 265.071ZM197.681 263.265H197.628C197.485 263.31 197.478 263.382 197.478 263.408C197.478 263.741 198.215 264.445 198.782 264.712C198.662 264.168 198.381 263.672 197.974 263.291C197.929 263.267 197.88 263.252 197.83 263.248C197.779 263.243 197.729 263.249 197.681 263.265Z" fill="#C63B3A"/>
<path d="M194.485 136.614C194.485 136.614 190.964 181.543 190.306 196.487C189.615 212.024 198.286 258.511 198.286 258.511H206.078C206.078 258.511 203.509 215.395 204.852 200.184C206.312 183.597 211.717 136.614 211.717 136.614H194.485Z" fill="#263238"/>
<path opacity="0.2" d="M202.342 171.932C202.954 177.991 204.133 183.978 205.863 189.817C207.062 178.022 208.823 162.172 210.101 150.847C207.102 152.809 201.155 158.488 202.342 171.932Z" fill="black"/>
<path d="M203.548 136.614C203.548 136.614 205.549 181.393 208.607 195.424C211.946 210.792 221.921 254.273 221.921 254.273L230.704 252.422C230.704 252.422 224.783 211.196 222.88 195.985C220.813 179.469 220.467 136.614 220.467 136.614H203.548Z" fill="#263238"/>
<path d="M231.311 252.494L221.85 254.482L220.272 251.085L230.685 248.588L231.311 252.494Z" fill="#C63B3A"/>
<path d="M207.584 258.707H197.915L197.067 255.056L207.747 255.245L207.584 258.707Z" fill="#C63B3A"/>
<path d="M204.103 81.3436C204.188 81.7283 204.051 82.0869 203.796 82.1391C203.542 82.1912 203.268 81.9239 203.19 81.5392C203.112 81.1546 203.249 80.796 203.496 80.7438C203.744 80.6916 204.025 80.959 204.103 81.3436Z" fill="#263238"/>
<path d="M199.734 82.2695C199.812 82.6542 199.675 83.0127 199.421 83.0649C199.167 83.1171 198.899 82.8497 198.814 82.4651C198.73 82.0804 198.873 81.7153 199.127 81.6631C199.382 81.611 199.636 81.8848 199.734 82.2695Z" fill="#263238"/>
<path d="M200.868 82.2302C200.659 83.5097 200.273 84.7539 199.721 85.9271C200.025 86.0604 200.355 86.1254 200.687 86.1175C201.02 86.1096 201.346 86.0291 201.644 85.8814L200.868 82.2302Z" fill="#630F0F"/>
<path d="M202.57 87.4136C202.554 87.4192 202.537 87.4212 202.52 87.4196C202.503 87.4179 202.486 87.4125 202.472 87.4039C202.457 87.3952 202.444 87.3834 202.435 87.3694C202.425 87.3554 202.419 87.3394 202.416 87.3226C202.413 87.3058 202.414 87.2886 202.418 87.2721C202.423 87.2557 202.431 87.2404 202.442 87.2273C202.452 87.2143 202.466 87.2038 202.482 87.1965C202.497 87.1893 202.514 87.1855 202.531 87.1854C203.017 87.1142 203.48 86.9296 203.883 86.6464C204.285 86.3633 204.614 85.9896 204.845 85.5554C204.857 85.5272 204.879 85.5046 204.907 85.4924C204.935 85.4802 204.967 85.4794 204.995 85.4902C205.01 85.4965 205.022 85.5056 205.033 85.517C205.044 85.5283 205.052 85.5416 205.057 85.5562C205.063 85.5707 205.065 85.5862 205.065 85.6018C205.064 85.6173 205.061 85.6326 205.054 85.6467C204.813 86.1193 204.461 86.5267 204.028 86.8343C203.596 87.1419 203.096 87.3406 202.57 87.4136Z" fill="#263238"/>
<path d="M206.156 77.9468C206.122 77.9565 206.085 77.9581 206.05 77.9513C206.015 77.9445 205.982 77.9295 205.954 77.9076C205.722 77.7314 205.452 77.6124 205.165 77.5603C204.878 77.5082 204.583 77.5244 204.304 77.6077C204.247 77.6259 204.186 77.6217 204.132 77.596C204.078 77.5702 204.036 77.5248 204.014 77.4691C203.992 77.4133 203.993 77.3514 204.015 77.296C204.038 77.2406 204.08 77.1959 204.135 77.1709C204.487 77.0602 204.861 77.0356 205.226 77.0991C205.59 77.1627 205.933 77.3125 206.228 77.536C206.252 77.5535 206.273 77.5757 206.289 77.6012C206.305 77.6268 206.315 77.6552 206.32 77.6849C206.325 77.7146 206.324 77.7449 206.317 77.7742C206.31 77.8035 206.297 77.8311 206.28 77.8555C206.248 77.8969 206.205 77.9285 206.156 77.9468Z" fill="#263238"/>
<path d="M197.087 79.3486C197.052 79.3466 197.019 79.3354 196.99 79.316C196.939 79.2815 196.905 79.229 196.892 79.1694C196.88 79.1098 196.892 79.0478 196.924 78.9965C197.115 78.681 197.38 78.4166 197.696 78.2258C198.012 78.035 198.369 77.9236 198.737 77.9011C198.792 77.9103 198.841 77.9386 198.877 77.981C198.913 78.0234 198.933 78.0771 198.933 78.1326C198.933 78.1881 198.913 78.2418 198.877 78.2841C198.841 78.3265 198.792 78.3548 198.737 78.364C198.446 78.387 198.165 78.4788 197.917 78.6318C197.668 78.7849 197.46 78.9948 197.309 79.2442C197.286 79.2815 197.253 79.3113 197.214 79.3298C197.175 79.3484 197.13 79.3549 197.087 79.3486Z" fill="#263238"/>
<path d="M218.348 96.9524L217.11 96.8416C217.049 96.8388 216.99 96.8576 216.942 96.8946C216.894 96.9316 216.861 96.9845 216.849 97.0437C213.406 115.534 215.336 135.173 215.336 135.173H216.705C215.955 122.494 216.578 109.771 218.563 97.2263C218.569 97.1939 218.568 97.1608 218.56 97.129C218.552 97.0971 218.537 97.0674 218.517 97.0416C218.496 97.0158 218.471 96.9945 218.442 96.9791C218.413 96.9638 218.381 96.9547 218.348 96.9524Z" fill="#263238"/>
<path d="M216.901 135.186C216.901 135.069 216.855 134.958 216.773 134.875C216.692 134.792 216.58 134.744 216.464 134.742H215.519C215.401 134.744 215.29 134.791 215.207 134.874C215.124 134.957 215.077 135.069 215.075 135.186C215.076 135.284 215.11 135.378 215.172 135.454C215.233 135.53 215.319 135.582 215.414 135.603V136.777C215.429 136.919 215.497 137.051 215.603 137.147C215.71 137.243 215.848 137.296 215.991 137.296C216.135 137.296 216.273 137.243 216.379 137.147C216.486 137.051 216.553 136.919 216.568 136.777V135.603C216.663 135.581 216.747 135.528 216.807 135.452C216.867 135.376 216.9 135.283 216.901 135.186Z" fill="white"/>
<path d="M197.596 97.2132L196.37 97.4414C196.319 97.4508 196.273 97.4761 196.238 97.5136C196.203 97.5512 196.18 97.599 196.174 97.6501C193.566 116.154 196.422 135.186 196.422 135.186H197.785C195.751 115.045 197.557 99.8734 197.876 97.4805C197.881 97.4432 197.877 97.4053 197.864 97.3698C197.851 97.3343 197.83 97.3023 197.803 97.2764C197.776 97.2504 197.743 97.2311 197.707 97.2202C197.671 97.2092 197.633 97.2068 197.596 97.2132Z" fill="#263238"/>
<path d="M197.987 135.186C197.978 135.068 197.927 134.957 197.841 134.875C197.755 134.792 197.642 134.745 197.524 134.742H196.578C196.521 134.742 196.465 134.754 196.412 134.776C196.36 134.799 196.313 134.832 196.274 134.874C196.234 134.915 196.204 134.964 196.185 135.018C196.166 135.072 196.157 135.129 196.161 135.186C196.166 135.284 196.203 135.379 196.266 135.454C196.33 135.529 196.417 135.582 196.513 135.603L196.572 136.777C196.58 136.931 196.647 137.076 196.758 137.182C196.87 137.289 197.017 137.349 197.172 137.35C197.246 137.351 197.32 137.337 197.389 137.308C197.458 137.28 197.521 137.237 197.573 137.183C197.625 137.13 197.665 137.066 197.691 136.996C197.718 136.926 197.729 136.851 197.726 136.777L197.667 135.603C197.761 135.582 197.844 135.528 197.902 135.452C197.961 135.376 197.99 135.282 197.987 135.186Z" fill="white"/>
<path d="M224.367 260.833C224.063 260.973 223.722 261.009 223.396 260.937C223.287 260.899 223.19 260.834 223.112 260.748C223.035 260.663 222.98 260.56 222.952 260.448C222.928 260.385 222.922 260.317 222.933 260.25C222.945 260.184 222.974 260.121 223.017 260.07C223.422 259.62 225.247 259.959 225.456 260.005C225.479 260.007 225.501 260.018 225.517 260.035C225.534 260.051 225.544 260.073 225.547 260.096C225.552 260.118 225.551 260.141 225.543 260.162C225.534 260.183 225.52 260.201 225.501 260.213C225.145 260.458 224.765 260.666 224.367 260.833ZM223.324 260.148C223.274 260.162 223.229 260.189 223.193 260.226C223.193 260.226 223.148 260.292 223.193 260.376C223.208 260.454 223.243 260.526 223.295 260.585C223.346 260.645 223.413 260.69 223.487 260.715C224.089 260.755 224.683 260.564 225.149 260.181C224.549 260.047 223.928 260.036 223.324 260.148Z" fill="#C63B3A"/>
<path d="M225.475 260.226H225.417C224.849 260.148 223.545 259.496 223.461 258.922C223.447 258.836 223.464 258.747 223.508 258.671C223.552 258.595 223.62 258.537 223.702 258.505C223.78 258.464 223.867 258.439 223.955 258.432C224.044 258.426 224.133 258.437 224.217 258.466C224.915 258.701 225.521 259.979 225.553 260.031C225.564 260.05 225.57 260.071 225.57 260.093C225.57 260.114 225.564 260.136 225.553 260.155L225.475 260.226ZM223.845 258.72H223.793C223.663 258.792 223.676 258.864 223.676 258.89C223.734 259.216 224.608 259.75 225.214 259.933C225.019 259.561 224.562 258.851 224.126 258.701C224.033 258.674 223.933 258.681 223.845 258.72Z" fill="#C63B3A"/>
<path d="M204.8 84.61C203.255 84.936 201.664 83.632 201.26 81.7086C200.901 79.9939 201.697 78.8463 203.503 78.4486C205.309 78.0509 206.502 78.8007 206.867 80.5089C207.271 82.4519 206.346 84.284 204.8 84.61ZM203.548 78.6964C202.368 78.9441 201.045 79.6679 201.475 81.6891C201.853 83.5016 203.333 84.7339 204.735 84.4275C206.137 84.121 207.024 82.4063 206.639 80.5937C206.228 78.5464 204.729 78.416 203.548 78.6964Z" fill="white"/>
<path d="M198.47 85.9467C197.166 86.2205 195.783 84.8774 195.379 82.954C194.89 80.6394 196.292 79.9874 197.172 79.7983C198.052 79.6092 199.598 79.6484 200.087 81.9564C200.491 83.9124 199.767 85.6728 198.47 85.9467ZM197.218 80.0004C196.233 80.2091 195.157 80.8806 195.581 82.9018C195.966 84.7144 197.244 85.9858 198.424 85.7315C199.604 85.4772 200.263 83.7755 199.878 81.9956C199.454 80.0004 198.196 79.7983 197.218 80.0004Z" fill="white"/>
<path d="M201.358 80.5091H201.305C201.015 80.4083 200.702 80.3884 200.402 80.4516C200.101 80.5148 199.823 80.6586 199.597 80.8677C199.588 80.8775 199.577 80.8854 199.565 80.8908C199.552 80.8962 199.539 80.899 199.525 80.899C199.512 80.899 199.499 80.8962 199.486 80.8908C199.474 80.8854 199.463 80.8775 199.454 80.8677C199.444 80.8579 199.436 80.8463 199.43 80.8334C199.425 80.8205 199.422 80.8067 199.422 80.7927C199.422 80.7787 199.425 80.7648 199.43 80.752C199.436 80.7391 199.444 80.7274 199.454 80.7177C199.705 80.4852 200.015 80.3253 200.351 80.2553C200.686 80.1852 201.034 80.2076 201.358 80.32C201.383 80.3276 201.405 80.3447 201.418 80.3677C201.431 80.3907 201.435 80.418 201.429 80.4439C201.423 80.4592 201.413 80.473 201.4 80.4842C201.388 80.4955 201.373 80.5039 201.358 80.5091Z" fill="white"/>
<path d="M206.071 99.1433L207.023 98.4521L209.064 100.408L206.071 99.1433Z" fill="#263238"/>
<path d="M207.023 98.4519C207.023 98.4519 208.706 100.806 209.032 102.507C211.046 101.673 214.841 99.5864 215.349 96.6394C214.616 96.4058 213.917 96.077 213.27 95.6614C213.27 95.6614 211.242 97.3827 207.023 98.4519Z" fill="white"/>
<path d="M206.072 99.1433L205.674 98.3413L203.04 100.408L206.072 99.1433Z" fill="#263238"/>
<path d="M205.674 98.3478C204.624 99.3455 203.935 100.665 203.718 102.097C201.71 101.262 200.921 98.5434 201.443 96.7309C202.209 96.3876 203.008 96.1254 203.829 95.9485C203.799 96.503 203.968 97.0501 204.307 97.4903C204.645 97.9305 205.13 98.2348 205.674 98.3478Z" fill="white"/>
<path d="M202.492 139.456L205.902 143.049L209.319 141.445L206.43 136.046L202.492 139.456Z" fill="#7F3E3B"/>
<path d="M212.213 136.32L206.43 136.046L209.318 141.445C209.318 141.445 213.406 141.269 213.817 138.1L212.213 136.32Z" fill="#7F3E3B"/>
<path d="M227.021 104.6C227.875 108.141 228.631 111.681 229.309 115.261C229.648 117.047 229.966 118.842 230.261 120.646C230.568 122.452 230.835 124.265 231.057 126.155C231.108 126.512 231.136 126.871 231.141 127.231C231.155 127.646 231.128 128.061 231.063 128.47C230.946 129.251 230.711 130.01 230.366 130.719C229.773 131.895 228.963 132.948 227.979 133.823C226.383 135.217 224.579 136.354 222.633 137.194C219.124 138.727 215.428 139.788 211.64 140.35L210.682 136.633C212.246 135.981 213.889 135.264 215.435 134.488C216.962 133.753 218.446 132.932 219.881 132.03C221.175 131.258 222.356 130.31 223.389 129.213C223.733 128.849 223.999 128.419 224.172 127.948C224.206 127.839 224.22 127.724 224.211 127.609C224.218 127.573 224.218 127.535 224.211 127.499C224.176 127.411 224.154 127.319 224.145 127.225C223.454 123.847 222.6 120.32 221.811 116.838C221.022 113.357 220.214 109.823 219.484 106.315L227.021 104.6Z" fill="#803E3C"/>
<path d="M222.235 97.8521C228.755 99.0192 231.637 115.332 231.637 115.332L221.153 121.761C221.153 121.761 217.821 112.137 217.997 106.08C218.18 100.304 217.286 96.9523 222.235 97.8521Z" fill="#FF725E"/>
<path d="M177.911 144.985H110.775V271.382H177.911V144.985Z" fill="#41555E"/>
<path d="M190.371 143.447H116.949V144.992H190.371V143.447Z" fill="#41555E"/>
<path opacity="0.3" d="M190.371 143.447H116.949V144.992H190.371V143.447Z" fill="black"/>
<path d="M177.918 271.389H196.552L196.552 144.992H177.918V271.389Z" fill="#41555E"/>
<path opacity="0.2" d="M177.918 271.389H196.552L196.552 144.992H177.918V271.389Z" fill="black"/>
<path opacity="0.1" d="M172.493 151.016H168.737C168.402 151.016 168.131 151.288 168.131 151.623V155.404C168.131 155.739 168.402 156.011 168.737 156.011H172.493C172.828 156.011 173.099 155.739 173.099 155.404V151.623C173.099 151.288 172.828 151.016 172.493 151.016Z" fill="black"/>
<path opacity="0.3" d="M162.244 151.016H158.488C158.153 151.016 157.882 151.288 157.882 151.623V155.404C157.882 155.739 158.153 156.011 158.488 156.011H162.244C162.579 156.011 162.85 155.739 162.85 155.404V151.623C162.85 151.288 162.579 151.016 162.244 151.016Z" fill="black"/>
<path opacity="0.3" d="M152.001 151.016H148.245C147.91 151.016 147.639 151.288 147.639 151.623V155.404C147.639 155.739 147.91 156.011 148.245 156.011H152.001C152.335 156.011 152.607 155.739 152.607 155.404V151.623C152.607 151.288 152.335 151.016 152.001 151.016Z" fill="black"/>
<path opacity="0.1" d="M141.752 151.016H137.996C137.661 151.016 137.39 151.288 137.39 151.623V155.404C137.39 155.739 137.661 156.011 137.996 156.011H141.752C142.086 156.011 142.358 155.739 142.358 155.404V151.623C142.358 151.288 142.086 151.016 141.752 151.016Z" fill="black"/>
<path opacity="0.3" d="M131.508 151.016H127.753C127.418 151.016 127.146 151.288 127.146 151.623V155.404C127.146 155.739 127.418 156.011 127.753 156.011H131.508C131.843 156.011 132.115 155.739 132.115 155.404V151.623C132.115 151.288 131.843 151.016 131.508 151.016Z" fill="black"/>
<path opacity="0.3" d="M121.259 151.016H117.503C117.168 151.016 116.897 151.288 116.897 151.623V155.404C116.897 155.739 117.168 156.011 117.503 156.011H121.259C121.594 156.011 121.865 155.739 121.865 155.404V151.623C121.865 151.288 121.594 151.016 121.259 151.016Z" fill="black"/>
<g opacity="0.1">
<path d="M175.721 158.873H112.966V178.661H175.721V158.873Z" fill="black"/>
</g>
<path d="M172.167 161.703H170.4C169.932 161.703 169.553 162.082 169.553 162.55V174.99C169.553 175.459 169.932 175.838 170.4 175.838H172.167C172.635 175.838 173.015 175.459 173.015 174.99V162.55C173.015 162.082 172.635 161.703 172.167 161.703Z" fill="#41555E"/>
<path opacity="0.1" d="M165.028 161.703H163.261C162.793 161.703 162.413 162.082 162.413 162.55V174.99C162.413 175.459 162.793 175.838 163.261 175.838H165.028C165.496 175.838 165.875 175.459 165.875 174.99V162.55C165.875 162.082 165.496 161.703 165.028 161.703Z" fill="black"/>
<path d="M157.882 161.703H156.115C155.647 161.703 155.268 162.082 155.268 162.55V174.99C155.268 175.459 155.647 175.838 156.115 175.838H157.882C158.35 175.838 158.73 175.459 158.73 174.99V162.55C158.73 162.082 158.35 161.703 157.882 161.703Z" fill="#41555E"/>
<path d="M150.736 161.703H148.969C148.501 161.703 148.121 162.082 148.121 162.55V174.99C148.121 175.459 148.501 175.838 148.969 175.838H150.736C151.204 175.838 151.583 175.459 151.583 174.99V162.55C151.583 162.082 151.204 161.703 150.736 161.703Z" fill="#41555E"/>
<path opacity="0.3" d="M130.941 165.608C130.941 165.157 131.075 164.716 131.326 164.34C131.577 163.965 131.933 163.673 132.35 163.5C132.767 163.327 133.226 163.282 133.669 163.37C134.111 163.458 134.518 163.675 134.837 163.995C135.156 164.314 135.374 164.72 135.462 165.163C135.55 165.606 135.504 166.064 135.332 166.481C135.159 166.898 134.866 167.255 134.491 167.506C134.116 167.756 133.675 167.89 133.223 167.89C132.619 167.888 132.039 167.647 131.612 167.22C131.184 166.792 130.943 166.213 130.941 165.608Z" fill="white"/>
<path opacity="0.1" d="M142.032 171.926C142.03 172.377 141.896 172.818 141.644 173.192C141.392 173.566 141.036 173.858 140.619 174.03C140.201 174.201 139.743 174.246 139.301 174.157C138.858 174.068 138.452 173.85 138.134 173.531C137.815 173.211 137.599 172.805 137.511 172.362C137.424 171.92 137.469 171.461 137.642 171.045C137.815 170.628 138.108 170.272 138.483 170.022C138.858 169.771 139.299 169.637 139.75 169.637C140.05 169.637 140.347 169.697 140.625 169.812C140.902 169.927 141.154 170.096 141.366 170.308C141.578 170.521 141.746 170.773 141.86 171.051C141.974 171.328 142.033 171.626 142.032 171.926Z" fill="black"/>
<path opacity="0.1" d="M137.468 165.608C137.468 165.157 137.602 164.716 137.852 164.34C138.103 163.965 138.46 163.673 138.876 163.5C139.293 163.327 139.752 163.282 140.195 163.37C140.638 163.458 141.044 163.675 141.363 163.995C141.683 164.314 141.9 164.72 141.988 165.163C142.076 165.606 142.031 166.064 141.858 166.481C141.685 166.898 141.393 167.255 141.018 167.506C140.642 167.756 140.201 167.89 139.75 167.89C139.145 167.888 138.566 167.647 138.138 167.22C137.71 166.792 137.469 166.213 137.468 165.608Z" fill="black"/>
<path opacity="0.1" d="M135.505 171.926C135.504 172.377 135.369 172.818 135.118 173.192C134.866 173.566 134.509 173.858 134.092 174.03C133.675 174.201 133.216 174.246 132.774 174.157C132.332 174.068 131.926 173.85 131.607 173.531C131.289 173.211 131.072 172.805 130.985 172.362C130.897 171.92 130.943 171.461 131.116 171.045C131.289 170.628 131.581 170.272 131.956 170.022C132.331 169.771 132.772 169.637 133.223 169.637C133.524 169.637 133.821 169.697 134.098 169.812C134.375 169.927 134.627 170.096 134.839 170.308C135.051 170.521 135.219 170.773 135.334 171.051C135.448 171.328 135.506 171.626 135.505 171.926Z" fill="black"/>
<path opacity="0.3" d="M125.344 172.27C127.277 170.337 127.277 167.204 125.344 165.271C123.412 163.339 120.279 163.339 118.346 165.271C116.413 167.204 116.413 170.337 118.346 172.27C120.279 174.202 123.412 174.202 125.344 172.27Z" fill="white"/>
<g opacity="0.1">
<path d="M175.721 181.374H112.966V201.162H175.721V181.374Z" fill="black"/>
</g>
<path d="M172.167 184.203H170.4C169.932 184.203 169.553 184.583 169.553 185.051V197.491C169.553 197.959 169.932 198.339 170.4 198.339H172.167C172.635 198.339 173.015 197.959 173.015 197.491V185.051C173.015 184.583 172.635 184.203 172.167 184.203Z" fill="#41555E"/>
<path opacity="0.1" d="M165.028 184.203H163.261C162.793 184.203 162.413 184.583 162.413 185.051V197.491C162.413 197.959 162.793 198.339 163.261 198.339H165.028C165.496 198.339 165.875 197.959 165.875 197.491V185.051C165.875 184.583 165.496 184.203 165.028 184.203Z" fill="black"/>
<path d="M157.882 184.203H156.115C155.647 184.203 155.268 184.583 155.268 185.051V197.491C155.268 197.959 155.647 198.339 156.115 198.339H157.882C158.35 198.339 158.73 197.959 158.73 197.491V185.051C158.73 184.583 158.35 184.203 157.882 184.203Z" fill="#41555E"/>
<path d="M150.736 184.203H148.969C148.501 184.203 148.121 184.583 148.121 185.051V197.491C148.121 197.959 148.501 198.339 148.969 198.339H150.736C151.204 198.339 151.583 197.959 151.583 197.491V185.051C151.583 184.583 151.204 184.203 150.736 184.203Z" fill="#41555E"/>
<path opacity="0.3" d="M130.941 188.115C130.941 187.664 131.075 187.222 131.326 186.847C131.577 186.472 131.933 186.179 132.35 186.007C132.767 185.834 133.226 185.789 133.669 185.877C134.111 185.965 134.518 186.182 134.837 186.501C135.156 186.821 135.374 187.227 135.462 187.67C135.55 188.112 135.504 188.571 135.332 188.988C135.159 189.405 134.866 189.762 134.491 190.012C134.116 190.263 133.675 190.397 133.223 190.397C132.618 190.397 132.038 190.157 131.61 189.729C131.182 189.301 130.941 188.72 130.941 188.115Z" fill="white"/>
<path opacity="0.3" d="M139.75 196.709C141.01 196.709 142.032 195.687 142.032 194.427C142.032 193.166 141.01 192.145 139.75 192.145C138.489 192.145 137.468 193.166 137.468 194.427C137.468 195.687 138.489 196.709 139.75 196.709Z" fill="white"/>
<path opacity="0.1" d="M137.468 188.115C137.468 187.664 137.602 187.222 137.852 186.847C138.103 186.472 138.46 186.179 138.876 186.007C139.293 185.834 139.752 185.789 140.195 185.877C140.638 185.965 141.044 186.182 141.363 186.501C141.683 186.821 141.9 187.227 141.988 187.67C142.076 188.112 142.031 188.571 141.858 188.988C141.685 189.405 141.393 189.762 141.018 190.012C140.642 190.263 140.201 190.397 139.75 190.397C139.145 190.397 138.564 190.157 138.136 189.729C137.708 189.301 137.468 188.72 137.468 188.115Z" fill="black"/>
<path opacity="0.1" d="M133.223 196.709C134.484 196.709 135.505 195.687 135.505 194.427C135.505 193.166 134.484 192.145 133.223 192.145C131.963 192.145 130.941 193.166 130.941 194.427C130.941 195.687 131.963 196.709 133.223 196.709Z" fill="black"/>
<path opacity="0.3" d="M121.846 196.219C124.579 196.219 126.794 194.004 126.794 191.271C126.794 188.538 124.579 186.322 121.846 186.322C119.113 186.322 116.897 188.538 116.897 191.271C116.897 194.004 119.113 196.219 121.846 196.219Z" fill="white"/>
<g opacity="0.1">
<path d="M175.721 203.88H112.966V223.669H175.721V203.88Z" fill="black"/>
</g>
<path d="M172.167 206.704H170.4C169.932 206.704 169.553 207.083 169.553 207.551V219.991C169.553 220.459 169.932 220.839 170.4 220.839H172.167C172.635 220.839 173.015 220.459 173.015 219.991V207.551C173.015 207.083 172.635 206.704 172.167 206.704Z" fill="#41555E"/>
<path opacity="0.1" d="M165.028 206.704H163.261C162.793 206.704 162.413 207.083 162.413 207.551V219.991C162.413 220.459 162.793 220.839 163.261 220.839H165.028C165.496 220.839 165.875 220.459 165.875 219.991V207.551C165.875 207.083 165.496 206.704 165.028 206.704Z" fill="black"/>
<path d="M157.882 206.704H156.115C155.647 206.704 155.268 207.083 155.268 207.551V219.991C155.268 220.459 155.647 220.839 156.115 220.839H157.882C158.35 220.839 158.73 220.459 158.73 219.991V207.551C158.73 207.083 158.35 206.704 157.882 206.704Z" fill="#41555E"/>
<path d="M150.736 206.704H148.969C148.501 206.704 148.121 207.083 148.121 207.551V219.991C148.121 220.459 148.501 220.839 148.969 220.839H150.736C151.204 220.839 151.583 220.459 151.583 219.991V207.551C151.583 207.083 151.204 206.704 150.736 206.704Z" fill="#41555E"/>
<path opacity="0.3" d="M130.941 210.596C130.943 210.145 131.078 209.704 131.329 209.33C131.581 208.956 131.938 208.664 132.355 208.492C132.772 208.321 133.23 208.276 133.673 208.365C134.115 208.454 134.521 208.672 134.839 208.991C135.158 209.311 135.375 209.717 135.462 210.16C135.55 210.602 135.504 211.061 135.331 211.477C135.158 211.894 134.866 212.25 134.491 212.5C134.115 212.751 133.674 212.885 133.223 212.885C132.923 212.885 132.626 212.825 132.349 212.71C132.071 212.595 131.819 212.426 131.607 212.214C131.395 212.001 131.228 211.749 131.113 211.471C130.999 211.194 130.941 210.896 130.941 210.596Z" fill="white"/>
<path opacity="0.3" d="M139.75 219.209C141.01 219.209 142.032 218.187 142.032 216.927C142.032 215.667 141.01 214.645 139.75 214.645C138.489 214.645 137.468 215.667 137.468 216.927C137.468 218.187 138.489 219.209 139.75 219.209Z" fill="white"/>
<path opacity="0.1" d="M137.468 210.596C137.469 210.145 137.604 209.704 137.856 209.33C138.107 208.956 138.464 208.664 138.881 208.492C139.298 208.321 139.757 208.276 140.199 208.365C140.641 208.454 141.047 208.672 141.366 208.991C141.684 209.311 141.901 209.717 141.988 210.16C142.076 210.602 142.03 211.061 141.857 211.477C141.685 211.894 141.392 212.25 141.017 212.5C140.642 212.751 140.201 212.885 139.75 212.885C139.45 212.885 139.152 212.825 138.875 212.71C138.598 212.595 138.346 212.426 138.134 212.214C137.922 212.001 137.754 211.749 137.64 211.471C137.525 211.194 137.467 210.896 137.468 210.596Z" fill="black"/>
<path opacity="0.1" d="M133.223 219.209C134.484 219.209 135.505 218.187 135.505 216.927C135.505 215.667 134.484 214.645 133.223 214.645C131.963 214.645 130.941 215.667 130.941 216.927C130.941 218.187 131.963 219.209 133.223 219.209Z" fill="black"/>
<path opacity="0.1" d="M121.846 218.72C124.579 218.72 126.794 216.505 126.794 213.771C126.794 211.038 124.579 208.823 121.846 208.823C119.113 208.823 116.897 211.038 116.897 213.771C116.897 216.505 119.113 218.72 121.846 218.72Z" fill="black"/>
<g opacity="0.1">
<path d="M175.721 226.381H112.966V246.169H175.721V226.381Z" fill="black"/>
</g>
<path d="M172.167 229.211H170.4C169.932 229.211 169.553 229.59 169.553 230.058V242.498C169.553 242.967 169.932 243.346 170.4 243.346H172.167C172.635 243.346 173.015 242.967 173.015 242.498V230.058C173.015 229.59 172.635 229.211 172.167 229.211Z" fill="#41555E"/>
<path opacity="0.1" d="M165.028 229.211H163.261C162.793 229.211 162.413 229.59 162.413 230.058V242.498C162.413 242.967 162.793 243.346 163.261 243.346H165.028C165.496 243.346 165.875 242.967 165.875 242.498V230.058C165.875 229.59 165.496 229.211 165.028 229.211Z" fill="black"/>
<path d="M157.882 229.211H156.115C155.647 229.211 155.268 229.59 155.268 230.058V242.498C155.268 242.967 155.647 243.346 156.115 243.346H157.882C158.35 243.346 158.73 242.967 158.73 242.498V230.058C158.73 229.59 158.35 229.211 157.882 229.211Z" fill="#41555E"/>
<path d="M150.736 229.211H148.969C148.501 229.211 148.121 229.59 148.121 230.058V242.498C148.121 242.967 148.501 243.346 148.969 243.346H150.736C151.204 243.346 151.583 242.967 151.583 242.498V230.058C151.583 229.59 151.204 229.211 150.736 229.211Z" fill="#41555E"/>
<path opacity="0.3" d="M133.223 235.405C134.484 235.405 135.505 234.383 135.505 233.123C135.505 231.862 134.484 230.841 133.223 230.841C131.963 230.841 130.941 231.862 130.941 233.123C130.941 234.383 131.963 235.405 133.223 235.405Z" fill="white"/>
<path opacity="0.3" d="M139.75 241.716C141.01 241.716 142.032 240.694 142.032 239.434C142.032 238.174 141.01 237.152 139.75 237.152C138.489 237.152 137.468 238.174 137.468 239.434C137.468 240.694 138.489 241.716 139.75 241.716Z" fill="white"/>
<path opacity="0.3" d="M139.75 235.405C141.01 235.405 142.032 234.383 142.032 233.123C142.032 231.862 141.01 230.841 139.75 230.841C138.489 230.841 137.468 231.862 137.468 233.123C137.468 234.383 138.489 235.405 139.75 235.405Z" fill="white"/>
<path opacity="0.1" d="M133.223 241.716C134.484 241.716 135.505 240.694 135.505 239.434C135.505 238.174 134.484 237.152 133.223 237.152C131.963 237.152 130.941 238.174 130.941 239.434C130.941 240.694 131.963 241.716 133.223 241.716Z" fill="black"/>
<path opacity="0.3" d="M121.846 241.227C124.579 241.227 126.794 239.011 126.794 236.278C126.794 233.545 124.579 231.33 121.846 231.33C119.113 231.33 116.897 233.545 116.897 236.278C116.897 239.011 119.113 241.227 121.846 241.227Z" fill="white"/>
<g opacity="0.1">
<path d="M175.721 248.882H112.966V268.67H175.721V248.882Z" fill="black"/>
</g>
<path d="M172.167 251.711H170.4C169.932 251.711 169.553 252.091 169.553 252.559V264.999C169.553 265.467 169.932 265.847 170.4 265.847H172.167C172.635 265.847 173.015 265.467 173.015 264.999V252.559C173.015 252.091 172.635 251.711 172.167 251.711Z" fill="#41555E"/>
<path opacity="0.1" d="M165.028 251.711H163.261C162.793 251.711 162.413 252.091 162.413 252.559V264.999C162.413 265.467 162.793 265.847 163.261 265.847H165.028C165.496 265.847 165.875 265.467 165.875 264.999V252.559C165.875 252.091 165.496 251.711 165.028 251.711Z" fill="black"/>
<path d="M157.882 251.711H156.115C155.647 251.711 155.268 252.091 155.268 252.559V264.999C155.268 265.467 155.647 265.847 156.115 265.847H157.882C158.35 265.847 158.73 265.467 158.73 264.999V252.559C158.73 252.091 158.35 251.711 157.882 251.711Z" fill="#41555E"/>
<path d="M150.736 251.711H148.969C148.501 251.711 148.121 252.091 148.121 252.559V264.999C148.121 265.467 148.501 265.847 148.969 265.847H150.736C151.204 265.847 151.583 265.467 151.583 264.999V252.559C151.583 252.091 151.204 251.711 150.736 251.711Z" fill="#41555E"/>
<path opacity="0.3" d="M133.223 257.905C134.484 257.905 135.505 256.884 135.505 255.623C135.505 254.363 134.484 253.341 133.223 253.341C131.963 253.341 130.941 254.363 130.941 255.623C130.941 256.884 131.963 257.905 133.223 257.905Z" fill="white"/>
<path opacity="0.3" d="M139.75 264.217C141.01 264.217 142.032 263.195 142.032 261.935C142.032 260.674 141.01 259.653 139.75 259.653C138.489 259.653 137.468 260.674 137.468 261.935C137.468 263.195 138.489 264.217 139.75 264.217Z" fill="white"/>
<path opacity="0.3" d="M139.75 257.905C141.01 257.905 142.032 256.884 142.032 255.623C142.032 254.363 141.01 253.341 139.75 253.341C138.489 253.341 137.468 254.363 137.468 255.623C137.468 256.884 138.489 257.905 139.75 257.905Z" fill="white"/>
<path opacity="0.1" d="M133.223 264.217C134.484 264.217 135.505 263.195 135.505 261.935C135.505 260.674 134.484 259.653 133.223 259.653C131.963 259.653 130.941 260.674 130.941 261.935C130.941 263.195 131.963 264.217 133.223 264.217Z" fill="black"/>
<path opacity="0.3" d="M121.846 263.727C124.579 263.727 126.794 261.512 126.794 258.779C126.794 256.046 124.579 253.83 121.846 253.83C119.113 253.83 116.897 256.046 116.897 258.779C116.897 261.512 119.113 263.727 121.846 263.727Z" fill="white"/>
<path d="M112.64 114.159H161.083L167.897 141.908H119.453L112.64 114.159Z" fill="#41555E"/>
<path d="M133.145 141.908L133.334 143.44H185.089L184.9 141.908H133.145Z" fill="#41555E"/>
<path d="M159.636 114.159L166.449 141.908H166.456L166.645 143.44H119.642L119.453 141.908L112.64 114.159H159.636Z" fill="#41555E"/>
<path opacity="0.6" d="M159.636 114.159L166.449 141.908H166.456L166.645 143.44H119.642L119.453 141.908L112.64 114.159H159.636Z" fill="white"/>
<path opacity="0.3" d="M140.115 97.7414L139.809 97.5849C139.417 97.3828 130.27 92.5124 128.972 86.1162C128.196 82.0175 127.876 77.8452 128.02 73.6761V73.1023L128.594 73.0632C128.666 73.0632 135.486 72.522 139.887 71.1072L140.089 71.042L140.285 71.1072C144.686 72.509 151.505 73.0632 151.577 73.0632L152.151 73.1023V73.6761C152.317 77.8428 152.019 82.0151 151.264 86.1162C149.96 92.5124 140.832 97.3828 140.428 97.5849L140.115 97.7414ZM129.305 74.3281C129.222 78.1974 129.541 82.0649 130.257 85.8685C131.3 91.0454 138.531 95.3877 140.115 96.3005C141.693 95.4138 148.924 91.0845 149.967 85.8685C150.686 82.0654 151.005 78.1975 150.919 74.3281C147.268 74.0306 143.651 73.3999 140.115 72.4438C136.576 73.3995 132.958 74.0302 129.305 74.3281Z" fill="#41555E"/>
<path d="M140.115 94.1163C137.383 92.4472 132.78 88.9915 132.076 85.4903C131.477 82.3609 131.167 79.1832 131.15 75.9972C134.176 75.6851 137.173 75.1402 140.115 74.3672C143.055 75.1407 146.05 75.6856 149.073 75.9972C149.053 79.1831 148.744 82.3606 148.148 85.4903C147.443 88.9915 142.84 92.4472 140.115 94.1163Z" fill="#41555E"/>
<path opacity="0.3" d="M93.8294 271.389H92.5254V119.029C92.5306 115.278 94.0229 111.683 96.6751 109.03C99.3273 106.378 102.923 104.886 106.674 104.881H135.753C136.735 104.877 137.676 104.485 138.37 103.79C139.064 103.095 139.455 102.153 139.456 101.171H140.76C140.76 102.5 140.233 103.774 139.294 104.714C138.355 105.654 137.082 106.183 135.753 106.185H106.674C103.268 106.188 100.003 107.543 97.5952 109.951C95.1872 112.359 93.8328 115.624 93.8294 119.029V271.389Z" fill="#41555E"/>
</svg>
