<svg width="290" height="41" viewBox="0 0 290 41" fill="none" xmlns="http://www.w3.org/2000/svg">
<path d="M7.36108 0.510094C7.43395 1.67592 18.5821 19.9648 19.3108 20.1833C19.7479 20.3291 22.0796 17.6331 24.4112 14.2085C28.4188 8.52512 29.0017 8.01508 31.2604 8.01508C33.1549 8.01508 33.5921 8.23367 33.2278 9.1809C32.7177 10.4924 20.4766 27.5426 19.6751 28.0527C19.4565 28.1984 15.3033 22.6607 10.5671 15.6658C5.83094 8.67085 1.6777 2.9146 1.31338 2.9146C1.02192 2.9146 0.730469 11.294 0.730469 21.4949V40.0752H20.768H40.8056V20.0376V4.66704e-05H24.0469C14.8661 4.66704e-05 7.28822 0.218638 7.36108 0.510094ZM39.3483 20.0376V38.6179H20.768H2.18775V22.0778V5.61057L10.4214 17.8517C14.9389 24.5552 18.9464 30.0928 19.3108 30.1657C20.1851 30.2386 36.4338 7.86935 35.9966 7.14071C35.778 6.77639 33.9564 6.5578 31.9891 6.5578H28.4188L24.1926 12.3869C21.9339 15.5201 19.8208 18.1432 19.5294 18.216C19.3108 18.216 17.6349 15.6658 15.8133 12.5326C13.9917 9.47235 11.8058 5.68343 10.9314 4.15329L9.32841 1.45732H24.3384H39.3483V20.0376Z" fill="black"/>
<path d="M231.927 8.525C229.887 8.88932 228.066 11.3667 228.066 13.6255C228.066 15.0828 227.701 15.3013 225.515 15.3013C223.111 15.3013 222.965 15.1556 222.965 12.7511C222.965 9.98228 222.601 9.83655 219.759 10.9295C218.375 11.4396 217.865 12.1682 217.865 13.4797C217.865 14.7913 217.5 15.3013 216.407 15.3013C215.315 15.3013 214.95 15.8114 214.95 17.1229C214.95 18.4345 215.315 18.9445 216.407 18.9445C217.792 18.9445 217.865 19.4546 217.865 25.5023C217.865 31.6229 217.938 32.06 219.686 33.2259C222.382 34.9746 226.608 34.1002 226.608 31.6957C226.608 30.457 226.171 29.8741 225.005 29.7284C223.475 29.5098 223.33 29.0726 223.111 24.1907L222.892 18.9445H225.515H228.066V26.2309V33.5173H230.98H233.895V26.2309C233.895 19.4546 233.968 18.9445 235.352 18.9445C236.445 18.9445 236.809 18.4345 236.809 17.1229C236.809 15.8114 236.445 15.3013 235.352 15.3013C234.405 15.3013 233.895 14.7913 233.895 13.8441C233.895 12.6782 234.405 12.3868 236.081 12.3868C237.902 12.3868 238.267 12.0953 238.267 10.6381C238.267 9.47223 237.757 8.74359 236.664 8.45214C234.915 8.01495 234.551 8.01495 231.927 8.525Z" fill="black"/>
<path d="M192.29 9.25365C192.217 9.61797 192.144 15.1556 192.071 21.6405L191.998 33.5173H194.767H197.463V21.1305V8.74361H194.913C193.528 8.74361 192.362 8.9622 192.29 9.25365Z" fill="black"/>
<path d="M107.331 10.9295C106.238 11.3667 105.655 12.2411 105.655 13.4069C105.655 14.4998 105.145 15.2285 104.198 15.5199C103.396 15.7385 102.74 16.4672 102.74 17.1229C102.74 17.7787 103.396 18.5074 104.198 18.7259C105.509 19.0903 105.655 19.746 105.655 25.5752C105.655 31.6229 105.728 32.06 107.476 33.2259C110.172 34.9746 114.398 34.1002 114.398 31.6957C114.398 30.457 113.961 29.8741 112.795 29.7284C111.265 29.5098 111.12 29.0726 110.901 24.1907C110.682 19.3089 110.828 18.9445 112.213 18.9445C113.014 18.9445 113.67 18.6531 113.67 18.2888C113.67 17.9244 113.888 17.1229 114.107 16.4672C114.471 15.5928 114.107 15.3013 112.65 15.3013C110.974 15.3013 110.755 15.0099 110.755 12.7511C110.755 10.0551 110.172 9.76368 107.331 10.9295Z" fill="black"/>
<path d="M53.1924 16.03C53.1924 16.3943 54.2125 20.4747 55.524 25.138L57.7828 33.5173H61.1345H64.4863L66.5993 25.648C67.7652 21.3491 68.8581 17.2687 69.0039 16.54C69.3682 15.5199 68.931 15.3014 66.4536 15.3014C63.2476 15.3014 63.3205 15.1556 62.2275 24.045C61.426 30.5299 60.7702 30.3113 59.823 23.2435C59.3858 19.5275 58.8029 16.2486 58.5843 15.8843C58.0743 15.0828 53.1924 15.1556 53.1924 16.03Z" fill="black"/>
<path d="M71.8456 17.5602C70.2426 19.3818 69.9512 20.5476 69.9512 24.118C69.9512 29.8742 71.3356 32.4973 74.8331 33.4446C76.3632 33.8817 78.7677 34.0275 80.2978 33.8089C82.7024 33.3717 83.0667 33.0802 83.0667 31.3315C83.0667 29.3642 82.9209 29.2913 80.1521 29.6556C77.1647 30.0928 75.0516 29.0727 75.0516 27.2511C75.0516 26.5225 76.2175 26.231 79.4963 26.231H83.941L83.6496 22.0778C83.2124 17.0502 81.5365 15.3014 76.8732 15.3014C74.2501 15.3014 73.3758 15.6658 71.8456 17.5602ZM78.5491 20.9848C78.7677 23.025 78.5491 23.3165 76.9461 23.3165C74.9059 23.3165 74.5416 22.0778 75.8531 19.6004C76.9461 17.5602 78.2577 18.2889 78.5491 20.9848Z" fill="black"/>
<path d="M86.71 24.4093V33.5173H89.2602H91.8104V27.0324C91.8104 21.1305 91.9562 20.4747 93.2677 20.0375C95.7451 19.236 96.1823 20.2561 96.1823 27.0324V33.5173H98.7325H101.283V25.7938C101.283 21.5677 100.918 17.4873 100.554 16.6858C99.6797 15.1556 95.5994 14.7913 93.2677 16.03C92.3205 16.54 91.7376 16.54 91.4461 16.03C91.2275 15.6657 90.0617 15.3014 88.823 15.3014H86.71V24.4093Z" fill="black"/>
<path d="M116.001 23.3893C116.22 30.9672 116.366 31.5501 118.042 32.9345C119.28 33.9546 120.373 34.246 121.685 33.8817C122.705 33.5903 125.037 33.4445 127.004 33.4445L130.428 33.5903V24.4094V15.3014H127.878H125.401L125.182 22.0049C124.964 28.4169 124.891 28.7812 123.361 28.9998C121.758 29.2184 121.685 29.0727 121.685 22.2963V15.3014H118.697H115.71L116.001 23.3893Z" fill="black"/>
<path d="M134.071 24.4093V33.5173H136.622H139.099L139.317 26.741L139.536 20.0375L141.941 19.8189C143.981 19.6003 144.272 19.3089 144.272 17.4144C144.272 15.6657 143.981 15.3014 142.596 15.3014C141.649 15.3014 140.483 15.7385 139.973 16.1757C139.172 16.9044 138.953 16.9044 138.662 16.1757C138.443 15.7385 137.35 15.3014 136.184 15.3014H134.071V24.4093Z" fill="black"/>
<path d="M146.968 16.9772C143.762 20.1104 143.762 29.437 146.968 32.2058C148.79 33.7359 151.923 34.3917 154.91 33.8088C157.023 33.4445 157.388 33.0801 157.388 31.4043C157.388 29.5098 157.242 29.437 153.963 29.437C150.903 29.5098 150.465 29.2912 150.247 27.8339C150.028 26.3038 150.247 26.2309 154.546 26.2309H159.063L158.626 22.8792C158.116 17.8516 156.149 15.7385 152.068 15.4471C149.3 15.2285 148.352 15.5199 146.968 16.9772ZM152.87 19.0903C153.38 19.6003 153.744 20.6933 153.744 21.6405C153.744 22.9521 153.307 23.3164 151.923 23.3164C150.393 23.3164 150.101 22.9521 150.101 21.2762C150.101 18.2888 151.194 17.4144 152.87 19.0903Z" fill="black"/>
<path d="M161.833 17.1959C159.21 20.5477 160.011 23.6079 164.31 26.0853C166.132 27.1783 166.715 27.9798 166.35 28.8541C165.986 29.7285 165.257 29.9471 163.144 29.6556C160.448 29.2913 160.303 29.3642 160.303 31.3315C160.303 33.1531 160.594 33.4446 163.144 33.8818C166.715 34.4647 169.775 33.1531 171.087 30.4571C172.471 27.5426 171.451 24.9195 168.172 22.8793C164.747 20.6934 164.893 19.309 168.609 19.3818C171.087 19.4547 171.305 19.309 171.087 17.5602C170.868 15.8115 170.577 15.6658 167.152 15.4472C163.8 15.2286 163.217 15.4472 161.833 17.1959Z" fill="black"/>
<path d="M174.146 27.7612V40.0752H177.061H179.976V36.7235C179.976 33.8818 180.194 33.4446 181.214 33.8089C183.4 34.6833 187.043 32.8617 188.063 30.3843C189.448 27.1783 189.229 19.5276 187.772 17.1959C186.606 15.5201 186.169 15.3743 180.34 15.4472L174.146 15.5201V27.7612ZM183.473 22.8793C183.765 27.8341 183.182 29.8742 181.433 29.8742C180.121 29.8742 179.976 29.3642 179.976 24.9195C179.976 19.6733 180.267 18.7261 182.162 19.0904C182.89 19.2361 183.327 20.4019 183.473 22.8793Z" fill="black"/>
<path d="M202.054 15.8114C201.544 15.9571 201.106 16.9772 201.106 17.9245C201.106 19.5275 201.325 19.6732 204.531 19.4546C207.3 19.3089 208.028 19.5275 208.247 20.5476C208.466 21.5676 208.028 21.8591 206.644 21.8591C200.523 21.8591 197.39 28.4169 201.544 32.4972C203.001 34.0274 203.729 34.246 205.332 33.8088C206.425 33.5173 208.684 33.3716 210.433 33.4445L213.493 33.5902V25.648C213.493 16.03 212.983 15.3014 206.863 15.3742C204.677 15.3742 202.491 15.5928 202.054 15.8114ZM208.247 27.4696C208.028 30.6028 205.915 31.6957 205.114 29.2184C204.458 26.9596 205.332 24.7737 207.008 24.7737C208.247 24.7737 208.466 25.2108 208.247 27.4696Z" fill="black"/>
<path d="M239.797 16.5402C236.446 19.2362 236.227 28.2713 239.36 31.9145C240.744 33.5175 241.619 33.809 244.679 33.809C247.302 33.809 248.832 33.3718 249.925 32.4245C253.35 29.3643 253.569 20.3291 250.29 17.0503C248.104 14.8643 242.202 14.5729 239.797 16.5402ZM246.646 24.4095C246.646 29.3643 246.574 29.51 244.825 29.51C243.149 29.51 243.003 29.2185 242.785 25.211C242.493 19.892 242.93 18.799 244.971 19.0904C246.501 19.309 246.646 19.6734 246.646 24.4095Z" fill="black"/>
<path d="M255.754 24.4093V33.5173H258.304H260.782L261 26.741L261.219 20.0375L263.259 19.8189C264.935 19.6003 265.226 19.236 265.226 17.4144C265.226 15.6657 264.935 15.3014 263.55 15.3014C262.603 15.3014 261.51 15.6657 261 16.1757C260.344 16.8315 260.126 16.8315 260.126 16.1757C260.126 15.6657 259.179 15.3014 257.94 15.3014H255.754V24.4093Z" fill="black"/>
<path d="M267.412 24.4093V33.5173H269.962H272.44L272.658 26.741C272.877 20.4018 272.95 20.0375 274.553 19.8189C276.083 19.6003 276.156 19.7461 276.156 26.5224V33.5173H278.706H281.183L281.402 26.741C281.621 20.4018 281.693 20.0375 283.296 19.8189C284.827 19.6003 284.899 19.7461 284.899 26.5224V33.5173H287.45H290V25.2837C290 19.8189 289.708 16.7586 289.126 16.1757C288.033 15.0828 284.535 15.0099 282.568 16.1029C281.548 16.6858 280.892 16.6858 280.309 16.1029C279.289 15.0828 275.791 15.0828 273.97 16.03C273.023 16.54 272.44 16.54 272.148 16.03C271.93 15.6657 270.764 15.3014 269.525 15.3014H267.412V24.4093Z" fill="black"/>
</svg>
