<svg width="196" height="41" viewBox="0 0 196 41" fill="none" xmlns="http://www.w3.org/2000/svg">
<path d="M0.148438 15.4908C0.148438 23.9504 0.313234 30.8169 0.587895 30.7071C0.807624 30.5972 3.99369 29.0042 7.72908 27.0815L14.4308 23.6757V20.1052V16.5895L11.4645 17.9079C9.81651 18.622 8.33334 19.0614 8.16854 18.8966C8.00375 18.6769 7.83895 14.3922 7.83895 9.2835V0.0548878H3.99369H0.148438V15.4908Z" fill="black"/>
<path d="M33.6572 15.7106V31.3663H35.3052H36.8982L37.063 23.0716C37.2278 14.8317 37.2278 14.7219 38.6561 13.6782C40.2491 12.4696 43.8746 11.8105 45.9071 12.3598C48.0495 12.8542 48.4889 14.8317 48.4889 23.4012V31.3663H50.4116H52.3342V22.9617C52.3342 15.8754 52.1694 14.2824 51.2355 12.2499C49.4228 8.23987 45.2479 7.25109 40.4688 9.6681C38.9857 10.4372 37.6123 11.0414 37.3926 11.0414C37.118 11.0414 36.9532 8.56946 36.9532 5.54819V0.0549641H35.3052H33.6572V15.7106Z" fill="black"/>
<path d="M121.548 15.6557V31.3663H123.471H125.394V22.8518V14.3373L127.591 13.2387C128.799 12.6344 130.832 12.1401 132.205 12.1401C135.996 12.1401 136.38 13.019 136.38 22.0828C136.38 26.2576 136.545 29.993 136.71 30.4874C136.929 31.0367 137.698 31.3663 138.632 31.3663H140.225V22.8518C140.225 13.5134 139.731 11.2611 137.259 9.66811C134.238 7.69055 131.381 8.02014 125.833 10.9315C125.613 11.0414 125.339 8.67933 125.284 5.71299L125.119 0.329628L123.361 0.164831L121.548 3.43323e-05V15.6557Z" fill="black"/>
<path d="M22.6705 10.2174C22.6705 15.4909 22.6155 19.8306 22.5057 19.8306C22.3958 19.8306 21.0225 19.2263 19.4844 18.4573C17.8914 17.6882 16.5181 17.084 16.3533 17.084C16.1885 17.084 16.0786 18.5122 16.0786 20.325V23.511L18.7154 24.6646C20.1436 25.2689 23.3297 26.9168 25.8566 28.2901L30.361 30.7621V15.6557V0.604294H26.5157H22.6705V10.2174Z" fill="black"/>
<path d="M183.622 5.82284C183.622 8.45959 183.457 8.84411 182.578 8.84411C181.974 8.84411 181.424 9.17371 181.315 9.5033C181.095 10.0526 180.765 10.0526 179.612 9.55823C177.14 8.40466 172.8 8.07506 170.163 8.84411C167.087 9.72303 164.396 12.5246 164.396 14.9416C164.396 18.8418 166.593 20.5996 173.295 22.0278C177.744 22.9068 179.337 25.2139 177.03 27.5211C175.437 29.1141 170.328 29.0592 166.977 27.3013L164.396 26.0379V28.0704C164.396 30.5973 165.824 31.3663 171.042 31.7509C175.437 32.1354 177.964 31.3663 180.106 29.1141C181.37 27.7957 181.699 26.9717 181.699 24.9942C181.699 21.6433 179.557 19.6658 174.997 18.7319C170.383 17.853 168.79 17.0839 168.46 15.7106C167.472 11.8105 173.404 10.2724 178.788 12.9091C180.875 13.9528 180.875 13.9528 180.875 12.964C180.875 12.4696 181.37 12.14 182.194 12.14H183.512L183.732 19.6658C184.006 29.9381 185.16 31.9156 190.928 31.9156C194.773 31.9156 195.817 31.4213 195.597 29.7733C195.432 28.4549 195.267 28.3451 193.125 28.5099C188.126 28.8944 187.467 27.7957 187.467 18.7319V12.195L191.477 12.0302C195.267 11.8654 195.432 11.8105 195.432 10.4921C195.432 9.17371 195.267 9.11877 191.477 8.95398L187.467 8.78918V5.82284V2.80157H185.544H183.622V5.82284Z" fill="black"/>
<path d="M60.8486 9.33845C56.454 11.316 54.037 16.3698 54.6962 22.0827C55.4653 28.2351 58.5415 31.4761 64.1445 31.8057C68.5941 32.0804 71.1759 30.9268 73.2633 27.6309C77.2733 21.3137 75.1859 12.0851 69.1434 9.33845C66.2869 8.075 63.6502 8.02007 60.8486 9.33845ZM69.473 13.733C72.2196 16.8092 72.0548 24.3349 69.0884 27.3013C68.0447 28.345 67.1658 28.6197 65.1333 28.6197C61.7825 28.6197 60.3542 27.6309 59.1457 24.4997C57.9921 21.4235 58.3767 16.4247 59.9148 14.3922C62.3318 11.0963 66.8362 10.7667 69.473 13.733Z" fill="black"/>
<path d="M83.1512 8.89906C78.5369 10.7118 76.3945 14.2824 76.3945 20.0503C76.3945 24.4998 77.0537 26.5872 79.1411 28.7845C81.7779 31.5861 86.1725 31.9157 90.0727 29.7184C92.215 28.4549 92.6545 28.9493 92.1601 31.9157C91.446 35.9807 87.8754 37.4638 82.1075 36.1454L78.6468 35.3215L78.8115 37.354C78.9763 39.3315 78.9763 39.3315 82.1624 39.8259C88.3698 40.7598 92.8193 39.0569 94.9067 34.9369C95.8955 32.9594 96.0053 31.641 96.0053 20.9292V9.11879L94.4123 8.95399C93.5334 8.84413 92.6545 9.00892 92.4347 9.33852C92.215 9.77798 91.5009 9.72305 90.0727 9.11879C87.8204 8.18494 85.1288 8.07508 83.1512 8.89906ZM91.3361 12.6894C92.3249 13.2387 92.4347 13.8979 92.4347 19.2813C92.4347 25.1041 92.3798 25.3238 91.0065 26.2027C89.1937 27.4112 84.4696 27.8507 82.8216 26.9718C81.0638 26.0379 80.075 23.4561 80.1299 19.8306C80.1299 14.2275 83.0413 11.2611 87.9303 11.8654C89.2487 11.9753 90.7868 12.3598 91.3361 12.6894Z" fill="black"/>
<path d="M105.399 8.84411C101.388 10.0526 98.532 14.8317 98.4771 20.27C98.4771 27.6859 102.212 31.9156 108.694 31.9156C112.979 31.9156 116.055 30.1029 117.703 26.6422C119.901 22.1926 119.132 14.7219 116.165 11.371C113.913 8.84411 109.134 7.74547 105.399 8.84411ZM112.54 12.7443C114.133 14.0627 115.122 16.7544 115.122 20.0503C115.176 24.0054 113.913 27.0816 111.881 28.0155C109.903 28.8944 106.607 28.7845 105.124 27.7408C101.059 24.8843 101.553 14.2824 105.838 12.3598C107.761 11.4809 111.276 11.7006 112.54 12.7443Z" fill="black"/>
<path d="M149.014 9.11867C146.543 10.2722 145.279 11.4258 144.071 13.7879C140.939 19.9952 143.082 28.29 148.52 31.1465C150.498 32.1353 155.771 32.1353 157.749 31.0916C161.649 29.114 163.626 24.6645 163.132 18.9515C162.638 12.6893 159.342 9.0088 153.849 8.51441C151.926 8.34962 150.333 8.56935 149.014 9.11867ZM155.826 12.3597C158.243 13.3484 159.452 16.0401 159.452 20.3798C159.452 24.0053 158.518 26.4223 156.595 27.7407C155.112 28.7844 150.772 28.8943 149.509 27.9055C145.059 24.4997 145.664 14.0626 150.388 12.085C152.036 11.4258 153.794 11.4808 155.826 12.3597Z" fill="black"/>
</svg>
